<?xml version="1.0" encoding="utf-8"?>
<!-- Generator: Adobe Illustrator 25.4.1, SVG Export Plug-In . SVG Version: 6.00 Build 0)  -->
<svg version="1.1"
	 id="svg2" xmlns:cc="http://creativecommons.org/ns#" xmlns:dc="http://purl.org/dc/elements/1.1/" xmlns:inkscape="http://www.inkscape.org/namespaces/inkscape" xmlns:rdf="http://www.w3.org/1999/02/22-rdf-syntax-ns#" xmlns:sodipodi="http://sodipodi.sourceforge.net/DTD/sodipodi-0.dtd" xmlns:svg="http://www.w3.org/2000/svg"
	 xmlns="http://www.w3.org/2000/svg" xmlns:xlink="http://www.w3.org/1999/xlink" x="0px" y="0px" viewBox="0 0 620 620"
	 style="enable-background:new 0 0 620 620;" xml:space="preserve">
<style type="text/css">
	.st0{opacity:0.995;fill:#EC2425;enable-background:new    ;}
	.st1{opacity:0.995;fill-rule:evenodd;clip-rule:evenodd;fill:#EC2425;enable-background:new    ;}
	.st2{fill-rule:evenodd;clip-rule:evenodd;fill:#4F4C4C;}
	.st3{fill:#4F4C4C;}
</style>
<sodipodi:namedview  bordercolor="#666666" borderopacity="1" fit-margin-bottom="0" fit-margin-left="0" fit-margin-right="0" fit-margin-top="0" gridtolerance="10" guidetolerance="10" id="namedview4" inkscape:current-layer="g12" inkscape:cx="273.12359" inkscape:cy="331.64127" inkscape:document-rotation="0" inkscape:pageopacity="0" inkscape:pageshadow="2" inkscape:window-height="745" inkscape:window-maximized="1" inkscape:window-width="1366" inkscape:window-x="-8" inkscape:window-y="-8" inkscape:zoom="0.62013544" objecttolerance="10" pagecolor="#ffffff" showgrid="false">
	</sodipodi:namedview>
<g id="g10" transform="matrix(1.3333333,0,0,-1.3333333,-749.29509,869.71617)" inkscape:groupmode="layer" inkscape:label="ink_ext_XXXXXX">
	<g id="g12" transform="scale(0.1)">
		<path id="path14" class="st0" d="M7431.4,4381.3c16.6-39.7,86.3-82.7,150.6-108.6c19.2-7.7,37.6-12.7,55.7-23.2
			c56.7-33.1,59.7-85.1,2.2-137c-98.9-89.2-249-92.9-364-17.6c-319.1,187.2-588.3,592.8-598.5,1016.7
			c144.1-107.7,317.8-108.3,482.9-107.5c91.8,0.4,182.7,16,274.8,12.7c278-9.7,428.9-253.6,403.4-504.7
			c-3.7-36.2-11.8-87.4-29-119.8c-21.5-40.4-57-56.9-114.9-59.5C7603,4328.6,7517,4349.1,7431.4,4381.3"/>
		<path id="path16" class="st0" d="M9211.5,5311.2c-100.5,815.4-852.7,1291-1604.7,1091.2c173.3-81.5,256.7-224.4,313-395.1
			c55.9-169.8,77.5-345.4,72.9-523c-3.1-119.6,78.2-257.5,255.7-258.2c311.2-1.3,622.4,0.2,933.6-1.3c27-1.4,33.5,12.5,33.9,30
			C9216.4,5271,9213.6,5294.2,9211.5,5311.2z M8529,6076.8c10.4,0,14.1-6.4,15.9-13.9c2.7-10.9,4-20.1,7.3-31.4
			c13.1-44.8,27.4-89.2,49.2-130.3c44.2-83.3,120.2-121.8,204.5-149c20.1-6.5,30.4-7.3,50.8-10.6c13.5-2.2,24.8-6.8,25-21.3
			c-0.2-14.6-11.5-19.1-25-21.3c-20.4-3.3-30.7-4.1-50.8-10.6c-84.3-27.2-160.3-65.7-204.5-149c-21.8-41.1-36.1-85.5-49.2-130.3
			c-3.3-11.3-4.7-20.5-7.3-31.4c-1.8-7.5-5.5-13.9-15.9-13.9c-10.4,0-14.1,6.4-15.9,13.9c-2.7,10.9-4,20.1-7.3,31.4
			c-13.1,44.8-27.4,89.2-49.2,130.3c-44.2,83.3-120.2,121.8-204.5,149c-20.1,6.5-30.4,7.3-50.8,10.6c-13.5,2.2-24.8,6.8-25,21.3
			c0.2,14.6,11.5,19.1,25,21.3c20.4,3.3,30.7,4.1,50.8,10.6c84.3,27.2,160.3,65.7,204.5,149c21.8,41.1,36.1,85.5,49.2,130.3
			c3.3,11.3,4.7,20.5,7.3,31.4C8514.9,6070.4,8518.6,6076.8,8529,6076.8"/>
		<path id="path18" class="st0" d="M9211.5,5040c-100.5-815.4-852.7-1291-1604.7-1091.2c173.2,81.5,256.7,224.4,313,395.1
			c55.9,169.8,77.5,345.3,72.9,523c-3.1,119.6,78.2,257.5,255.7,258.2c311.2,1.3,622.4-0.2,933.6,1.3c27,1.3,33.5-12.5,33.9-30
			C9216.4,5080.3,9213.6,5057.1,9211.5,5040"/>
		<path id="path20" class="st1" d="M7285.2,6104.5c254.7,0,461.2-206.5,461.2-461.2s-206.5-461.2-461.2-461.2
			c-254.7,0-461.2,206.5-461.2,461.2S7030.5,6104.5,7285.2,6104.5"/>
		<path id="path22" class="st2" d="M7812.7,3488.8l159.4-107.3l0.1-19.8v-170.6l-0.2-30.6l-82-63.5l80.8-79.3v-275.3l-115.4-0.3
			v225.6l-77.1,76.9h-349.4v-302.4h-115.9v360.4v17.6v252.6l0.3,61.1h-0.3v55.1h115.9h377.7L7812.7,3488.8z M7782.9,3162H7429
			l0.1,210.5H7780l76.8-48.5l0.2-105L7782.9,3162"/>
		<path id="path24" class="st2" d="M8475.4,3488.8v-746.8h-115.9v746.8L8475.4,3488.8"/>
		<path id="path26" class="st2" d="M9625.1,3488.4V3350l0-57.3v-512.3l-89.4-38.3l-26.6,26.5l-456.1,456.1l-50.9,50.9l-25.9,25.9
			v-9.1v-551h-115.9v551v57.4v102.4l92.9,36.8l23.1-23.6l107.9-107.9l50.9-50.9l374.1-374.1v360v57.4v138.4L9625.1,3488.4"/>
		<path id="path28" class="st2" d="M6309.9,2741.9h70.2l60.5,0.3h315.5l24.6,7.9l124.2,80.5l18.4,38.4v170.6l-15.7,35.5l-51,37.8
			l-3.7,2.5l3.7,2.5l51,37.8l15.7,35.5v170.6l-18.4,38.4l-124.2,80.5l-24.6,7.9h-25h-290.4l-60.5,0.3h-70.2l-45.7-45.4v-70.9v-244.1
			v-26.1v-244.1v-70.9L6309.9,2741.9z M6807.9,3229.5v94.5l-76.8,48.5h-350.9v-197.2l356.4,0.1L6807.9,3229.5z M6807.9,3001.2v-94.5
			l-76.8-48.5h-350.9v197.2l356.4-0.1L6807.9,3001.2"/>
		<path id="path30" class="st3" d="M6299.7,2300.8h37.1c8,0,14.2,2.3,18.5,6.2c4.3,4,6.7,9.8,6.7,16.9c0,7-2.3,12.8-6.6,16.7
			c-4.3,3.9-10.6,6.1-18.6,6.1h-37.1V2300.8z M9447.5,2130.5c0,1.5,0.4,2.6,1.3,3.5c0.8,0.8,2,1.2,3.5,1.2h26c1.5,0,2.7-0.4,3.5-1.2
			c0.9-0.9,1.3-2,1.3-3.5v-147.4h82.2c1.5,0,2.6-0.4,3.5-1.2c0.8-0.9,1.2-2,1.2-3.5v-22.8c0-1.5-0.4-2.7-1.2-3.5
			c-0.8-0.9-2-1.3-3.5-1.3h-112.9c-1.5,0-2.7,0.4-3.5,1.3c-0.9,0.8-1.2,2-1.2,3.5V2130.5z M9297.9,2020.5h42.9l-21.3,62.6
			L9297.9,2020.5z M9302.3,2131.1c0.4,1.4,1,2.4,2,3.1c1,0.7,2.1,1.1,3.5,1.1h24.4c1.4,0,2.5-0.3,3.5-1.1c0.9-0.7,1.6-1.7,2-3.1
			l60.9-174.9c0.5-1.6,0.4-2.8-0.3-3.8c-0.7-1.1-1.9-1.5-3.5-1.5h-26c-1.4,0-2.5,0.3-3.5,1.1c-0.9,0.7-1.6,1.7-2,3.1l-11.4,33.5
			H9287l-11.4-33.5c-0.4-1.3-1-2.3-2-3c-1-0.7-2.1-1.1-3.5-1.1h-25.7c-1.6,0-2.8,0.5-3.5,1.5c-0.7,1-0.8,2.2-0.3,3.8L9302.3,2131.1z
			 M9051.4,2130.5c0,1.5,0.4,2.6,1.2,3.5c0.9,0.9,2,1.2,3.5,1.2h24.4c1.3,0,2.5-0.3,3.7-1c1-0.6,1.9-1.5,2.6-2.7l70.6-119.5v118.5
			c0,1.5,0.4,2.6,1.2,3.5c0.9,0.8,2,1.2,3.5,1.2h23.1c1.5,0,2.6-0.4,3.5-1.2c0.9-0.9,1.2-2,1.2-3.5v-174.9c0-1.5-0.4-2.7-1.2-3.5
			c-0.9-0.9-2-1.3-3.5-1.3h-24.1c-1.3,0-2.6,0.3-3.7,1c-1,0.6-1.9,1.5-2.6,2.7l-70.9,119.2v-118.2c0-1.5-0.4-2.7-1.2-3.5
			c-0.9-0.9-2-1.2-3.5-1.2h-23.1c-1.5,0-2.7,0.4-3.5,1.3c-0.8,0.9-1.2,2-1.2,3.5V2130.5z M8952.8,2002.4c1,3.1,1.8,8.1,2.3,14.8
			c0.5,6.8,0.8,15.5,0.8,25.9c0,10.4-0.3,19.1-0.8,25.9c-0.5,6.7-1.3,11.6-2.3,14.8c-2.6,7.4-6.5,13-11.8,16.6
			c-5.2,3.7-11.9,5.6-19.9,5.6c-7.9,0-14.4-1.9-19.6-5.5c-5.2-3.7-9.2-9.3-11.8-16.7c-1-3.1-1.8-8.1-2.3-14.8
			c-0.5-6.8-0.8-15.5-0.8-25.9c0-10.4,0.3-19.1,0.8-25.9c0.5-6.7,1.3-11.6,2.3-14.8c2.6-7.4,6.6-13,11.8-16.7
			c5.2-3.7,11.7-5.5,19.6-5.5c8.1,0,14.7,1.9,19.9,5.5C8946.3,1989.4,8950.2,1995,8952.8,2002.4L8952.8,2002.4z M8855.5,1992.8
			c-1.6,4.9-2.8,11.6-3.7,20c-0.8,8.4-1.2,18.4-1.2,30.3c0,11.8,0.4,21.9,1.2,30.2c0.8,8.4,2,15,3.7,20c4.8,14.6,13,25.7,24.1,33.3
			c11.2,7.6,25.2,11.6,41.5,11.6c16.4,0,30.5-3.9,41.7-11.6c11.1-7.6,19.4-18.8,24.2-33.3c1.6-4.9,2.9-11.6,3.7-20
			c0.8-8.4,1.2-18.4,1.2-30.2c0-11.8-0.4-21.9-1.2-30.3c-0.8-8.4-2-15-3.7-20c-4.8-14.6-13-25.8-24.1-33.4
			c-11.2-7.6-25.3-11.6-41.7-11.6c-16.3,0-30.3,3.9-41.5,11.6C8868.5,1967,8860.3,1978.2,8855.5,1992.8L8855.5,1992.8z
			 M8755.7,2130.5c0,1.5,0.4,2.6,1.3,3.5c0.8,0.8,2,1.2,3.5,1.2h26c1.5,0,2.6-0.4,3.5-1.2c0.9-0.8,1.2-2,1.2-3.5v-174.9
			c0-1.5-0.4-2.7-1.2-3.5c-0.8-0.9-2-1.3-3.5-1.3h-26c-1.5,0-2.6,0.4-3.5,1.2c-0.9,0.8-1.2,2-1.2,3.5V2130.5z M8593.2,1954.6
			c-6.1,2.3-11.6,4.9-16.6,7.9c-5,3-9.3,6.2-13,9.8l0,0c-1,1-1.6,2-1.7,3.1c-0.2,1.2,0.2,2.5,1.1,3.6c5.4,6.3,11,13.2,16.6,19.3
			c1,1,2,1.6,3.1,1.7c1.2,0.1,2.3-0.3,3.4-1.3c7.9-6.2,15.8-10.9,23.7-14c7.9-3.1,15.9-4.6,24-4.6c10,0,18,2.4,23.5,6.6
			c5.4,4.1,8.3,10.1,8.3,17.3c0,6.2-2,11.1-6.6,14.8c-4.9,3.9-12.8,6.5-24.5,8l-9.6,1.3c-18.6,2.6-32.6,8.3-41.9,17.1
			c-9.5,9-14.2,21.1-14.2,36.4c0,17.1,6.2,31.2,17.3,41.1c11,9.8,26.7,15.3,45.7,15.3c11.7,0,22.5-1.6,32.4-4.6
			c9.9-3.1,19-7.7,27.1-13.8l0,0c1.1-0.9,1.7-1.9,1.8-3c0.2-1.2-0.1-2.3-0.8-3.4c-4.2-6.5-8.5-13.6-12.9-19.8
			c-0.8-1-1.8-1.7-2.9-1.9c-1.2-0.2-2.3,0-3.5,0.6l-0.1,0c-7,4.5-14,8-21,10.3c-7,2.3-14,3.4-21.1,3.4c-8.4,0-15-2.2-19.4-5.9
			c-4.5-3.8-6.9-9.3-6.9-16.1c0-5.8,2.5-10.5,7.5-14.2c5.3-3.9,13.2-6.6,23.9-8.1l9.6-1.3c18.3-2.6,32.2-8.3,41.5-17.3
			c9.4-9.1,14.1-21.4,14.1-37c0-17.5-6.6-32.3-19.1-42.6c-11.9-9.8-29.1-15.5-50.9-15.5c-6.6,0-13.1,0.5-19.4,1.7
			C8605.5,1950.6,8599.3,1952.3,8593.2,1954.6L8593.2,1954.6z M8421.3,2020.5h42.9l-21.3,62.6L8421.3,2020.5z M8425.7,2131.1
			c0.4,1.3,1,2.3,2,3.1c1,0.7,2.1,1.1,3.5,1.1h24.4c1.4,0,2.5-0.3,3.5-1.1c0.9-0.7,1.6-1.7,2-3.1l60.9-174.9
			c0.5-1.6,0.4-2.8-0.3-3.8c-0.7-1.1-1.9-1.5-3.5-1.5h-26c-1.4,0-2.5,0.3-3.5,1.1c-0.9,0.7-1.5,1.7-1.9,3l-11.4,33.5h-64.9
			l-11.4-33.5c-0.4-1.4-1-2.4-2-3.1c-1-0.7-2.1-1.1-3.5-1.1h-25.7c-1.6,0-2.8,0.5-3.5,1.6c-0.7,1-0.8,2.2-0.3,3.8L8425.7,2131.1z
			 M8174.7,2130.5c0,1.5,0.4,2.7,1.3,3.5c0.8,0.8,2,1.2,3.5,1.2h24.4c1.3,0,2.6-0.3,3.7-1c1-0.6,1.9-1.5,2.6-2.7l70.6-119.5v118.5
			c0,1.5,0.4,2.6,1.2,3.5c0.9,0.8,2,1.2,3.5,1.2h23.1c1.5,0,2.6-0.4,3.5-1.2c0.9-0.8,1.2-2,1.2-3.5v-174.9c0-1.5-0.4-2.7-1.2-3.5
			c-0.8-0.9-2-1.3-3.5-1.3h-24.1c-1.3,0-2.6,0.3-3.7,1c-1,0.6-1.9,1.5-2.6,2.8l-70.8,119.2v-118.2c0-1.5-0.4-2.7-1.2-3.5
			c-0.9-0.9-2-1.2-3.5-1.2h-23.1c-1.5,0-2.6,0.4-3.5,1.2c-0.9,0.9-1.3,2-1.3,3.5L8174.7,2130.5z M7982.8,2130.5
			c0,1.5,0.4,2.6,1.2,3.5c0.9,0.8,2,1.2,3.5,1.2h26c1.5,0,2.6-0.4,3.5-1.2c0.9-0.8,1.2-2,1.2-3.5v-174.9c0-1.5-0.4-2.7-1.2-3.5
			c-0.8-0.9-2-1.3-3.5-1.3h-26c-1.5,0-2.6,0.4-3.5,1.3c-0.8,0.8-1.2,2-1.2,3.5V2130.5z M7820.3,1954.6c-6.1,2.3-11.6,4.9-16.6,7.9
			c-5,3-9.3,6.2-13,9.8c-1,1-1.6,2.1-1.8,3.2c-0.2,1.2,0.1,2.4,1,3.6c5.6,6.2,11.3,12.9,16.6,19.3c1,1,2,1.6,3.1,1.7
			c1.2,0.1,2.3-0.3,3.4-1.3c7.9-6.2,15.8-10.9,23.7-14c7.9-3.1,15.9-4.6,24-4.6c10,0,18,2.4,23.5,6.6c5.4,4.1,8.3,10.1,8.3,17.3
			c0,6.2-2,11.1-6.6,14.8c-4.9,3.9-12.8,6.5-24.5,8l-9.6,1.3c-18.6,2.6-32.6,8.3-41.9,17.1c-9.5,9-14.2,21.1-14.2,36.4
			c0,17.1,6.2,31.2,17.3,41.1c11,9.8,26.7,15.3,45.7,15.3c11.7,0,22.5-1.6,32.4-4.6c9.9-3.1,19-7.7,27.1-13.8l0.1,0
			c1.1-0.9,1.7-1.9,1.8-3c0.2-1.2-0.1-2.3-0.8-3.4c-4.1-6.4-8.5-13.8-12.9-19.9c-0.8-1-1.8-1.7-2.9-1.9c-1.2-0.2-2.3,0-3.5,0.6
			l-0.1,0c-7,4.5-14,8-21,10.3c-7,2.3-14,3.4-21.1,3.4c-8.4,0-14.9-2.1-19.4-5.9c-4.5-3.8-6.9-9.3-6.9-16.1c0-5.8,2.5-10.5,7.5-14.2
			c5.3-3.9,13.2-6.6,23.9-8.1l9.5-1.3c18.3-2.6,32.2-8.3,41.5-17.3c9.4-9.1,14.1-21.4,14.1-37c0-17.5-6.6-32.3-19.1-42.6
			c-11.9-9.8-29.1-15.5-50.9-15.5c-6.6,0-13.1,0.5-19.4,1.7C7832.6,1950.6,7826.3,1952.3,7820.3,1954.6L7820.3,1954.6z
			 M7648.4,2020.5h42.9L7670,2083L7648.4,2020.5z M7652.7,2131.1c0.4,1.4,1,2.4,2,3.1c1,0.7,2.1,1.1,3.5,1.1h24.4
			c1.4,0,2.5-0.3,3.5-1.1c0.9-0.7,1.6-1.7,2-3.1l60.9-174.9c0.5-1.6,0.4-2.8-0.3-3.8c-0.7-1.1-1.9-1.6-3.5-1.6h-26
			c-1.4,0-2.5,0.3-3.5,1.1c-0.9,0.7-1.6,1.7-2,3.1l-11.4,33.5h-64.9l-11.4-33.5c-0.4-1.3-1-2.3-2-3c-1-0.7-2.1-1.1-3.5-1.1h-25.7
			c-1.6,0-2.8,0.5-3.5,1.5c-0.7,1-0.8,2.2-0.3,3.8L7652.7,2131.1z M7487.4,1950.8c-1.3,0-2.4,0.4-3.3,1.1c-0.9,0.7-1.5,1.7-1.9,3
			l-57,175c-0.5,1.7-0.3,3,0.6,3.9c0.8,0.9,2,1.4,3.6,1.4h25.7c1.4,0,2.5-0.3,3.5-1.1c0.9-0.7,1.6-1.7,2-3.1l38.6-122.5l37.1,122.6
			c0.4,1.4,1,2.4,2,3.1c1,0.7,2.1,1.1,3.5,1.1h25.7c1.5,0,2.7-0.4,3.5-1.4c0.8-1,1.1-2.3,0.6-3.9l-57.3-175c-0.4-1.3-1-2.3-1.9-3
			c-0.9-0.8-2-1.1-3.3-1.1L7487.4,1950.8z M7342,2002.4c1,3.1,1.7,8.1,2.3,14.8c0.5,6.8,0.8,15.5,0.8,25.9c0,10.4-0.3,19-0.8,25.9
			c-0.5,6.7-1.3,11.6-2.3,14.8c-2.6,7.4-6.6,13-11.8,16.6c-5.2,3.7-11.9,5.5-19.9,5.5c-7.9,0-14.4-1.9-19.6-5.5
			c-5.2-3.7-9.1-9.3-11.8-16.7c-1-3.1-1.7-8.1-2.3-14.8c-0.5-6.8-0.8-15.4-0.8-25.9c0-10.4,0.3-19,0.8-25.9
			c0.5-6.7,1.3-11.7,2.3-14.8c2.6-7.4,6.6-13,11.8-16.7c5.2-3.7,11.7-5.5,19.6-5.5c8,0,14.7,1.9,19.9,5.5S7339.3,1995,7342,2002.4
			L7342,2002.4z M7244.7,1992.8c-1.6,4.9-2.9,11.6-3.7,20c-0.8,8.4-1.2,18.4-1.2,30.3c0,11.8,0.4,21.9,1.2,30.2c0.8,8.4,2,15,3.7,20
			c4.8,14.6,13,25.7,24.1,33.3c11.2,7.6,25.2,11.6,41.5,11.6c16.4,0,30.5-3.9,41.7-11.6c11.1-7.6,19.4-18.8,24.2-33.3
			c1.6-4.9,2.9-11.6,3.7-20c0.8-8.4,1.2-18.4,1.2-30.2c0-11.8-0.4-21.9-1.2-30.3c-0.8-8.4-2-15-3.7-20c-4.8-14.6-13-25.8-24.2-33.4
			c-11.2-7.6-25.3-11.6-41.7-11.6c-16.3,0-30.3,3.9-41.5,11.6C7257.7,1967,7249.4,1978.2,7244.7,1992.8z M7041.7,2130.5
			c0,1.5,0.4,2.6,1.2,3.5c0.9,0.8,2,1.2,3.5,1.2h24.4c1.3,0,2.6-0.3,3.7-1c1-0.6,1.9-1.5,2.6-2.7l70.6-119.5v118.5
			c0,1.5,0.4,2.6,1.2,3.5c0.8,0.9,2,1.2,3.5,1.2h23.1c1.5,0,2.7-0.4,3.5-1.2c0.9-0.9,1.3-2,1.3-3.5v-174.9c0-1.5-0.4-2.7-1.2-3.5
			c-0.9-0.9-2-1.2-3.5-1.2h-24.1c-1.3,0-2.6,0.3-3.7,1c-1,0.6-1.9,1.5-2.6,2.7l-70.8,119.2v-118.2c0-1.5-0.4-2.7-1.2-3.5
			c-0.9-0.9-2-1.3-3.5-1.3h-23c-1.5,0-2.7,0.4-3.5,1.3c-0.9,0.8-1.2,2-1.2,3.5L7041.7,2130.5z M6941.5,2130.5c0,1.5,0.4,2.6,1.2,3.5
			c0.9,0.8,2,1.2,3.5,1.2h26c1.5,0,2.7-0.4,3.5-1.2c0.9-0.9,1.2-2,1.2-3.5v-174.9c0-1.5-0.4-2.7-1.2-3.5c-0.9-0.9-2-1.2-3.5-1.2h-26
			c-1.5,0-2.7,0.4-3.5,1.3c-0.8,0.8-1.2,2-1.2,3.5V2130.5z M6646.4,2130.5c0,1.5,0.4,2.6,1.2,3.5c0.9,0.8,2,1.2,3.5,1.2h24.4
			c1.3,0,2.5-0.3,3.7-1c1-0.6,1.9-1.5,2.6-2.7l70.6-119.5v118.5c0,1.5,0.4,2.6,1.2,3.5c0.9,0.9,2,1.2,3.5,1.2h23.1
			c1.5,0,2.6-0.4,3.5-1.2c0.9-0.8,1.3-2,1.3-3.5v-174.9c0-1.5-0.4-2.7-1.2-3.5c-0.8-0.9-2-1.3-3.5-1.3h-24.1c-1.3,0-2.6,0.3-3.7,1
			c-1,0.6-1.9,1.5-2.6,2.7l-70.9,119.3v-118.2c0-1.5-0.4-2.7-1.2-3.5c-0.9-0.9-2-1.2-3.5-1.2h-23.1c-1.5,0-2.7,0.4-3.5,1.3
			c-0.8,0.9-1.2,2-1.2,3.5L6646.4,2130.5z M6496.8,2020.5h42.9l-21.3,62.6L6496.8,2020.5z M6501.2,2131.1c0.4,1.3,1,2.3,1.9,3
			c1,0.7,2.1,1.1,3.5,1.1h24.4c1.4,0,2.5-0.3,3.5-1.1c0.9-0.7,1.6-1.7,2-3.1l61-174.9c0.4-1.6,0.4-2.8-0.3-3.8
			c-0.7-1.1-1.9-1.5-3.5-1.5h-26c-1.4,0-2.5,0.3-3.5,1.1c-0.9,0.7-1.5,1.7-1.9,3l-11.4,33.5h-64.9l-11.4-33.5c-0.4-1.3-1-2.3-1.9-3
			c-1-0.7-2.1-1.1-3.5-1.1h-25.7c-1.7,0-2.8,0.5-3.5,1.5c-0.7,1-0.8,2.2-0.3,3.8L6501.2,2131.1z M6299.7,1983.1h26.3
			c9.5,0,17.2,1.8,23.1,5.4c5.8,3.5,9.9,8.9,12.3,16l0,0.1c1,2.7,1.7,7.2,2.3,13.6c0.5,6.5,0.8,14.8,0.8,24.9
			c0,10.2-0.3,18.4-0.8,24.9c-0.5,6.3-1.3,10.9-2.3,13.6l0,0.1c-2.4,7.1-6.5,12.4-12.3,16c-5.9,3.6-13.6,5.4-23.1,5.4h-26.3V1983.1z
			 M6264.3,2130.5c0,1.5,0.4,2.7,1.3,3.5c0.8,0.8,2,1.2,3.5,1.2h64.4c16.2,0,29.4-3.4,39.8-10.3c10.4-6.9,17.8-17.3,22.4-31.1l0,0
			c1.5-4.8,2.7-11.5,3.4-20.2c0.8-8.4,1.2-18.6,1.2-30.5c0-11.9-0.4-22.1-1.2-30.5c-0.8-8.6-1.9-15.4-3.4-20.2l0,0
			c-4.5-13.8-12-24.2-22.4-31.1c-10.4-6.9-23.6-10.3-39.8-10.3H6269c-1.5,0-2.6,0.4-3.5,1.2c-0.9,0.9-1.3,2-1.3,3.5V2130.5z
			 M8023.3,2269c-1.5,0-2.7,0.4-3.5,1.3c-0.9,0.8-1.2,2-1.2,3.5v147.4h-46.7c-1.5,0-2.6,0.4-3.5,1.2c-0.8,0.9-1.2,2-1.2,3.5v22.8
			c0,1.5,0.4,2.6,1.2,3.5c0.8,0.9,2,1.2,3.5,1.2h128.8c1.5,0,2.7-0.4,3.5-1.2c0.8-0.9,1.2-2,1.2-3.5v-22.8c0-1.5-0.4-2.7-1.2-3.5
			c-0.8-0.8-2-1.2-3.5-1.2H8054v-147.4c0-1.5-0.4-2.7-1.2-3.5c-0.9-0.9-2-1.3-3.5-1.3L8023.3,2269z M7800.9,2448.7
			c0,1.5,0.4,2.7,1.2,3.5c0.9,0.8,2,1.2,3.5,1.2h112.9c1.5,0,2.6-0.4,3.5-1.2c0.8-0.9,1.2-2,1.2-3.5v-22.8c0-1.5-0.4-2.7-1.2-3.5
			c-0.8-0.9-2-1.2-3.5-1.2h-82.2v-43h69.2c1.5,0,2.6-0.4,3.5-1.2c0.9-0.9,1.3-2,1.3-3.5v-22.8c0-1.5-0.4-2.7-1.2-3.5
			c-0.9-0.8-2-1.2-3.5-1.2h-69.2v-44.6h82.2c1.5,0,2.6-0.4,3.5-1.2c0.8-0.9,1.2-2,1.2-3.5v-22.8c0-1.5-0.4-2.7-1.2-3.5
			c-0.8-0.9-2-1.3-3.5-1.3h-112.9c-1.5,0-2.7,0.4-3.5,1.2c-0.9,0.8-1.2,2-1.2,3.5L7800.9,2448.7z M7638.4,2272.8
			c-6.1,2.3-11.7,4.9-16.6,7.9c-5,3-9.3,6.2-13,9.8l0,0c-1,1-1.6,2-1.8,3.2c-0.2,1.3,0.2,2.5,1.1,3.6c4.4,5.9,11.5,13.6,16.6,19.3
			c1,1,2,1.6,3.1,1.7c1.2,0.1,2.4-0.3,3.5-1.4c7.9-6.2,15.7-10.8,23.7-13.9c7.9-3.1,15.9-4.6,24-4.6c10,0,18,2.4,23.5,6.6
			c5.4,4.1,8.3,10.1,8.3,17.3c0,6.2-2,11.1-6.6,14.8c-4.9,3.9-12.8,6.5-24.5,8l-9.6,1.3c-18.6,2.6-32.6,8.3-41.9,17.1
			c-9.5,9-14.2,21.1-14.2,36.4c0,17.1,6.2,31.2,17.3,41.1c11,9.8,26.7,15.3,45.7,15.3c11.7,0,22.5-1.6,32.5-4.6
			c9.9-3.1,19-7.7,27.1-13.8l0,0c1.1-0.9,1.7-1.9,1.8-3c0.2-1.2-0.2-2.3-0.8-3.4c-4.2-6.5-8.5-13.5-12.9-19.8
			c-0.8-1-1.8-1.7-2.9-1.9c-1.2-0.3-2.3,0-3.5,0.6l-0.1,0c-7,4.5-14,8-21,10.3c-7,2.3-14,3.4-21.1,3.4c-8.4,0-15-2.1-19.4-5.9
			c-4.5-3.8-6.9-9.4-6.9-16.1c0-5.8,2.5-10.5,7.5-14.2c5.3-3.9,13.2-6.6,23.9-8.1l9.5-1.3c18.3-2.6,32.2-8.3,41.5-17.3
			c9.4-9.1,14.1-21.4,14.1-36.9c0-17.5-6.6-32.3-19.1-42.6c-11.9-9.8-29.1-15.5-50.9-15.5c-6.6,0-13.1,0.5-19.4,1.7
			C7650.7,2268.8,7644.5,2270.5,7638.4,2272.8L7638.4,2272.8z M7515.8,2448.7c0,1.5,0.4,2.7,1.2,3.5c0.9,0.8,2,1.2,3.5,1.2h26
			c1.5,0,2.7-0.4,3.5-1.2c0.9-0.9,1.3-2,1.3-3.5v-174.9c0-1.5-0.4-2.7-1.2-3.5c-0.9-0.9-2-1.2-3.5-1.2h-26c-1.5,0-2.7,0.4-3.5,1.2
			c-0.8,0.8-1.2,2-1.2,3.5V2448.7z M7395.9,2374.2c7.8,0,14.1,2.4,18.6,6.4c4.4,4.1,6.9,9.9,6.9,16.9c0,7.2-2.5,13.1-6.8,17.2
			c-4.4,4.1-10.8,6.4-18.6,6.4H7358v-47L7395.9,2374.2z M7426.9,2269c-1.3,0-2.5,0.3-3.5,1c-1,0.7-1.8,1.6-2.4,3l-33.8,69H7358
			v-68.1c0-1.5-0.4-2.7-1.2-3.5c-0.9-0.9-2-1.3-3.5-1.3h-26c-1.5,0-2.6,0.4-3.5,1.3c-0.8,0.8-1.2,2-1.2,3.5v174.9
			c0,1.5,0.4,2.6,1.2,3.5c0.9,0.9,2,1.2,3.5,1.2h69.7c8.6,0,16.4-1.3,23.4-3.9c7.1-2.6,13.4-6.5,19-11.8c5.7-5.2,9.9-11.3,12.8-18
			c2.9-6.7,4.3-14.1,4.3-22.2c0-12-3.4-22.8-9.5-31.7c-5.8-8.3-13.9-14.9-23.9-19l36.8-71.3c0.5-0.8,0.7-1.7,0.7-2.5
			c0-0.8-0.2-1.5-0.6-2.1c-0.4-0.6-0.9-1.1-1.5-1.5c-0.7-0.4-1.5-0.6-2.3-0.6H7426.9z M7027.4,2448.7c0,1.5,0.4,2.7,1.2,3.5
			c0.9,0.8,2,1.2,3.5,1.2h24.4c1.3,0,2.6-0.3,3.7-1c1-0.6,1.9-1.5,2.6-2.7l70.6-119.5v118.4c0,1.5,0.4,2.6,1.2,3.5
			c0.9,0.9,2,1.2,3.5,1.2h23.1c1.5,0,2.7-0.4,3.5-1.2c0.9-0.9,1.3-2,1.3-3.5v-174.9c0-1.5-0.4-2.7-1.2-3.5c-0.9-0.9-2-1.3-3.5-1.3
			h-24.1c-1.3,0-2.6,0.3-3.7,1c-1,0.6-1.9,1.5-2.6,2.7l-70.8,119.3v-118.2c0-1.5-0.4-2.7-1.2-3.5c-0.8-0.9-2-1.2-3.5-1.2h-23
			c-1.5,0-2.7,0.4-3.5,1.2c-0.9,0.8-1.3,2-1.3,3.5L7027.4,2448.7z M6877.8,2338.6h42.9l-21.4,62.6L6877.8,2338.6z M6882.2,2449.3
			c0.4,1.4,1,2.4,2,3.1c0.9,0.7,2.1,1.1,3.5,1.1h24.4c1.4,0,2.5-0.3,3.5-1.1c0.9-0.7,1.6-1.7,2-3.1l61-174.9
			c0.4-1.6,0.4-2.8-0.3-3.8c-0.7-1-1.9-1.5-3.5-1.5h-26c-1.4,0-2.5,0.3-3.5,1.1c-0.9,0.7-1.6,1.7-2,3.1l-11.4,33.5h-64.9l-11.4-33.6
			c-0.4-1.3-1-2.3-2-3c-0.9-0.7-2.1-1.1-3.5-1.1h-25.7c-1.6,0-2.8,0.5-3.5,1.5c-0.7,1-0.8,2.2-0.3,3.8L6882.2,2449.3z
			 M6680.8,2301.3h26.3c9.5,0,17.2,1.8,23.1,5.4c5.8,3.5,9.9,8.9,12.3,16l0,0.1c1,2.7,1.7,7.3,2.3,13.6c0.5,6.5,0.8,14.8,0.8,24.9
			c0,10.1-0.3,18.4-0.8,24.9c-0.5,6.3-1.3,10.9-2.3,13.6l0,0.1c-2.4,7.1-6.4,12.4-12.3,15.9c-5.9,3.6-13.6,5.4-23.1,5.4h-26.3
			V2301.3z M6645.3,2448.7c0,1.5,0.4,2.6,1.2,3.5c0.9,0.9,2,1.2,3.5,1.2h64.4c16.2,0,29.4-3.4,39.8-10.3
			c10.4-6.9,17.8-17.3,22.4-31.2l0,0c1.5-4.8,2.7-11.5,3.4-20.2c0.8-8.4,1.1-18.6,1.1-30.5c0-11.9-0.4-22.1-1.1-30.5
			c-0.8-8.6-1.9-15.4-3.4-20.2l0,0c-4.5-13.8-12-24.2-22.4-31.1c-10.4-6.9-23.6-10.3-39.8-10.3h-64.4c-1.5,0-2.6,0.4-3.5,1.3
			c-0.8,0.8-1.2,2-1.2,3.5V2448.7z M6495.7,2338.6h42.9l-21.3,62.6L6495.7,2338.6z M6500.1,2449.3c0.4,1.4,1,2.4,2,3.1
			c1,0.7,2.1,1.1,3.5,1.1h24.4c1.4,0,2.5-0.3,3.5-1.1c0.9-0.7,1.6-1.7,2-3.1l60.9-174.9c0.5-1.6,0.4-2.8-0.3-3.8
			c-0.7-1.1-1.9-1.5-3.5-1.5h-26c-1.4,0-2.5,0.3-3.5,1.1c-0.9,0.7-1.6,1.7-2,3.1l-11.4,33.5h-64.9l-11.4-33.6c-0.4-1.3-1-2.3-2-3
			c-0.9-0.7-2.1-1.1-3.5-1.1h-25.7c-1.6,0-2.8,0.5-3.5,1.5c-0.7,1-0.8,2.2-0.3,3.8L6500.1,2449.3z M6335.3,2378.4
			c7.3,0,13.2,2.1,17.3,5.9c4.1,3.7,6.3,9.2,6.3,15.6c0,6.7-2.2,12.2-6.3,15.9c-4,3.8-10,5.9-17.4,5.9h-35.5v-43.3H6335.3z
			 M6264.3,2448.7c0,1.5,0.4,2.6,1.3,3.5c0.8,0.8,2,1.2,3.5,1.2h67.1c18.8,0,33.1-4.6,42.9-13c10.2-8.7,15.4-21.4,15.4-37.1
			c0-9.4-1.8-17.4-5.5-24.1c-3.2-5.8-7.7-10.5-13.5-14.2c5.9-3.1,11.3-8.3,15.3-15c4.2-7.1,6.9-15.9,6.9-25.9
			c0-18.1-5.7-31.9-16.5-41.1c-10.9-9.3-27-14-47.6-14H6269c-1.5,0-2.7,0.4-3.5,1.2c-0.9,0.9-1.2,2-1.2,3.5V2448.7"/>
	</g>
</g>
</svg>
