<?xml version="1.0" encoding="utf-8"?>
<!-- Generator: Adobe Illustrator 25.4.1, SVG Export Plug-In . SVG Version: 6.00 Build 0)  -->
<svg version="1.1" id="layer" xmlns="http://www.w3.org/2000/svg" xmlns:xlink="http://www.w3.org/1999/xlink" x="0px" y="0px"
	 viewBox="0 0 652 652" style="enable-background:new 0 0 652 652;" xml:space="preserve">
<style type="text/css">
	.st0{fill:#FFFFFF;stroke:#000000;stroke-miterlimit:10;}
	.st1{fill:#F7AA45;}
</style>
<rect class="st0" width="652" height="652"/>
<path d="M164.4,268.4c-13.3,0-22,5.9-22,25.9c0,20.6,8.1,24.8,22.2,24.8c6.3,0,11.3-0.8,16.8-2l-1-9.5c-4.8,1-8.5,1.6-13.5,1.6
	c-8.5,0-11.3-1.6-11.5-11.5h27.9c0.2-2.6,0.2-5.1,0.2-7.5C183.6,272.9,177.7,268.4,164.4,268.4z M155.3,289.4
	c0.2-8.9,3-11.3,8.7-11.3c5.9,0,8.1,2.2,8.1,11.3H155.3z M189,402h12.7v-65.3H189C189,336.7,189,402,189,402z M228.4,318.1h10.7
	v-48.3h-12.9v34.3c-4.4,3-8.1,4.4-11.3,4.4c-4.2,0-6.1-1.8-6.1-8.1v-30.7h-12.9v33.3c0,11.1,4.4,15.8,14.5,15.8
	c6.3,0,11.3-2.2,17.2-5.7C227.6,313.1,228.4,318.1,228.4,318.1z M127.4,346.8h17.8V402h12.7v-55.2h17.6v-10.1h-48.3v10.1H127.4z
	 M103,364c-10.7-5.5-13.1-7.3-13.1-11.7c0-4.4,3.4-7.1,11.5-7.1c5.5,0,9.3,0.8,13.5,1.8l1.2-9.5c-4-1.2-8.9-2-14.7-2
	c-16.6,0-23.6,7.1-23.6,17.8c0,9.9,4,13.5,16.4,19.8c11.1,5.7,13.5,7.5,13.5,12.3c0,5.3-3.8,8.1-12.1,8.1c-5.7,0-10.7-0.8-15.8-2.2
	l-1.2,9.5c5.5,1.4,10.9,2.2,16.8,2.2c16.8,0,24.2-7.3,24.2-19.2C119.9,374.1,116.1,370.6,103,364z M358.1,318.9
	c4.2,0,9.1-0.8,12.9-1.8l-1-9.5c-3.2,0.8-6.9,1.4-9.7,1.4c-7.7,0-10.5-2.6-10.5-15.4c0-12.7,3.8-15.2,10.3-15.2
	c3.6,0,6.7,0.4,9.9,1.4l1.2-9.5c-3.8-1-8.1-1.6-12.5-1.6c-13.1,0-22,5.7-22,25.5C336.9,313.9,343.8,318.9,358.1,318.9z M593.9,318.9
	c5.9,0,10.3-2.4,15.4-5.7l0.8,4.8h10.7v-71.9h-13.1v15.2c0,3.4,0.2,6.5,0.6,9.9l-0.2,0.2c-3.2-1.6-6.7-2.4-10.5-2.4
	c-11.3,0-20.4,6.9-20.4,25.7C577.1,313.3,583.8,318.9,593.9,318.9z M599.7,278.9c2.8,0,5.1,0.8,7.9,2.4v22.8c-4,2.8-7.1,4.2-9.9,4.2
	c-4.8,0-7.5-2.4-7.5-14.3C590.2,282,594.9,278.9,599.7,278.9z M103.4,250.4H81.2v67.7H103c20.8,0,29.3-7.5,29.3-34.3
	C132.1,256.3,124.4,250.4,103.4,250.4z M103,307.8h-8.7v-47.3h8.7c11.9,0,16.2,3.2,16.2,23.4C118.9,304.2,114.5,307.8,103,307.8z
	 M522.6,375.3c0,13.1-2.4,18.2-12.1,18.2c-10.1,0-12.5-4.8-12.5-18v-38.8h-12.7v38.8c0,20,6.1,27.7,24.6,27.7
	c19,0,25.5-8.5,25.5-28.7v-38h-12.7V375.3z M494.7,318.1h10.7v-33.7c0-10.9-4.6-15.6-18.6-15.6c-6.1,0-11.5,0.8-17.2,2.2l1.2,9.5
	c4.6-1,9.1-1.8,13.5-1.8c5.9,0,7.9,2.2,7.9,6.5v3.2h-3.8c-16.8,0-23.2,6.3-23.2,16.2c0,9.7,5.9,14.3,13.9,14.3
	c5.9,0,10.1-2.4,14.7-5.3C494.1,313.7,494.7,318.1,494.7,318.1z M492.5,305.2c-4,2.6-6.7,4.2-10.1,4.2c-3.2,0-5.5-1.8-5.5-5.9
	c0-4.6,3-7.1,12.5-7.1h3C492.5,296.7,492.5,305.2,492.5,305.2z M457.1,402h12.7v-65.3h-12.7C457.1,336.7,457.1,402,457.1,402z
	 M620.3,336.5h-19.6l-9.5,34.7c-1.8,7.1-3,12.7-4.6,20.6h-0.2c-1.4-6.9-2.8-13.7-4.6-20.4l-9.5-34.9h-19.4l-5.5,65.3h12.5l2.6-37.6
	c0.4-6.7,0.6-12.7,0.8-19.4h0.2c1.6,6.7,3.2,12.7,4.8,19.4l9.7,37.6h16.6l9.9-37.6c1.8-6.9,3.2-12.7,4.8-19.6l0.2,0.2
	c0.2,6.9,0.2,12.7,0.6,19.4l2.6,37.6H626C625.8,402,620.3,336.5,620.3,336.5z M440.1,318.1h12.9v-71.9h-12.9V318.1z M551.9,287.4
	v30.7h12.9v-33.3c0-11.1-4.4-15.8-14.5-15.8c-6.3,0-11.3,2.2-17.2,5.9l-0.8-5.1h-10.7v48.3h12.9v-34.3c4.4-3,8.1-4.4,11.3-4.4
	C549.8,279.3,551.9,281.2,551.9,287.4z M314.3,289c-7.5-3-9.5-4-9.5-6.5c0-3,2.8-4.4,7.9-4.4c3.6,0,7.5,0.6,10.9,1.4l1.2-9.3
	c-3.2-0.8-7.5-1.6-11.7-1.6c-13.5,0-20.4,4.8-20.4,14.7c0,7.5,3.4,10.3,12.5,14.1c8.1,3.2,10.1,4.2,10.1,7.1c0,3-2.6,4.8-8.5,4.8
	c-3.8,0-8.1-0.6-12.9-1.8l-1.2,9.5c4.4,1.2,8.5,1.8,13.5,1.8c15.2,0,21.2-5.5,21.2-15.2C327.4,295.5,323.8,292.9,314.3,289z
	 M274.7,402h37.6v-9.9h-24.8v-18.8h23v-9.7h-23v-17.2h24.8v-9.9h-37.6V402L274.7,402z M239.9,336.7h-19.6V402h12.7v-25.5h5.9
	c17.2,0,24-6.1,24-21C263,340.1,256.3,336.7,239.9,336.7L239.9,336.7z M239.3,366.8h-6.3v-20.6h6.7c8.1,0,10.7,2,10.7,9.7
	C250.4,363.6,247.2,366.8,239.3,366.8z M281.2,308.2c-1.8,0.6-3.6,0.8-5.7,0.8c-3.4,0-4.8-1.6-4.8-6.7v-23h10.5v-9.7h-10.5v-15.2
	l-12.9,1.8v13.5h-7.1v9.7h7.1v26.3c0,9.3,3.4,13.1,13.9,13.1c4,0,7.5-0.6,10.7-1.4L281.2,308.2z M368,371.1c0,5.1,0.4,10.9,1.2,17.6
	H369c-2.6-6.5-5.1-11.7-8.1-17.6l-17.8-34.3H327V402h10.9v-34.3c0-5.1-0.4-10.9-1-17.6h0.2c2.6,6.5,5.1,11.7,7.9,17.6l17.8,34.3
	h16.4v-65.3h-10.9C368,336.5,368,371.1,368,371.1z M396.7,283.8c4.4-3,8.1-4.4,11.3-4.4c4,0,6.1,1.8,6.1,8.1v30.7H427v-33.3
	c0-11.1-4.4-15.8-14.5-15.8c-6.3,0-11.1,2.2-16.2,5.1l-0.2-0.2c0.4-4,0.6-7.1,0.6-10.3v-17.4h-12.9v71.9h12.9V283.8L396.7,283.8z
	 M416.5,336.5h-21.4v65.3h21c20,0,28.3-7.1,28.3-33.1C444.4,342.4,436.7,336.5,416.5,336.5z M416.1,392.1h-8.5v-45.7h8.5
	c11.5,0,15.6,3.2,15.6,22.6S427.2,392.1,416.1,392.1z"/>
<path class="st1" d="M60.1,419.3H35.1V232.5h24.2c2.4,0,4.6-2,4.6-4.6c0-2.4-2-4.4-4.4-4.4H30.6c-2.4,0-4.6,2-4.6,4.6v196
	c0,2.4,2,4.6,4.6,4.6h29.5c2.4,0,4.6-2,4.6-4.6C64.6,421.6,62.6,419.3,60.1,419.3z"/>
</svg>
