<?xml version="1.0" encoding="utf-8"?>
<!-- Generator: Adobe Illustrator 16.0.0, SVG Export Plug-In . SVG Version: 6.00 Build 0)  -->
<!DOCTYPE svg PUBLIC "-//W3C//DTD SVG 1.1//EN" "http://www.w3.org/Graphics/SVG/1.1/DTD/svg11.dtd">
<svg version="1.1" id="svg6972" xmlns:svg="http://www.w3.org/2000/svg"
	 xmlns="http://www.w3.org/2000/svg" xmlns:xlink="http://www.w3.org/1999/xlink" x="0px" y="0px" width="300px" height="150px"
	 viewBox="-50 -37.338 300 150" enable-background="new -50 -37.338 300 150" xml:space="preserve">
<g id="layer1" transform="translate(-299.24268,-519.79818)">
	<g id="g8095" transform="matrix(1.25,0,0,-1.25,-549.88407,1515.867)">
		<g id="g9951" transform="matrix(1.702509,0,0,1.702509,-1192.7341,-634.84417)">
			<path id="path9046" fill="#2056AE" d="M1120.544,806.66c0-0.042,0-0.134,0-0.134c0-0.152-0.12-0.271-0.28-0.279
				c0,0-0.09-0.002-0.13-0.002c0,0-17.75,0-17.8,0c-0.03,0-0.13,0.002-0.13,0.002c-0.15,0.008-0.27,0.127-0.27,0.279
				c0,0-0.01,0.092-0.01,0.134v1.536c0,0.461,0.32,0.807,0.83,0.871c0.4,0.049,1.04,0.129,1.46,0.189
				c1.36,0.229,2.13,0.749,2.27,2.266c0.02,0.244,0.05,0.986,0.05,0.986l0.02,1.302v18.494l-0.02,1.305c0,0-0.03,0.74-0.05,0.983
				c-0.14,1.517-0.91,2.036-2.27,2.265c-0.42,0.061-1.06,0.141-1.46,0.192c-0.51,0.065-0.83,0.41-0.83,0.869c0,0,0,1.494,0,1.535
				c0,0.042,0.01,0.138,0.01,0.138c0,0.15,0.12,0.271,0.27,0.277c0,0,0.1,0.002,0.13,0.002c0.05,0,17.8,0,17.8,0
				c0.04,0,0.13-0.002,0.13-0.002c0.16-0.006,0.28-0.127,0.28-0.277c0,0,0-0.096,0-0.138v-1.535c0-0.459-0.31-0.804-0.83-0.869
				c-0.39-0.051-1.03-0.131-1.45-0.192c-1.36-0.229-2.13-0.748-2.28-2.265c-0.02-0.243-0.05-0.983-0.05-0.983l-0.01-1.305V813.81
				l0.01-1.302c0,0,0.03-0.742,0.05-0.986c0.15-1.517,0.92-2.037,2.28-2.266c0.42-0.06,1.06-0.14,1.45-0.189
				c0.52-0.064,0.83-0.41,0.83-0.871V806.66"/>
			<path id="path9048" fill="#2056AE" d="M1148.884,806.66c0-0.042,0-0.134,0-0.134c0-0.152,0.12-0.271,0.27-0.279
				c0,0,0.1-0.002,0.14-0.002s17.79,0,17.79,0c0.04,0,0.13,0.002,0.13,0.002c0.16,0.008,0.27,0.127,0.28,0.279
				c0,0,0.01,0.092,0.01,0.134v1.536c0,0.461-0.33,0.807-0.84,0.871c-0.39,0.049-1.03,0.129-1.45,0.189
				c-1.36,0.229-2.13,0.749-2.27,2.266c-0.03,0.244-0.05,0.986-0.05,0.986l-0.02,1.302v18.494l0.02,1.305c0,0,0.02,0.74,0.05,0.983
				c0.14,1.517,0.91,2.036,2.27,2.265c0.42,0.061,1.06,0.141,1.45,0.192c0.51,0.065,0.84,0.41,0.84,0.869v1.535
				c0,0.042-0.01,0.138-0.01,0.138c-0.01,0.15-0.12,0.271-0.28,0.277c0,0-0.09,0.002-0.13,0.002c0,0-17.75,0-17.79,0
				s-0.14-0.002-0.14-0.002c-0.15-0.006-0.27-0.127-0.27-0.277c0,0,0-0.096,0-0.138c0-0.041,0-1.535,0-1.535
				c0-0.459,0.31-0.804,0.83-0.869c0.39-0.051,1.03-0.131,1.45-0.192c1.36-0.229,2.13-0.748,2.27-2.265
				c0.03-0.243,0.05-0.983,0.05-0.983l0.02-1.305v-6.394h-13.88v6.394l0.02,1.305c0,0,0.03,0.74,0.05,0.983
				c0.15,1.517,0.91,2.036,2.27,2.265c0.43,0.061,1.07,0.141,1.46,0.192c0.51,0.065,0.83,0.41,0.83,0.869v1.535
				c0,0.042,0,0.138,0,0.138c-0.01,0.15-0.13,0.271-0.28,0.277c0,0-0.09,0.002-0.13,0.002c0,0-17.75,0-17.8,0
				c-0.04,0-0.13-0.002-0.13-0.002c-0.15-0.006-0.27-0.127-0.28-0.277c0,0,0-0.096,0-0.138c0-0.041,0-1.535,0-1.535
				c0-0.459,0.32-0.804,0.83-0.869c0.39-0.051,1.04-0.131,1.45-0.192c1.37-0.229,2.13-0.748,2.28-2.265
				c0.02-0.243,0.05-0.983,0.05-0.983l0.01-1.305V813.81l-0.01-1.302c0,0-0.03-0.742-0.05-0.986c-0.15-1.517-0.91-2.037-2.28-2.266
				c-0.41-0.06-1.06-0.14-1.45-0.189c-0.51-0.064-0.83-0.41-0.83-0.871c0,0,0-1.495,0-1.536c0-0.042,0-0.134,0-0.134
				c0.01-0.152,0.13-0.271,0.28-0.279c0,0,0.09-0.002,0.13-0.002c0.05,0,17.79,0,17.79,0c0.05,0,0.14,0.002,0.14,0.002
				c0.15,0.008,0.27,0.127,0.28,0.279c0,0,0,0.092,0,0.134v1.536c0,0.461-0.32,0.807-0.83,0.871c-0.39,0.049-1.03,0.129-1.46,0.189
				c-1.36,0.229-2.12,0.749-2.27,2.266c-0.02,0.244-0.05,0.986-0.05,0.986l-0.02,1.302v7.083h13.88v-7.083l-0.02-1.302
				c0,0-0.02-0.742-0.05-0.986c-0.14-1.517-0.91-2.037-2.27-2.266c-0.42-0.06-1.06-0.14-1.45-0.189
				c-0.52-0.064-0.83-0.41-0.83-0.871C1148.884,808.196,1148.884,806.701,1148.884,806.66"/>
			<path id="path9050" fill="#2056AE" d="M1172.584,806.66c0-0.042,0-0.134,0-0.134c0.01-0.152,0.13-0.271,0.28-0.279
				c0,0,0.1-0.002,0.14-0.002c0.03,0,17.79,0,17.79,0c0.03,0,0.13,0.002,0.13,0.002c0.15,0.008,0.27,0.127,0.28,0.279
				c0,0,0,0.092,0,0.134v1.536c0,0.461-0.32,0.807-0.83,0.871c-0.39,0.049-1.03,0.129-1.45,0.189c-1.37,0.229-2.14,0.749-2.28,2.266
				c-0.02,0.244-0.05,0.986-0.05,0.986l-0.01,1.302v18.494l0.01,1.305c0,0,0.03,0.74,0.05,0.983c0.14,1.517,0.91,2.036,2.28,2.265
				c0.42,0.061,1.06,0.141,1.45,0.192c0.51,0.065,0.83,0.41,0.83,0.869v1.535c0,0.042,0,0.138,0,0.138
				c-0.01,0.15-0.13,0.271-0.28,0.277c0,0-0.1,0.002-0.13,0.002c0,0-17.76,0-17.79,0c-0.04,0-0.14-0.002-0.14-0.002
				c-0.151-0.006-0.27-0.127-0.28-0.277c0,0,0-0.096,0-0.138c0-0.041,0-1.535,0-1.535c0-0.459,0.32-0.804,0.83-0.869
				c0.39-0.051,1.04-0.131,1.46-0.192c1.36-0.229,2.13-0.748,2.27-2.265c0.03-0.243,0.05-0.983,0.05-0.983l0.01-1.305V813.81
				l-0.01-1.302c0,0-0.02-0.742-0.05-0.986c-0.14-1.517-0.91-2.037-2.27-2.266c-0.42-0.06-1.07-0.14-1.46-0.189
				c-0.51-0.064-0.83-0.41-0.83-0.871C1172.584,808.196,1172.584,806.701,1172.584,806.66"/>
		</g>
	</g>
</g>
</svg>
