<?xml version="1.0" encoding="UTF-8" standalone="no"?>
<!-- Created with Inkscape (http://www.inkscape.org/) -->
<svg
   xmlns:svg="http://www.w3.org/2000/svg"
   xmlns="http://www.w3.org/2000/svg"
   xmlns:xlink="http://www.w3.org/1999/xlink"
   version="1.0"
   width="200"
   height="75.324821"
   id="svg6972">
  <defs
     id="defs6974">
    <clipPath
       id="clipPath8105">
      <path
         d="M 0,793.71 L 1233.06,793.71 L 1233.06,0 L 0,0 L 0,793.71 z"
         id="path8107" />
    </clipPath>
    <clipPath
       id="clipPath8099">
      <path
         d="M 646.26,773.86 L 823.41,773.86 L 823.41,737.26 L 646.26,737.26 L 646.26,773.86 z"
         id="path8101" />
    </clipPath>
    <linearGradient
       x1="0"
       y1="0"
       x2="1"
       y2="0"
       id="linearGradient6922"
       gradientUnits="userSpaceOnUse"
       gradientTransform="matrix(126.6545,0,0,-10.912094,238.4579,403.33987)"
       spreadMethod="pad">
      <stop
         id="stop6924"
         style="stop-color:#ffffff;stop-opacity:1"
         offset="0" />
      <stop
         id="stop6926"
         style="stop-color:#e8382e;stop-opacity:1"
         offset="0.44207495" />
      <stop
         id="stop6928"
         style="stop-color:#e60021;stop-opacity:1"
         offset="0.61890495" />
      <stop
         id="stop6930"
         style="stop-color:#e60021;stop-opacity:1"
         offset="1" />
    </linearGradient>
    <linearGradient
       x1="257.48541"
       y1="397.89096"
       x2="364.33813"
       y2="397.89099"
       id="linearGradient6920"
       xlink:href="#linearGradient6922"
       gradientUnits="userSpaceOnUse"
       spreadMethod="pad" />
    <clipPath
       id="clipPath5947">
      <path
         d="M 0,793.02 L 615,793.02 L 615,0 L 0,0 L 0,793.02 z"
         id="path5949" />
    </clipPath>
    <clipPath
       id="clipPath5939">
      <path
         d="M 0,793 L 615,793 L 615,0 L 0,0 L 0,793 z"
         id="path5941" />
    </clipPath>
    <clipPath
       id="clipPath5931">
      <path
         d="M -8.5,801.5 L 1238.74,801.5 L 1238.74,-9.2 L -8.5,-9.2 L -8.5,801.5 z"
         id="path5933" />
    </clipPath>
    <clipPath
       id="clipPath5975">
      <path
         d="M 0,793.02 L 615,793.02 L 615,0 L 0,0 L 0,793.02 z"
         id="path5977" />
    </clipPath>
    <clipPath
       id="clipPath5967">
      <path
         d="M 0,793 L 615,793 L 615,0 L 0,0 L 0,793 z"
         id="path5969" />
    </clipPath>
    <clipPath
       id="clipPath5959">
      <path
         d="M -8.5,801.5 L 1238.74,801.5 L 1238.74,-9.2 L -8.5,-9.2 L -8.5,801.5 z"
         id="path5961" />
    </clipPath>
    <clipPath
       id="clipPath6003">
      <path
         d="M 0,793.02 L 615,793.02 L 615,0 L 0,0 L 0,793.02 z"
         id="path6005" />
    </clipPath>
    <clipPath
       id="clipPath5995">
      <path
         d="M 0,793 L 615,793 L 615,0 L 0,0 L 0,793 z"
         id="path5997" />
    </clipPath>
    <clipPath
       id="clipPath5987">
      <path
         d="M -8.5,801.5 L 1238.74,801.5 L 1238.74,-9.2 L -8.5,-9.2 L -8.5,801.5 z"
         id="path5989" />
    </clipPath>
    <clipPath
       id="clipPath6031">
      <path
         d="M 0,793.02 L 615,793.02 L 615,0 L 0,0 L 0,793.02 z"
         id="path6033" />
    </clipPath>
    <clipPath
       id="clipPath6023">
      <path
         d="M 0,793 L 615,793 L 615,0 L 0,0 L 0,793 z"
         id="path6025" />
    </clipPath>
    <clipPath
       id="clipPath6015">
      <path
         d="M -8.5,801.5 L 1238.74,801.5 L 1238.74,-9.2 L -8.5,-9.2 L -8.5,801.5 z"
         id="path6017" />
    </clipPath>
    <clipPath
       id="clipPath6059">
      <path
         d="M 0,793.02 L 615,793.02 L 615,0 L 0,0 L 0,793.02 z"
         id="path6061" />
    </clipPath>
    <clipPath
       id="clipPath6051">
      <path
         d="M 0,793 L 615,793 L 615,0 L 0,0 L 0,793 z"
         id="path6053" />
    </clipPath>
    <clipPath
       id="clipPath6043">
      <path
         d="M -8.5,801.5 L 1238.74,801.5 L 1238.74,-9.2 L -8.5,-9.2 L -8.5,801.5 z"
         id="path6045" />
    </clipPath>
    <linearGradient
       x1="257.48541"
       y1="397.89096"
       x2="364.33813"
       y2="397.89099"
       id="linearGradient7063"
       xlink:href="#linearGradient6922"
       gradientUnits="userSpaceOnUse"
       spreadMethod="pad" />
    <linearGradient
       x1="257.48541"
       y1="397.89096"
       x2="364.33813"
       y2="397.89099"
       id="linearGradient7065"
       xlink:href="#linearGradient6922"
       gradientUnits="userSpaceOnUse"
       spreadMethod="pad" />
    <linearGradient
       x1="257.48541"
       y1="397.89096"
       x2="364.33813"
       y2="397.89099"
       id="linearGradient7067"
       xlink:href="#linearGradient6922"
       gradientUnits="userSpaceOnUse"
       spreadMethod="pad" />
    <linearGradient
       x1="257.48541"
       y1="397.89096"
       x2="364.33813"
       y2="397.89099"
       id="linearGradient7069"
       xlink:href="#linearGradient6922"
       gradientUnits="userSpaceOnUse"
       spreadMethod="pad" />
    <linearGradient
       x1="257.48541"
       y1="397.89096"
       x2="364.33813"
       y2="397.89099"
       id="linearGradient7120"
       xlink:href="#linearGradient6922"
       gradientUnits="userSpaceOnUse"
       spreadMethod="pad" />
    <linearGradient
       x1="257.48541"
       y1="397.89096"
       x2="364.33813"
       y2="397.89099"
       id="linearGradient7122"
       xlink:href="#linearGradient6922"
       gradientUnits="userSpaceOnUse"
       spreadMethod="pad" />
    <linearGradient
       x1="257.48541"
       y1="397.89096"
       x2="364.33813"
       y2="397.89099"
       id="linearGradient7124"
       xlink:href="#linearGradient6922"
       gradientUnits="userSpaceOnUse"
       spreadMethod="pad" />
    <linearGradient
       x1="257.48541"
       y1="397.89096"
       x2="364.33813"
       y2="397.89099"
       id="linearGradient7126"
       xlink:href="#linearGradient6922"
       gradientUnits="userSpaceOnUse"
       spreadMethod="pad" />
  </defs>
  <g
     transform="translate(-299.24268,-519.79818)"
     id="layer1">
    <g
       transform="matrix(1.25,0,0,-1.25,-549.88407,1515.867)"
       id="g8095">
      <g
         transform="matrix(1.702509,0,0,1.702509,-1192.7341,-634.84417)"
         id="g9951">
        <path
           d="M 1120.544,806.66 C 1120.544,806.618 1120.544,806.526 1120.544,806.526 C 1120.544,806.374 1120.424,806.255 1120.264,806.247 C 1120.264,806.247 1120.174,806.245 1120.134,806.245 C 1120.134,806.245 1102.384,806.245 1102.334,806.245 C 1102.304,806.245 1102.204,806.247 1102.204,806.247 C 1102.054,806.255 1101.934,806.374 1101.934,806.526 C 1101.934,806.526 1101.924,806.618 1101.924,806.66 L 1101.924,808.196 C 1101.924,808.657 1102.244,809.003 1102.754,809.067 C 1103.154,809.116 1103.794,809.196 1104.214,809.256 C 1105.574,809.485 1106.344,810.005 1106.484,811.522 C 1106.504,811.766 1106.534,812.508 1106.534,812.508 L 1106.554,813.81 L 1106.554,832.304 L 1106.534,833.609 C 1106.534,833.609 1106.504,834.349 1106.484,834.592 C 1106.344,836.109 1105.574,836.628 1104.214,836.857 C 1103.794,836.918 1103.154,836.998 1102.754,837.049 C 1102.244,837.114 1101.924,837.459 1101.924,837.918 C 1101.924,837.918 1101.924,839.412 1101.924,839.453 C 1101.924,839.495 1101.934,839.591 1101.934,839.591 C 1101.934,839.741 1102.054,839.862 1102.204,839.868 C 1102.204,839.868 1102.304,839.87 1102.334,839.87 C 1102.384,839.87 1120.134,839.87 1120.134,839.87 C 1120.174,839.87 1120.264,839.868 1120.264,839.868 C 1120.424,839.862 1120.544,839.741 1120.544,839.591 C 1120.544,839.591 1120.544,839.495 1120.544,839.453 L 1120.544,837.918 C 1120.544,837.459 1120.234,837.114 1119.714,837.049 C 1119.324,836.998 1118.684,836.918 1118.264,836.857 C 1116.904,836.628 1116.134,836.109 1115.984,834.592 C 1115.964,834.349 1115.934,833.609 1115.934,833.609 L 1115.924,832.304 L 1115.924,813.81 L 1115.934,812.508 C 1115.934,812.508 1115.964,811.766 1115.984,811.522 C 1116.134,810.005 1116.904,809.485 1118.264,809.256 C 1118.684,809.196 1119.324,809.116 1119.714,809.067 C 1120.234,809.003 1120.544,808.657 1120.544,808.196 L 1120.544,806.66"
           id="path9046"
           style="fill:#2056ae;fill-opacity:1;fill-rule:nonzero;stroke:none" />
        <path
           d="M 1148.884,806.66 C 1148.884,806.618 1148.884,806.526 1148.884,806.526 C 1148.884,806.374 1149.004,806.255 1149.154,806.247 C 1149.154,806.247 1149.254,806.245 1149.294,806.245 C 1149.334,806.245 1167.084,806.245 1167.084,806.245 C 1167.124,806.245 1167.214,806.247 1167.214,806.247 C 1167.374,806.255 1167.484,806.374 1167.494,806.526 C 1167.494,806.526 1167.504,806.618 1167.504,806.66 L 1167.504,808.196 C 1167.504,808.657 1167.174,809.003 1166.664,809.067 C 1166.274,809.116 1165.634,809.196 1165.214,809.256 C 1163.854,809.485 1163.084,810.005 1162.944,811.522 C 1162.914,811.766 1162.894,812.508 1162.894,812.508 L 1162.874,813.81 L 1162.874,832.304 L 1162.894,833.609 C 1162.894,833.609 1162.914,834.349 1162.944,834.592 C 1163.084,836.109 1163.854,836.628 1165.214,836.857 C 1165.634,836.918 1166.274,836.998 1166.664,837.049 C 1167.174,837.114 1167.504,837.459 1167.504,837.918 L 1167.504,839.453 C 1167.504,839.495 1167.494,839.591 1167.494,839.591 C 1167.484,839.741 1167.374,839.862 1167.214,839.868 C 1167.214,839.868 1167.124,839.87 1167.084,839.87 C 1167.084,839.87 1149.334,839.87 1149.294,839.87 C 1149.254,839.87 1149.154,839.868 1149.154,839.868 C 1149.004,839.862 1148.884,839.741 1148.884,839.591 C 1148.884,839.591 1148.884,839.495 1148.884,839.453 C 1148.884,839.412 1148.884,837.918 1148.884,837.918 C 1148.884,837.459 1149.194,837.114 1149.714,837.049 C 1150.104,836.998 1150.744,836.918 1151.164,836.857 C 1152.524,836.628 1153.294,836.109 1153.434,834.592 C 1153.464,834.349 1153.484,833.609 1153.484,833.609 L 1153.504,832.304 L 1153.504,825.91 L 1139.624,825.91 L 1139.624,832.304 L 1139.644,833.609 C 1139.644,833.609 1139.674,834.349 1139.694,834.592 C 1139.844,836.109 1140.604,836.628 1141.964,836.857 C 1142.394,836.918 1143.034,836.998 1143.424,837.049 C 1143.934,837.114 1144.254,837.459 1144.254,837.918 L 1144.254,839.453 C 1144.254,839.495 1144.254,839.591 1144.254,839.591 C 1144.244,839.741 1144.124,839.862 1143.974,839.868 C 1143.974,839.868 1143.884,839.87 1143.844,839.87 C 1143.844,839.87 1126.094,839.87 1126.044,839.87 C 1126.004,839.87 1125.914,839.868 1125.914,839.868 C 1125.764,839.862 1125.644,839.741 1125.634,839.591 C 1125.634,839.591 1125.634,839.495 1125.634,839.453 C 1125.634,839.412 1125.634,837.918 1125.634,837.918 C 1125.634,837.459 1125.954,837.114 1126.464,837.049 C 1126.854,836.998 1127.504,836.918 1127.914,836.857 C 1129.284,836.628 1130.044,836.109 1130.194,834.592 C 1130.214,834.349 1130.244,833.609 1130.244,833.609 L 1130.254,832.304 L 1130.254,813.81 L 1130.244,812.508 C 1130.244,812.508 1130.214,811.766 1130.194,811.522 C 1130.044,810.005 1129.284,809.485 1127.914,809.256 C 1127.504,809.196 1126.854,809.116 1126.464,809.067 C 1125.954,809.003 1125.634,808.657 1125.634,808.196 C 1125.634,808.196 1125.634,806.701 1125.634,806.66 C 1125.634,806.618 1125.634,806.526 1125.634,806.526 C 1125.644,806.374 1125.764,806.255 1125.914,806.247 C 1125.914,806.247 1126.004,806.245 1126.044,806.245 C 1126.094,806.245 1143.834,806.245 1143.834,806.245 C 1143.884,806.245 1143.974,806.247 1143.974,806.247 C 1144.124,806.255 1144.244,806.374 1144.254,806.526 C 1144.254,806.526 1144.254,806.618 1144.254,806.66 L 1144.254,808.196 C 1144.254,808.657 1143.934,809.003 1143.424,809.067 C 1143.034,809.116 1142.394,809.196 1141.964,809.256 C 1140.604,809.485 1139.844,810.005 1139.694,811.522 C 1139.674,811.766 1139.644,812.508 1139.644,812.508 L 1139.624,813.81 L 1139.624,820.893 L 1153.504,820.893 L 1153.504,813.81 L 1153.484,812.508 C 1153.484,812.508 1153.464,811.766 1153.434,811.522 C 1153.294,810.005 1152.524,809.485 1151.164,809.256 C 1150.744,809.196 1150.104,809.116 1149.714,809.067 C 1149.194,809.003 1148.884,808.657 1148.884,808.196 C 1148.884,808.196 1148.884,806.701 1148.884,806.66"
           id="path9048"
           style="fill:#2056ae;fill-opacity:1;fill-rule:nonzero;stroke:none" />
        <path
           d="M 1172.584,806.66 C 1172.584,806.618 1172.584,806.526 1172.584,806.526 C 1172.594,806.374 1172.714,806.255 1172.864,806.247 C 1172.864,806.247 1172.964,806.245 1173.004,806.245 C 1173.034,806.245 1190.794,806.245 1190.794,806.245 C 1190.824,806.245 1190.924,806.247 1190.924,806.247 C 1191.074,806.255 1191.194,806.374 1191.204,806.526 C 1191.204,806.526 1191.204,806.618 1191.204,806.66 L 1191.204,808.196 C 1191.204,808.657 1190.884,809.003 1190.374,809.067 C 1189.984,809.116 1189.344,809.196 1188.924,809.256 C 1187.554,809.485 1186.784,810.005 1186.644,811.522 C 1186.624,811.766 1186.594,812.508 1186.594,812.508 L 1186.584,813.81 L 1186.584,832.304 L 1186.594,833.609 C 1186.594,833.609 1186.624,834.349 1186.644,834.592 C 1186.784,836.109 1187.554,836.628 1188.924,836.857 C 1189.344,836.918 1189.984,836.998 1190.374,837.049 C 1190.884,837.114 1191.204,837.459 1191.204,837.918 L 1191.204,839.453 C 1191.204,839.495 1191.204,839.591 1191.204,839.591 C 1191.194,839.741 1191.074,839.862 1190.924,839.868 C 1190.924,839.868 1190.824,839.87 1190.794,839.87 C 1190.794,839.87 1173.034,839.87 1173.004,839.87 C 1172.964,839.87 1172.864,839.868 1172.864,839.868 C 1172.714,839.862 1172.594,839.741 1172.584,839.591 C 1172.584,839.591 1172.584,839.495 1172.584,839.453 C 1172.584,839.412 1172.584,837.918 1172.584,837.918 C 1172.584,837.459 1172.904,837.114 1173.414,837.049 C 1173.804,836.998 1174.454,836.918 1174.874,836.857 C 1176.234,836.628 1177.004,836.109 1177.144,834.592 C 1177.174,834.349 1177.194,833.609 1177.194,833.609 L 1177.204,832.304 L 1177.204,813.81 L 1177.194,812.508 C 1177.194,812.508 1177.174,811.766 1177.144,811.522 C 1177.004,810.005 1176.234,809.485 1174.874,809.256 C 1174.454,809.196 1173.804,809.116 1173.414,809.067 C 1172.904,809.003 1172.584,808.657 1172.584,808.196 C 1172.584,808.196 1172.584,806.701 1172.584,806.66"
           id="path9050"
           style="fill:#2056ae;fill-opacity:1;fill-rule:nonzero;stroke:none" />
      </g>
    </g>
  </g>
</svg>
