<?xml version="1.0" encoding="utf-8"?>
<!-- Generator: Adobe Illustrator 25.4.1, SVG Export Plug-In . SVG Version: 6.00 Build 0)  -->
<svg version="1.1" id="Layer_1" xmlns="http://www.w3.org/2000/svg" xmlns:xlink="http://www.w3.org/1999/xlink" x="0px" y="0px"
	 viewBox="0 0 1016 1016" style="enable-background:new 0 0 1016 1016;" xml:space="preserve">
<style type="text/css">
	.st0{fill:#EC1840;}
	.st1{fill:#0066B3;}
</style>
<g transform="translate(-7.07 -358.2)">
	<g transform="translate(3.539 3.545)">
		<path class="st0" d="M305.2,656.8c0,0-23.6,3.9-48.9,10.4c-19.1,4.9-32.3,9-37.3,10.6v-0.2c-7.3,2.2-14.3,4.6-21.2,7
			c7,6.9,11.5,16.5,11.9,27c5.6-2.5,11.3-4.9,17.2-7.2v-0.1c6.5-2.4,24.2-8.8,39.4-13.9c19-6.4,44.7-14.3,44.7-14.3
			c74.9-20.7,157.9-32.7,235.2-32.1C456.9,638.8,375.8,644,305.2,656.8 M1014.5,938.7c-80.2,72.8-262.9,115.3-471.6,115.3
			c-283.5,0-466.7-83.2-479.5-193.2c-4.8-41.3,27.8-81.3,82-115.5c-9.6-7.2-15.8-18.5-16-31.3C51.2,754.9,7,808.8,7,863.6
			c0,121.2,216.8,224,538.9,219.5c219.1-3,385.6-65.5,469.8-142l-1.3-2.5"/>
		<path class="st1" d="M140,713.1c0-16.3,13.2-29.6,29.6-29.6s29.6,13.3,29.6,29.6c0,16.3-13.3,29.5-29.6,29.5S140,729.5,140,713.1"
			/>
		<path class="st1" d="M156.5,935.6V766l27.9-3.7v173.3L156.5,935.6"/>
		<path class="st1" d="M278.1,935.6v-97.1c0-11.1-1-15.6-3.2-18.7c-2-2.8-5.4-3.7-9.1-3.7c-5.4,0-13.5,4.5-20.1,12.7v106.7h-27.7
			V829.8c0-17.3-2.2-27-3.7-34.9l26.1-6.8c0.7,2.6,3.2,9.6,3.4,17c7.1-8.8,20.1-16.2,32.9-16.2c9.9,0,17.7,4,22.6,10.2
			c5.7,7.1,6.6,16.7,6.6,26.4v110.1L278.1,935.6"/>
		<path class="st1" d="M396.5,756.2c-3.2-2.6-8.4-4.2-13.3-4.2c-6.9,0-11.1,6.5-11.1,17.6v22.1h26l-5.2,24.4h-20.9v119.5h-28.5
			V816.1h-9.6v-24.4h9.6c0,0-0.5-9.9-0.5-19c0-21.6,7.1-32.9,13.7-38.6c6.7-5.4,14.2-7.1,21.4-7.1c10.3,0,18.7,2.3,26,7.7
			L396.5,756.2"/>
		<path class="st1" d="M419.6,935.6v-143l28.2-3.7v146.7L419.6,935.6L419.6,935.6z M433.1,771.6c-10.1,0-18.2-8.2-18.2-18.4
			c0-10.2,8.4-18.4,18.6-18.4c10.1,0,18.2,8.2,18.2,18.4C451.8,763.5,443.5,771.6,433.1,771.6"/>
		<path class="st1" d="M543.6,935.6v-97.1c0-11.1-0.9-15.6-3.2-18.7c-1.9-2.8-5.4-3.7-9.1-3.7c-5.4,0-13.5,4.5-20.1,12.7v106.7
			h-27.8V829.8c0-17.3-2.2-27-3.7-34.9l26-6.8c0.7,2.6,3.2,9.6,3.4,17c7.1-8.8,20.1-16.2,32.9-16.2c9.8,0,17.7,4,22.6,10.2
			c5.6,7.1,6.6,16.7,6.6,26.4v110.1L543.6,935.6"/>
		<path class="st1" d="M660,821.8c-2.7-6.5-7.2-10.5-14.2-10.5c-12.5,0-18,11.6-18.4,37.2h35.9C663.2,837.2,662.2,827.5,660,821.8
			L660,821.8z M627.3,871.5v2.9c0,9.3,0.7,17.9,4.2,25.3c4.2,8.8,11.3,13.6,19.9,13.6c10.1,0,18.7-5.1,27.3-14.2l11,20.7
			c-12.3,13.4-25.5,19.3-40.8,19.3c-32.7,0-51.4-28.1-51.4-75.8c0-24.7,4.2-42.9,13.3-56.5c8.6-12.7,20.4-19,34.6-19
			c13.5,0,24.3,5.4,32,15.3c10.1,13,14,30.7,14,62.1v6.2L627.3,871.5"/>
		<path class="st1" d="M758.7,813.3c-18.7,0-18.7,34-18.7,48.8c0,15.6-0.5,51.6,19.4,51.6c18.4,0,18.4-36,18.4-51.1
			C777.9,847.1,778.6,813.4,758.7,813.3L758.7,813.3z M758.7,939.3c-38.3,0-48.4-40.8-48.7-76c-0.3-35.5,12.5-75.5,48.9-75.5
			c28.7,0,49.3,25.8,49.3,74.9C808.3,899.3,796.3,939.3,758.7,939.3"/>
		<path class="st1" d="M891.9,935.6v-97.1c0-11.1-1-15.6-3.2-18.7c-1.9-2.8-5.4-3.7-9.1-3.7c-5.4,0-13.5,4.5-20.2,12.7v106.7h-27.7
			V829.8c0-17.3-2.2-27-3.7-34.9l26-6.8c0.7,2.6,3.2,9.6,3.4,17c7.1-8.8,20.1-16.2,32.9-16.2c9.8,0,17.7,4,22.6,10.2
			c5.6,7.1,6.6,16.7,6.6,26.4v110.1L891.9,935.6"/>
	</g>
</g>
</svg>
