<?xml version="1.0" standalone="no"?>
<!DOCTYPE svg PUBLIC "-//W3C//DTD SVG 20010904//EN"
 "http://www.w3.org/TR/2001/REC-SVG-20010904/DTD/svg10.dtd">
<svg version="1.0" xmlns="http://www.w3.org/2000/svg"
 width="512.000000pt" height="512.000000pt" viewBox="0 0 512.000000 512.000000"
 preserveAspectRatio="xMidYMid meet">

<g transform="translate(0.000000,512.000000) scale(0.100000,-0.100000)"
fill="#000000" stroke="none">
<path d="M2370 5010 c-284 -27 -529 -90 -787 -200 -555 -238 -1026 -705 -1274
-1263 -144 -322 -211 -637 -212 -997 -2 -340 49 -616 170 -920 444 -1120 1625
-1760 2804 -1520 783 160 1461 713 1777 1450 126 294 188 573 199 900 20 588
-166 1149 -537 1622 -81 103 -270 294 -374 378 -197 159 -478 319 -707 404
-139 51 -348 104 -501 126 -156 23 -423 33 -558 20z m544 -105 c436 -68 830
-243 1171 -518 113 -91 307 -294 399 -417 315 -422 476 -907 476 -1430 0 -181
-10 -290 -40 -451 -166 -880 -844 -1616 -1707 -1854 -241 -66 -347 -80 -643
-80 -298 0 -413 15 -645 81 -394 114 -721 304 -1018 594 -421 409 -666 925
-718 1510 -71 807 292 1614 950 2108 368 277 774 431 1251 476 90 8 428 -4
524 -19z"/>
<path d="M2390 4718 c-60 -31 -85 -76 -85 -153 0 -108 54 -167 158 -173 106
-6 178 45 195 138 23 127 -44 210 -168 210 -38 0 -70 -7 -100 -22z m158 -30
c29 -32 42 -71 42 -129 0 -59 -21 -113 -48 -128 -36 -19 -96 -13 -119 12 -35
38 -43 63 -43 136 0 60 3 74 26 100 22 27 33 31 73 31 36 0 52 -5 69 -22z"/>
<path d="M2740 4723 c0 -6 10 -13 21 -16 18 -5 21 -11 16 -39 -3 -18 -12 -80
-18 -136 -8 -63 -18 -110 -27 -118 -8 -8 -13 -16 -11 -18 6 -5 230 -28 233
-24 2 1 6 20 10 41 8 42 -8 52 -18 11 -7 -26 -8 -26 -64 -19 -31 4 -59 9 -61
11 -7 7 19 233 30 261 4 12 15 23 24 23 8 0 15 5 15 10 0 6 -13 10 -29 10 -15
0 -49 3 -75 6 -29 4 -46 3 -46 -3z"/>
<path d="M2118 4697 c-40 -11 -51 -27 -19 -27 25 0 28 -6 52 -93 11 -39 22
-80 25 -89 3 -10 1 -18 -4 -18 -6 0 -63 38 -127 85 -64 47 -122 85 -128 85
-25 0 -87 -21 -87 -30 0 -5 10 -10 23 -12 19 -3 26 -18 54 -113 37 -129 39
-153 16 -171 -17 -13 -17 -13 1 -14 28 0 96 22 96 32 0 4 -9 8 -19 8 -11 0
-23 5 -26 10 -8 13 -55 181 -55 197 0 7 60 -30 133 -82 84 -60 141 -95 158
-95 l26 0 -34 118 c-44 154 -51 202 -29 202 9 0 16 5 16 10 0 12 -22 11 -72
-3z"/>
<path d="M3127 4618 c-71 -42 -109 -166 -72 -238 8 -15 27 -38 41 -49 39 -31
125 -54 170 -45 55 10 110 65 130 129 30 94 1 159 -90 201 -65 30 -128 31
-179 2z m175 -37 c30 -27 33 -34 32 -88 0 -67 -28 -129 -71 -163 -38 -30 -88
-22 -127 21 -26 29 -28 37 -23 89 13 144 107 214 189 141z"/>
<path d="M1688 4559 c-28 -14 -38 -26 -38 -44 0 -13 -12 -61 -26 -107 l-26
-83 -30 60 c-25 49 -28 62 -18 78 19 31 5 30 -59 -5 -59 -32 -82 -56 -41 -43
17 5 28 -11 80 -114 62 -125 69 -146 48 -154 -7 -2 -9 -8 -5 -13 10 -10 140
53 132 65 -3 5 -14 7 -24 4 -16 -4 -26 7 -50 55 -36 71 -37 70 94 15 l80 -33
42 22 c24 13 43 26 43 29 0 4 -17 9 -37 12 -21 3 -77 22 -125 42 l-87 37 25
66 c13 37 34 80 45 95 11 16 19 30 17 32 -1 2 -20 -6 -40 -16z"/>
<path d="M3531 4433 c-93 -46 -120 -188 -49 -269 36 -41 73 -62 143 -80 65
-18 61 -19 75 16 7 17 22 37 33 45 12 8 19 16 16 18 -2 2 -30 18 -61 36 -59
33 -72 33 -41 -1 15 -17 15 -21 0 -53 -15 -32 -18 -33 -48 -25 -67 19 -109 92
-90 156 32 114 109 159 197 118 50 -24 76 -61 69 -98 l-6 -31 26 30 c13 17 25
36 25 42 0 16 -71 69 -125 94 -50 23 -119 24 -164 2z"/>
<path d="M1233 4287 c-50 -40 -92 -76 -92 -80 -1 -4 11 -6 26 -5 23 3 37 -11
110 -102 51 -65 81 -112 79 -122 -2 -10 -2 -18 2 -18 3 0 47 32 98 71 l93 71
-22 34 c-31 47 -53 42 -27 -6 8 -16 2 -25 -36 -56 l-46 -38 -39 44 c-21 25
-39 50 -39 57 0 6 14 21 30 33 25 18 34 20 46 10 27 -23 26 -2 -1 34 -29 39
-50 48 -41 18 6 -17 -18 -47 -50 -65 -10 -6 -74 72 -74 90 0 4 19 21 41 37 39
27 41 27 60 10 11 -10 19 -12 19 -5 0 14 -30 61 -39 61 -3 -1 -47 -33 -98 -73z"/>
<path d="M3926 4261 c-4 -5 -2 -12 4 -16 20 -12 8 -33 -76 -134 -76 -91 -89
-102 -111 -96 -14 3 -23 2 -21 -4 4 -12 100 -91 110 -91 12 0 10 14 -3 27 -13
13 -15 10 96 141 58 70 73 82 92 77 13 -3 23 -1 23 4 0 15 -108 102 -114 92z"/>
<path d="M2430 4210 c-377 -33 -742 -199 -1017 -463 -529 -508 -667 -1280
-348 -1942 249 -516 750 -868 1330 -935 728 -83 1449 347 1726 1030 185 457
170 931 -46 1375 -198 408 -558 720 -993 859 -202 65 -449 94 -652 76z m726
-399 c95 -43 159 -133 170 -240 8 -68 -2 -80 -43 -54 -18 12 -46 18 -84 18
-64 0 -78 -7 -59 -30 12 -14 15 -14 37 0 27 18 47 9 58 -25 3 -10 19 -20 34
-23 18 -4 32 -15 36 -27 3 -11 13 -20 22 -20 8 0 17 -9 20 -20 3 -10 14 -22
24 -25 10 -4 19 -13 19 -20 0 -8 9 -19 21 -26 52 -27 -27 -158 -116 -193 -5
-2 -2 -10 9 -18 18 -14 18 -16 0 -54 -10 -21 -40 -61 -66 -87 l-48 -48 44 -51
c145 -166 188 -468 93 -658 -17 -36 -33 -68 -35 -72 -2 -3 7 -9 19 -13 33 -11
98 -74 122 -119 17 -32 22 -58 22 -121 0 -69 -4 -88 -30 -140 -21 -42 -43 -69
-73 -90 -42 -29 -48 -30 -150 -30 -87 1 -124 6 -196 28 -48 15 -103 27 -120
27 -18 0 -65 -16 -105 -36 -49 -24 -81 -34 -96 -30 -34 9 -80 51 -95 87 l-13
31 -19 -35 c-9 -19 -32 -46 -50 -58 -47 -34 -93 -30 -157 15 -69 47 -118 48
-233 5 -206 -77 -342 -50 -405 80 -58 117 -25 295 65 356 20 14 47 25 59 25
29 0 29 4 -2 45 -44 57 -67 139 -72 265 -9 188 20 276 141 425 l64 80 -44 38
c-24 21 -56 59 -70 83 -26 44 -26 46 -8 58 60 43 69 54 57 73 -64 93 -68 106
-68 195 0 125 7 130 160 133 103 2 118 0 128 -16 10 -16 14 -16 38 -3 51 26
55 21 54 -68 0 -90 18 -118 29 -46 13 79 29 119 68 163 45 51 95 82 196 119
l72 28 70 -27 c93 -35 183 -95 219 -145 29 -41 34 -54 46 -137 l7 -43 49 0
c35 0 49 4 49 14 0 7 9 25 21 40 l21 27 -81 99 c-45 54 -81 103 -81 108 0 11
64 62 79 62 5 0 19 -13 31 -30 12 -16 25 -30 30 -30 26 0 42 138 21 179 -11
19 -9 21 21 21 18 0 51 -9 74 -19z m-1145 -7 c19 -23 -1 -49 -37 -49 -30 0
-42 20 -30 51 7 19 50 18 67 -2z m97 4 c28 -28 1 -75 -37 -63 -25 8 -34 31
-21 56 12 21 40 25 58 7z m92 -43 c26 -32 -13 -81 -47 -59 -35 22 -23 74 17
74 10 0 23 -7 30 -15z m-276 -17 c8 -13 8 -23 0 -35 -16 -26 -51 -28 -64 -4
-25 47 36 83 64 39z m-59 -74 c19 -20 16 -43 -7 -58 -38 -23 -78 35 -42 61 23
17 29 16 49 -3z m380 -18 c0 -36 -26 -56 -49 -37 -19 16 -21 57 -3 65 30 12
52 1 52 -28z m5 -71 c26 -32 -13 -81 -47 -59 -35 22 -23 74 17 74 10 0 23 -7
30 -15z m-382 -7 c28 -28 1 -75 -37 -63 -25 8 -34 31 -21 56 12 21 40 25 58 7z
m-11 -2009 c42 -10 94 -9 241 1 234 16 370 11 434 -17 l47 -21 40 20 c57 28
201 34 430 18 207 -14 261 -8 327 36 19 13 37 24 40 24 3 0 3 -28 -1 -62 -13
-111 -46 -166 -122 -200 -37 -16 -67 -18 -280 -17 -294 1 -361 -12 -413 -78
l-21 -27 -22 26 c-55 65 -149 83 -398 73 -228 -8 -286 3 -355 69 -43 42 -58
77 -71 171 l-6 48 38 -26 c21 -15 63 -32 92 -38z"/>
<path d="M3120 3733 c0 -47 -18 -97 -49 -133 l-29 -35 -34 33 c-35 33 -48 39
-48 22 0 -17 124 -169 138 -169 18 -1 15 11 -13 49 -18 24 -22 37 -14 46 20
24 80 37 149 32 l68 -5 -9 29 c-14 50 -43 91 -88 125 -53 41 -71 42 -71 6z"/>
<path d="M2510 3589 c-40 -40 -60 -95 -68 -186 -4 -59 -3 -63 16 -63 38 0 72
19 83 46 5 15 8 75 7 133 l-3 105 -35 -35z"/>
<path d="M2610 3528 c0 -116 12 -161 46 -176 28 -14 61 -16 67 -4 9 15 -12
152 -28 184 -19 36 -64 88 -77 88 -4 0 -8 -42 -8 -92z"/>
<path d="M2395 3551 c-59 -36 -77 -69 -90 -158 l-7 -53 40 0 39 0 6 74 c3 45
13 89 26 115 12 22 20 41 19 41 -2 0 -16 -8 -33 -19z"/>
<path d="M2752 3533 c16 -25 24 -60 28 -112 l5 -76 39 -3 39 -3 -6 55 c-7 74
-31 119 -78 150 -21 14 -41 26 -43 26 -3 0 4 -17 16 -37z"/>
<path d="M1946 3473 c-3 -3 -6 -26 -6 -50 0 -32 4 -43 15 -43 11 0 15 12 15
44 0 43 -10 63 -24 49z"/>
<path d="M2004 3467 c-11 -30 0 -82 19 -85 16 -3 18 3 15 44 -3 47 -22 70 -34
41z"/>
<path d="M2077 3474 c-14 -14 -8 -94 7 -94 19 0 29 71 13 88 -7 7 -16 9 -20 6z"/>
<path d="M1875 3434 c-7 -40 7 -66 26 -47 13 13 8 75 -7 80 -7 2 -15 -12 -19
-33z"/>
<path d="M2140 3431 c-5 -11 -10 -28 -10 -39 0 -34 -22 -40 -138 -39 -62 0
-114 -2 -116 -4 -9 -9 25 -84 48 -108 l26 -25 27 22 c59 47 147 102 165 102
15 0 18 8 18 55 0 59 -4 66 -20 36z"/>
<path d="M3132 3401 c-32 -30 -52 -57 -52 -71 0 -26 91 -135 130 -155 21 -11
36 -12 66 -3 36 10 37 11 17 19 -13 5 -23 13 -23 19 0 5 -7 10 -16 10 -9 0
-18 8 -21 19 -2 10 -16 24 -29 30 -13 6 -24 17 -24 25 0 7 -9 16 -20 19 -29 8
-26 55 6 88 48 50 20 50 -34 0z"/>
<path d="M3217 3403 c-36 -28 -48 -53 -24 -53 6 0 28 14 47 30 25 20 32 32 24
40 -7 7 -21 2 -47 -17z"/>
<path d="M3257 3353 c-35 -27 -48 -53 -26 -53 17 0 79 51 79 66 0 20 -12 17
-53 -13z"/>
<path d="M2560 3334 c-11 -12 -10 -18 3 -32 16 -15 18 -15 34 0 13 14 14 20 3
32 -7 9 -16 16 -20 16 -4 0 -13 -7 -20 -16z"/>
<path d="M3290 3300 c-22 -20 -31 -33 -24 -40 12 -12 84 36 84 57 0 21 -22 15
-60 -17z"/>
<path d="M2917 3198 c-2 -51 -8 -103 -12 -115 -6 -19 -2 -23 37 -33 23 -7 78
-28 122 -48 l78 -36 45 24 c41 22 83 62 83 81 0 4 -30 28 -67 52 -38 24 -94
69 -125 99 -54 52 -87 68 -138 68 -16 0 -19 -12 -23 -92z"/>
<path d="M3340 3260 c-27 -22 -32 -31 -23 -41 9 -9 19 -5 42 19 29 29 40 52
24 52 -5 0 -24 -14 -43 -30z"/>
<path d="M2108 3255 c-26 -13 -76 -48 -110 -77 -35 -29 -76 -62 -92 -74 l-29
-21 37 -40 c20 -23 52 -48 72 -58 34 -16 36 -16 93 13 32 16 88 37 123 47 l65
17 -13 46 c-8 25 -14 74 -14 109 l0 63 -42 0 c-25 0 -63 -11 -90 -25z"/>
<path d="M2302 3203 c6 -96 29 -145 103 -216 29 -29 58 -62 64 -74 6 -12 11
-70 11 -130 0 -59 5 -124 10 -145 20 -70 97 -119 267 -168 40 -11 85 -32 102
-45 22 -19 40 -25 76 -25 l48 0 -7 32 c-12 62 -70 99 -179 116 -77 12 -131 41
-152 82 -18 35 -20 176 -4 235 9 31 34 62 110 135 55 52 99 100 99 105 0 6 4
37 10 69 5 33 7 70 3 84 -6 24 -6 24 -119 20 -107 -3 -115 -4 -140 -30 l-27
-26 -22 26 c-22 26 -28 27 -140 30 l-118 4 5 -79z m204 -18 c23 -36 10 -48
-49 -42 -37 3 -56 11 -69 27 -28 35 -22 40 42 40 52 0 62 -3 76 -25z m284 16
c0 -5 -8 -19 -18 -31 -13 -16 -32 -24 -70 -28 -50 -4 -52 -3 -52 20 0 13 5 29
12 36 14 14 128 17 128 3z"/>
<path d="M2205 2991 c-78 -23 -149 -60 -203 -106 -95 -83 -176 -234 -188 -353
-8 -74 10 -200 37 -263 24 -54 41 -50 32 6 -3 18 0 35 6 39 7 5 7 13 -2 26
-15 25 -2 49 36 68 22 10 27 20 27 48 l0 34 69 0 69 0 4 88 c3 48 11 101 19
117 13 28 14 23 17 -87 l3 -117 34 6 35 6 0 -108 0 -107 83 78 c46 44 114 97
151 118 67 39 67 39 48 60 -27 30 -40 78 -48 179 l-7 88 -31 -30 -31 -30 -42
26 c-24 14 -43 28 -43 32 0 3 18 39 39 78 l38 73 -33 25 c-38 29 -40 29 -119
6z m73 -353 c17 -17 15 -55 -4 -62 -30 -12 -54 3 -54 34 0 37 33 53 58 28z"/>
<path d="M2806 2961 l-38 -39 32 -66 c18 -36 36 -66 41 -66 12 0 47 102 55
159 l7 51 -30 0 c-21 0 -40 -11 -67 -39z"/>
<path d="M2940 2924 c-7 -31 -27 -84 -44 -119 -31 -58 -32 -64 -18 -90 l14
-28 29 49 c37 64 69 158 69 206 0 31 -4 38 -19 38 -16 0 -22 -11 -31 -56z"/>
<path d="M3035 2933 c-23 -111 -73 -224 -134 -301 l-40 -50 41 -18 c22 -10 57
-38 79 -62 l38 -44 3 133 3 134 18 -39 c15 -31 19 -65 20 -163 l0 -123 51 0
c28 0 68 -3 89 -6 31 -6 37 -11 37 -31 0 -13 -5 -34 -11 -45 -8 -14 -8 -23 0
-31 26 -26 2 -91 -40 -106 -15 -5 -30 -7 -33 -4 -9 9 -130 9 -149 0 -12 -5
-30 -4 -47 3 -20 8 -34 9 -47 2 -16 -10 -14 -14 23 -50 49 -46 113 -67 163
-52 49 14 116 56 147 92 55 66 77 133 82 251 6 131 -8 208 -54 304 -38 79
-123 172 -192 211 l-41 23 -6 -28z"/>
<path d="M2361 2868 c-16 -28 -28 -55 -25 -60 10 -16 31 -8 61 25 24 25 29 37
23 53 -15 39 -29 35 -59 -18z"/>
<path d="M2717 2888 c-9 -5 -17 -17 -17 -27 0 -29 57 -109 101 -141 41 -29 62
-33 42 -8 -6 7 -33 52 -60 99 -41 73 -52 85 -66 77z"/>
<path d="M2670 2742 c0 -75 11 -112 33 -112 7 0 28 14 47 30 l35 29 -35 33
c-20 18 -45 47 -58 63 l-21 30 -1 -73z"/>
<path d="M2782 2641 c-18 -18 -32 -35 -30 -36 2 -1 12 -5 24 -9 15 -4 31 3 59
27 l39 34 -30 9 c-26 8 -33 6 -62 -25z"/>
<path d="M2454 2455 c-156 -78 -289 -235 -310 -363 -5 -35 -4 -41 16 -47 12
-4 23 -5 24 -3 1 1 15 34 31 72 61 147 130 222 288 314 54 31 74 48 65 53 -23
15 -43 10 -114 -26z"/>
<path d="M2000 2440 c0 -15 7 -20 25 -20 18 0 25 5 25 20 0 15 -7 20 -25 20
-18 0 -25 -5 -25 -20z"/>
<path d="M2561 2409 c-210 -111 -311 -224 -311 -351 0 -25 4 -28 33 -28 19 0
50 12 77 30 78 52 163 35 196 -40 l18 -39 16 27 c54 89 137 108 210 47 45 -38
95 -46 144 -24 l25 12 -39 28 c-47 34 -94 97 -111 147 -10 30 -9 40 6 68 22
41 14 99 -17 115 -11 6 -51 21 -88 34 l-67 23 -92 -49z m49 -164 c26 -32 -13
-81 -47 -59 -35 22 -23 74 17 74 10 0 23 -7 30 -15z"/>
<path d="M2133 2406 c-13 -16 -23 -38 -24 -50 -4 -93 -3 -190 2 -204 5 -13 10
-10 24 18 18 34 32 179 24 240 l-4 25 -22 -29z"/>
<path d="M1934 2365 c-10 -26 6 -35 65 -35 61 0 88 14 70 37 -16 19 -128 18
-135 -2z"/>
<path d="M2890 2330 c0 -20 46 -33 69 -21 12 7 26 9 32 5 15 -9 140 -11 145
-2 3 5 14 8 25 8 10 0 19 5 19 10 0 6 -55 10 -145 10 -92 0 -145 -4 -145 -10z"/>
<path d="M1932 2283 c3 -15 16 -19 67 -21 44 -2 67 1 72 10 14 22 -1 28 -72
28 -62 0 -70 -2 -67 -17z"/>
<path d="M2861 2261 c-13 -24 9 -57 33 -48 23 9 31 34 16 52 -17 20 -37 19
-49 -4z"/>
<path d="M2960 2265 c-15 -18 -7 -43 16 -52 24 -9 46 24 33 48 -12 23 -32 24
-49 4z"/>
<path d="M3049 2259 c-9 -17 -8 -25 4 -37 29 -28 73 12 47 43 -17 21 -37 19
-51 -6z"/>
<path d="M3153 2273 c-18 -7 -16 -50 2 -57 24 -9 45 4 45 29 0 18 -22 40 -33
34 -1 0 -8 -3 -14 -6z"/>
<path d="M1932 2213 c3 -15 16 -19 67 -21 44 -2 67 1 72 10 14 22 -1 28 -72
28 -62 0 -70 -2 -67 -17z"/>
<path d="M1924 2149 c-12 -21 14 -30 77 -27 51 2 64 6 67 21 3 15 -5 17 -67
17 -39 0 -73 -5 -77 -11z"/>
<path d="M3202 2070 c-24 -16 -62 -32 -85 -35 -23 -4 -69 -20 -102 -36 -78
-38 -139 -46 -189 -25 -21 9 -41 14 -45 12 -3 -2 -5 -59 -5 -125 1 -67 -3
-124 -8 -127 -5 -3 -4 -11 3 -20 9 -11 15 -11 40 1 46 24 134 18 243 -16 153
-47 224 -41 287 28 44 47 62 92 62 159 0 75 -29 143 -77 178 -48 38 -75 39
-124 6z"/>
<path d="M1830 2063 c-41 -28 -59 -55 -76 -112 -35 -115 6 -234 91 -266 54
-21 91 -17 225 26 134 44 192 47 253 16 26 -13 49 -22 50 -18 2 3 3 69 2 146
-1 116 -4 139 -16 136 -92 -26 -126 -24 -246 14 -21 7 -23 4 -23 -34 0 -22 -2
-41 -5 -41 -34 0 -125 92 -125 125 0 29 -92 34 -130 8z"/>
<path d="M2010 2056 c0 -8 9 -24 20 -37 l19 -24 1 38 c0 30 -3 37 -20 37 -11
0 -20 -6 -20 -14z"/>
<path d="M2420 2045 c-19 -23 -8 -50 20 -50 16 0 26 6 28 18 4 18 -14 47 -28
47 -4 0 -13 -7 -20 -15z"/>
<path d="M2695 2046 c-22 -16 -11 -56 14 -56 24 0 43 23 35 43 -8 22 -29 28
-49 13z"/>
<path d="M2500 2000 c-5 -66 -4 -293 1 -296 4 -2 13 11 20 29 21 48 18 214 -3
252 -10 17 -18 23 -18 15z"/>
<path d="M2619 1958 c-14 -52 -7 -192 11 -231 16 -34 33 -16 19 20 -5 15 -5
31 0 41 5 9 5 27 -1 43 -6 18 -6 34 1 46 6 12 6 24 0 34 -5 7 -7 31 -3 52 8
52 -12 48 -27 -5z"/>
<path d="M2414 1956 c-10 -26 4 -48 28 -44 17 2 23 10 23 28 0 18 -6 26 -23
28 -13 2 -25 -3 -28 -12z"/>
<path d="M2692 1958 c-18 -18 -15 -36 7 -48 15 -7 23 -6 35 6 9 8 16 19 16 23
0 11 -23 31 -35 31 -6 0 -16 -5 -23 -12z"/>
<path d="M2694 1876 c-20 -15 -14 -43 12 -53 20 -8 47 19 39 39 -9 23 -30 29
-51 14z"/>
<path d="M2414 1866 c-10 -26 4 -48 28 -44 17 2 23 10 23 28 0 18 -6 26 -23
28 -13 2 -25 -3 -28 -12z"/>
<path d="M2423 1793 c-19 -7 -16 -50 3 -57 20 -8 44 11 44 34 0 14 -23 34 -33
29 -1 0 -8 -3 -14 -6z"/>
<path d="M2692 1788 c-18 -18 -15 -36 7 -48 15 -7 23 -6 35 6 9 8 16 19 16 23
0 11 -23 31 -35 31 -6 0 -16 -5 -23 -12z"/>
<path d="M2413 1694 c-3 -8 2 -23 11 -32 14 -15 18 -15 31 -1 9 9 13 23 9 32
-8 21 -43 22 -51 1z"/>
<path d="M2687 1697 c-8 -21 8 -39 29 -35 27 5 25 42 -2 46 -12 2 -24 -3 -27
-11z"/>
<path d="M1791 1507 c11 -37 25 -54 63 -75 26 -13 81 -17 311 -23 293 -7 322
-11 383 -56 l32 -24 31 25 c50 42 90 48 379 55 155 4 286 12 300 18 34 15 67
52 75 85 l7 28 -36 -15 c-29 -12 -87 -15 -328 -13 -313 3 -353 -1 -404 -46
l-27 -22 -24 22 c-47 43 -97 49 -405 46 -221 -2 -296 1 -327 11 l-39 14 9 -30z"/>
<path d="M972 4051 l-102 -107 30 -29 c16 -16 33 -25 37 -22 4 4 1 13 -5 19
-19 19 -14 42 12 67 l25 23 28 -20 c15 -11 61 -54 102 -95 59 -60 72 -79 66
-96 -3 -11 -2 -21 3 -21 7 0 102 98 102 105 0 2 -13 2 -29 1 -23 -1 -47 16
-125 88 l-97 89 27 28 c30 31 53 36 72 17 9 -9 12 -9 12 3 0 14 -41 61 -51 58
-2 -1 -50 -50 -107 -108z"/>
<path d="M4196 3986 c5 -20 -9 -34 -103 -110 -59 -47 -114 -84 -120 -81 -28
10 -10 -23 43 -82 65 -73 112 -94 160 -72 43 21 62 61 47 99 -11 28 -10 31 5
25 64 -27 112 -6 112 49 0 27 -14 51 -66 115 -68 83 -89 98 -78 57z m78 -98
c21 -30 20 -44 -4 -68 -26 -26 -62 -25 -86 1 -19 21 -19 21 20 55 46 40 50 41
70 12z m-94 -131 c0 -29 -45 -67 -80 -67 -32 0 -78 36 -63 50 4 5 30 27 57 49
l50 40 18 -27 c10 -15 18 -35 18 -45z"/>
<path d="M727 3738 c-8 -13 -33 -57 -57 -98 -23 -41 -51 -89 -62 -107 l-19
-32 30 -15 c43 -23 58 -20 33 7 l-21 23 22 36 22 36 115 -67 c98 -56 116 -71
120 -95 6 -33 10 -30 53 46 32 56 35 79 7 53 -18 -17 -23 -15 -137 50 -65 37
-120 69 -122 71 -2 2 7 19 19 39 20 32 26 35 51 30 37 -8 38 7 2 26 -16 7 -31
15 -35 17 -4 2 -13 -7 -21 -20z"/>
<path d="M4305 3554 c-79 -9 -122 -11 -129 -4 -6 6 -16 10 -23 10 -9 0 -6 -15
12 -50 24 -48 49 -62 38 -21 -3 13 2 20 19 24 48 13 58 8 85 -48 l27 -55 -26
-27 c-23 -22 -29 -24 -43 -13 -30 25 -26 2 12 -66 32 -58 38 -65 41 -44 2 14
50 83 107 155 58 71 104 134 102 140 -5 15 -87 15 -222 -1z m125 -21 c0 -5
-18 -28 -39 -53 l-39 -44 -21 42 c-11 22 -21 43 -21 46 0 3 19 7 43 9 23 2 50
4 60 5 9 1 17 -1 17 -5z"/>
<path d="M535 3374 c-19 -49 -15 -65 10 -41 14 14 23 13 98 -12 45 -16 94 -34
108 -41 53 -25 59 -95 12 -146 -29 -31 -51 -29 -180 18 -73 26 -83 33 -83 54
0 43 -16 25 -38 -44 -25 -78 -26 -82 -12 -82 6 0 10 7 10 15 0 22 21 19 141
-20 60 -19 115 -35 122 -35 47 0 106 93 107 167 0 64 -27 88 -150 131 -88 31
-106 41 -108 60 -5 34 -18 26 -37 -24z"/>
<path d="M4625 3287 c9 -22 -12 -33 -130 -66 -128 -36 -141 -37 -154 -14 -16
30 -24 7 -11 -34 21 -68 22 -70 29 -43 6 22 20 29 114 56 59 18 107 30 107 27
0 -2 -40 -63 -90 -135 -60 -88 -90 -140 -90 -159 l0 -28 38 13 c21 8 89 28
152 46 108 31 114 31 127 14 20 -27 25 -11 11 40 -12 47 -28 62 -28 26 0 -19
-28 -30 -193 -77 -21 -6 5 39 105 180 55 78 55 78 43 120 -6 22 -17 43 -23 45
-7 2 -10 -2 -7 -11z"/>
<path d="M401 2893 c-7 -59 -15 -127 -18 -150 l-6 -43 37 0 c39 0 49 14 15 23
-19 5 -21 10 -15 49 4 23 8 43 9 44 1 1 58 -7 127 -17 69 -10 128 -19 133 -19
4 0 12 -12 18 -26 5 -15 11 -25 13 -23 11 11 24 145 16 153 -7 7 -10 4 -10 -6
0 -9 -5 -20 -11 -24 -6 -3 -71 2 -145 12 l-135 18 7 40 c8 53 12 58 36 50 15
-4 19 -2 16 7 -3 8 -20 15 -39 17 l-35 3 -13 -108z"/>
<path d="M4731 2838 c-6 -16 -18 -28 -27 -28 -9 0 -69 -5 -135 -11 -97 -9
-122 -9 -135 2 -14 12 -15 5 -9 -72 12 -158 49 -220 143 -244 67 -18 130 -4
168 36 l29 31 -2 131 c-1 73 -6 143 -11 157 l-10 25 -11 -27z m9 -161 c0 -57
-3 -66 -30 -92 -26 -24 -40 -30 -94 -33 -100 -7 -147 27 -160 116 -5 31 -3 44
7 48 18 6 160 21 225 23 l52 1 0 -63z"/>
<path d="M370 2565 c0 -43 4 -75 10 -75 6 0 10 9 10 20 0 18 7 20 84 20 45 0
111 -3 145 -6 50 -6 61 -10 61 -25 0 -11 4 -19 9 -19 9 0 21 71 21 121 0 34
-15 39 -23 7 -6 -20 -9 -21 -98 -15 -51 4 -114 7 -141 7 -41 0 -51 3 -55 20
-12 44 -23 16 -23 -55z"/>
<path d="M373 2388 c3 -18 11 -78 17 -133 17 -149 14 -142 55 -137 39 5 47 19
13 24 -18 2 -24 12 -29 43 -4 22 -5 42 -3 44 6 7 193 30 242 31 31 0 42 -4 42
-15 0 -8 5 -15 11 -15 8 0 10 15 5 46 -3 26 -6 60 -6 75 0 35 -12 37 -25 7
-10 -24 -1 -22 -237 -53 l-48 -6 0 47 c0 37 4 47 20 51 35 9 22 23 -21 23 -41
0 -41 0 -36 -32z"/>
<path d="M4445 2346 c-40 -40 -57 -138 -33 -191 16 -36 49 -51 154 -70 108
-19 134 -29 134 -52 0 -33 18 2 24 50 5 31 4 47 -3 47 -6 0 -11 -6 -11 -14 0
-24 -12 -25 -100 -10 -111 19 -148 32 -160 54 -17 32 -11 85 12 115 20 26 24
27 82 21 34 -4 88 -12 121 -19 50 -10 61 -16 63 -34 6 -42 20 -24 31 40 14 78
14 87 1 87 -5 0 -10 -7 -10 -15 0 -19 -35 -19 -137 0 -109 21 -139 19 -168 -9z"/>
<path d="M630 2083 l-35 -18 -3 -80 c-2 -43 -7 -84 -13 -91 -18 -22 -48 -22
-74 -2 -22 17 -26 27 -23 61 2 32 9 44 26 53 30 15 14 26 -26 18 -39 -8 -44
-23 -31 -85 20 -93 81 -135 153 -105 44 18 59 52 50 116 -8 63 6 90 50 90 39
0 63 -23 72 -68 7 -36 -16 -82 -41 -82 -8 0 -15 -5 -15 -11 0 -11 63 -5 84 8
13 8 0 106 -18 142 -32 60 -98 83 -156 54z"/>
<path d="M4368 2019 c-32 -72 -34 -104 -3 -62 12 16 21 14 118 -22 58 -22 103
-42 101 -45 -3 -2 -73 -28 -156 -57 -140 -48 -172 -65 -165 -86 1 -5 50 -26
107 -48 165 -62 182 -70 177 -91 -11 -41 12 -24 32 24 22 53 20 77 -4 44 -14
-18 -17 -18 -102 13 -48 17 -94 36 -102 40 -9 6 34 24 136 58 l150 48 17 44
c17 47 14 66 -7 37 -12 -16 -18 -15 -95 13 -159 59 -181 71 -184 99 -4 27 -4
26 -20 -9z"/>
<path d="M725 1748 c-126 -65 -165 -79 -165 -58 0 6 -7 10 -15 10 -12 0 -10
-10 10 -50 26 -51 50 -68 40 -27 -6 20 4 28 85 71 50 26 93 46 96 44 2 -3 -16
-52 -41 -109 -84 -190 -79 -172 -55 -218 22 -45 40 -54 33 -18 -4 20 9 30 122
87 116 60 127 64 139 48 23 -31 25 -7 3 38 -23 49 -34 55 -39 22 -2 -18 -25
-35 -96 -71 -52 -27 -95 -47 -96 -45 -2 2 26 70 61 152 48 110 62 154 56 170
-8 21 -12 19 -138 -46z"/>
<path d="M4210 1595 c-19 -9 -45 -26 -58 -38 -30 -28 -68 -102 -77 -149 -6
-34 -4 -38 29 -60 20 -13 36 -29 36 -35 0 -26 16 -12 49 43 31 53 37 89 7 48
-14 -19 -15 -19 -50 0 -41 22 -42 26 -21 66 24 46 62 70 112 70 80 0 156 -56
169 -125 12 -66 -71 -169 -117 -144 -41 21 -39 1 2 -30 l31 -23 35 33 c61 59
88 116 88 185 0 50 -4 66 -27 96 -48 63 -143 92 -208 63z"/>
<path d="M1025 1467 c6 -21 -7 -33 -103 -100 -109 -76 -136 -89 -145 -64 -2 6
-8 9 -12 5 -4 -4 10 -34 31 -68 39 -60 61 -77 51 -40 -6 24 13 41 137 125 76
52 89 58 106 47 31 -19 25 3 -17 63 -41 58 -57 69 -48 32z"/>
<path d="M1264 1060 c-52 -21 -69 -88 -34 -133 52 -66 149 -31 150 54 0 58
-63 101 -116 79z"/>
<path d="M3814 1060 c-12 -5 -29 -19 -38 -32 -51 -72 33 -165 112 -124 33 17
42 34 42 80 0 55 -65 97 -116 76z"/>
<path d="M3068 714 c-15 -8 -32 -23 -38 -34 -29 -55 7 -224 59 -274 27 -25 35
-28 77 -23 61 7 85 32 92 95 6 68 -29 185 -68 224 -32 32 -78 37 -122 12z m79
-53 c31 -45 65 -163 61 -209 -3 -32 -7 -37 -30 -40 -22 -3 -32 3 -48 30 -47
76 -78 239 -47 251 24 10 42 2 64 -32z"/>
<path d="M1978 713 c-35 -3 -48 -8 -48 -20 0 -13 8 -14 40 -9 49 8 50 6 14
-124 -34 -126 -37 -130 -81 -130 -53 0 -31 -13 63 -38 94 -25 94 -25 94 -12 0
6 -6 10 -14 10 -34 0 -34 25 3 155 21 72 41 140 45 153 8 24 6 24 -116 15z"/>
<path d="M2343 655 c-44 -19 -66 -58 -67 -115 -1 -61 22 -90 74 -90 20 0 41 5
48 12 19 19 25 2 12 -36 -16 -48 -62 -86 -106 -86 -23 0 -33 -4 -28 -11 4 -7
25 -9 55 -7 98 10 159 91 159 212 0 61 -3 70 -29 97 -16 16 -36 29 -44 29 -9
0 -21 2 -29 5 -7 2 -27 -2 -45 -10z m71 -31 c18 -18 21 -85 6 -115 -12 -21
-50 -25 -68 -7 -18 18 -15 103 4 122 8 9 22 16 29 16 7 0 21 -7 29 -16z"/>
<path d="M2693 645 c-31 -13 -33 -17 -33 -65 0 -32 4 -49 10 -45 6 3 10 14 10
24 0 26 20 41 55 41 40 0 55 -16 55 -59 0 -40 -20 -78 -88 -164 -25 -31 -43
-60 -40 -63 3 -3 56 -2 117 2 l111 7 0 32 0 31 -71 -8 c-40 -5 -74 -6 -77 -4
-2 3 16 29 42 59 81 95 94 164 39 207 -30 23 -83 26 -130 5z"/>
</g>
</svg>
