<?xml version="1.0" encoding="utf-8"?>
<!-- Generator: Adobe Illustrator 16.0.0, SVG Export Plug-In . SVG Version: 6.00 Build 0)  -->
<!DOCTYPE svg PUBLIC "-//W3C//DTD SVG 1.1//EN" "http://www.w3.org/Graphics/SVG/1.1/DTD/svg11.dtd">
<svg version="1.1" xmlns="http://www.w3.org/2000/svg" xmlns:xlink="http://www.w3.org/1999/xlink" x="0px" y="0px"
	 width="494.52px" height="494.52px" viewBox="0 -122.666 494.52 494.52" enable-background="new 0 -122.666 494.52 494.52"
	 xml:space="preserve">
<g id="Layer_2">
	<rect x="-37.293" y="-147.075" fill="#FFFFFF" width="569.106" height="555.14"/>
</g>
<g id="svg2" xmlns:dc="http://purl.org/dc/elements/1.1/" xmlns:cc="http://creativecommons.org/ns#" xmlns:rdf="http://www.w3.org/1999/02/22-rdf-syntax-ns#" xmlns:svg="http://www.w3.org/2000/svg">
	<g>
		<g id="g10_7_" transform="matrix(1.3333333,0,0,-1.3333333,0,249.18667)">
			<g id="g12_7_" transform="scale(0.1)">
				<path id="path14_7_" fill="#FFFFFF" d="M174.631,738.3l203.705-0.74l188.302-505.58h3.105l190.137,504.188l204.734-0.744
					l-2.736-710.647l-129.258,0.483l2.201,571.117l-2.065,0.015L608.247,26.071l-90.996,0.322L300.249,598.32h-2.069l-2.201-571.106
					l-124.08,0.439L174.631,738.3"/>
				<path id="path16_7_" fill="#FFFFFF" d="M1622.619,566.408c-19.208,25.503-44.279,44.15-75.26,55.986
					c-30.978,11.821-61.3,17.783-90.93,17.893c-37.91,0.139-72.4-6.423-103.469-19.709c-31.069-13.271-57.858-31.582-80.35-54.902
					c-22.5-23.357-39.84-50.713-52.009-82.12c-12.191-31.402-18.351-65.508-18.49-102.305c-0.15-38.811,5.559-74.304,17.175-106.465
					c11.58-32.146,28.195-59.824,49.827-82.983c21.628-23.174,47.567-41.177,77.86-53.976
					c30.278-12.832,64.369-19.314,102.279-19.446c39.294-0.161,74.121,7.251,104.52,22.2c30.388,14.956,54.95,34.761,73.66,59.458
					l104.161-71.638c-32.571-39.382-72.323-69.851-119.282-91.414c-46.956-21.566-101.807-32.263-164.517-32.029
					c-57.22,0.205-109.753,9.613-157.573,28.169c-47.849,18.567-88.949,44.502-123.27,77.739
					c-34.358,33.252-61.088,72.817-80.197,118.74c-19.131,45.901-28.579,96.621-28.37,152.153
					c0.22,56.865,10.58,108.193,31.088,153.955c20.511,45.762,48.585,84.653,84.21,116.638
					c35.621,31.985,77.589,56.58,125.918,73.813c48.325,17.227,100.741,25.737,157.262,25.54c23.43-0.088,47.889-2.358,73.389-6.79
					c25.496-4.453,49.929-11.228,73.352-20.354c23.383-9.119,45.41-20.405,66.031-33.867c20.64-13.462,38.156-29.59,52.548-48.354
					L1622.619,566.408"/>
				<path id="path18_7_" fill="#FFFFFF" d="M2120.281,635.878c-35.171,0.11-68.108-6.13-98.826-18.713
					c-30.725-12.612-57.166-29.897-79.307-51.914c-22.134-21.987-39.653-48.384-52.529-79.102
					c-12.876-30.74-19.358-64.175-19.512-100.313c-0.139-38.13,5.757-72.773,17.703-103.938
					c11.931-31.168,28.733-57.817,50.361-79.988c21.614-22.148,47.571-39.481,77.864-51.976
					c30.278-12.495,63.677-18.794,100.239-18.926c35.83-0.132,69.126,5.918,99.858,18.208
					c30.696,12.261,57.136,29.399,79.299,51.401c22.126,22.002,39.47,48.538,51.995,79.607
					c12.532,31.077,18.867,65.676,19.014,103.806c0.146,36.138-5.588,69.609-17.19,100.444
					c-11.609,30.81-28.213,57.316-49.849,79.479c-21.621,22.163-47.593,39.646-77.864,52.474
					C2191.245,629.25,2157.495,635.739,2120.281,635.878z M2557.361,18.996L2115.85,20.6c-58.608,0.22-111.826,8.599-159.668,25.173
					c-47.856,16.567-88.77,40.474-122.772,71.704c-34.01,31.252-60.231,69.478-78.658,114.727
					c-18.45,45.22-27.55,96.606-27.33,154.167c0.209,54.192,10.221,103.484,30.04,147.942
					c19.808,44.414,47.358,82.632,82.639,114.617c35.288,32,76.912,56.77,124.9,74.333c47.959,17.549,99.88,26.235,155.72,26.038
					c55.833-0.198,107.498-9.265,155.002-27.173c47.498-17.908,88.579-42.971,123.267-75.22
					c34.673-32.234,61.582-70.657,80.72-115.217c19.109-44.583,28.601-93.963,28.381-148.162
					c-0.117-32.117-4.028-61.56-11.711-88.279c-7.698-26.748-17.607-50.969-29.751-72.656
					c-12.158-21.716-26.008-40.737-41.587-57.063c-15.564-16.355-31.641-30.183-48.23-41.492l-0.015-2.007l180.952-0.659
					L2557.361,18.996"/>
				<path id="path20_7_" fill="#FFFFFF" d="M2993.789,579.511c-13.726,17.439-33.142,32.058-58.25,43.865
					c-25.122,11.792-50.442,17.754-75.93,17.842c-15.176,0.062-30.352-1.743-45.52-5.361c-15.183-3.622-28.989-9.269-41.418-16.919
					c-12.444-7.643-22.654-17.637-30.623-29.982c-7.976-12.363-11.997-27.231-12.056-44.619
					c-0.066-16.062,3.318-29.802,10.166-41.191c6.841-11.411,16.289-21.138,28.323-29.224c12.019-8.057,26.646-15.146,43.872-21.229
					c17.205-6.094,36.138-12.176,56.807-18.277c23.394-7.463,47.659-15.897,72.803-25.356c25.115-9.463,48.149-21.929,69.126-37.383
					c20.962-15.483,38.123-34.937,51.475-58.403c13.345-23.489,19.966-52.61,19.834-87.393c-0.146-38.148-7.507-71.411-22.097-99.8
					c-14.59-28.396-33.992-51.914-58.184-70.547c-24.207-18.662-52.515-32.6-84.954-41.854
					c-32.454-9.247-66.584-13.817-102.415-13.685c-47.571,0.176-94.065,8.877-139.497,26.107
					c-45.432,17.23-82.559,42.612-111.379,76.179l93.384,83.987c17.813-24.151,41.711-43.312,71.631-57.477
					c29.941-14.162,59.392-21.284,88.345-21.413c15.146-0.047,30.681,1.743,46.545,5.361c15.864,3.611,30.183,9.763,42.971,18.406
					c12.803,8.646,23.181,19.497,31.165,32.523c7.954,13.015,12.004,29.224,12.085,48.633c0.066,18.721-4.365,34.307-13.279,46.729
					c-8.906,12.393-20.94,23.167-36.057,32.241c-15.139,9.097-33.032,17.014-53.679,23.789
					c-20.654,6.753-42.356,13.857-65.061,21.313c-22.039,6.756-44.07,14.868-66.079,24.331
					c-22.053,9.441-41.799,21.885-59.319,37.354c-17.527,15.439-31.765,34.387-42.693,56.865
					c-10.942,22.438-16.355,50.391-16.23,83.87c0.139,36.13,8.02,67.214,23.643,93.259c15.593,26.03,35.999,47.542,61.245,64.512
					c25.225,16.97,53.884,29.568,85.964,37.837c32.087,8.247,64.68,12.319,97.764,12.188c37.222-0.132,74.956-6.636,113.167-19.475
					c38.188-12.854,71.375-32.051,99.543-57.576L2993.789,579.511"/>
				<path id="path22_7_" fill="#FFFFFF" d="M3314.488,616.477l-224.377,0.82l0.432,110.416l579.039-2.102l-0.432-110.42
					l-224.378,0.817l-2.3-600.228l-130.291,0.476L3314.488,616.477"/>
				<path id="path24_7_" fill="#FFFFFF" d="M584.766,1434.69c-25.693-53.76-39.324-110.171-42.03-166.179
					C656.228,1127,965.567,1056.71,1402.929,1162.589c37.991,190.283-55.759,389.282-238.85,476.77
					C947.589,1742.81,688.224,1651.18,584.766,1434.69"/>
				<path id="path26_7_" fill="#FFFFFF" d="M2245.078,1205.172c630.989-415.829,1269.089-66.332,1285.474,115.298
					c8.65,95.991-89.099,183.962-199.102,223.96c-30,90-489.998,420-819.998-19.999c-38.401-8.683-55.884-13.66-165.066-47.223
					c-225.447-69.299-366.328-131.909-728.577-238.558c-41.594-8.32-21.771,10.419-8.32,16.641
					c432.502,199.607,726.819,400.84,923.232,499.039c399.229,199.611,948.164,133.07,1115.479-157.441
					C3961.151,1053.49,3000.037,611.687,2245.078,1205.172"/>
				<path id="path28_7_" fill="#FFFFFF" d="M1509.921,1130.509C877.226,940.083,491.224,1153.147,411.79,1255.291
					c-58.224,74.847-29.509,210.029,136.868,234.178c-2.93,9.521,40.909,91.051,69.8,105.513
					c-657.938,73.63-822.784-348.611-339.745-589.223c446.917-222.612,1289.239-140.867,2054.257,396.46
					C2006.323,1291.451,1735.781,1198.48,1509.921,1130.509"/>
				<path id="path30_7_" fill="#FFFFFF" d="M2495.142,1198.719c307.8-127.038,649.028-77.289,866.067,24.163
					c8.547,180.398-96.702,354.279-273.999,424.479c-223.088,88.341-475.547-20.893-563.892-243.97
					C2496.658,1336.059,2488.111,1266.068,2495.142,1198.719"/>
			</g>
		</g>
	</g>
	<g>
		<g id="g10_6_" transform="matrix(1.3333333,0,0,-1.3333333,0,249.18667)">
			<g id="g12_6_" transform="scale(0.1)">
				<path id="path14_6_" fill="#292A2C" d="M174.632,738.3l203.705-0.74l188.302-505.58h3.105l190.137,504.188l204.734-0.744
					l-2.736-710.647l-129.258,0.483l2.201,571.117l-2.065,0.015L608.247,26.071l-90.996,0.322L300.249,598.32h-2.069l-2.201-571.106
					L171.9,27.653L174.632,738.3"/>
				<path id="path16_6_" fill="#292A2C" d="M1622.619,566.408c-19.208,25.503-44.279,44.15-75.26,55.986
					c-30.978,11.821-61.3,17.783-90.93,17.893c-37.91,0.139-72.4-6.423-103.469-19.709c-31.069-13.271-57.858-31.582-80.35-54.902
					c-22.5-23.357-39.84-50.713-52.009-82.12c-12.191-31.402-18.351-65.508-18.49-102.305c-0.15-38.811,5.559-74.304,17.175-106.465
					c11.58-32.146,28.195-59.824,49.827-82.983c21.628-23.174,47.567-41.177,77.86-53.976
					c30.278-12.832,64.369-19.314,102.279-19.446c39.294-0.161,74.121,7.251,104.52,22.2c30.388,14.956,54.95,34.761,73.66,59.458
					l104.161-71.638c-32.571-39.382-72.323-69.851-119.282-91.414c-46.956-21.566-101.807-32.263-164.517-32.029
					c-57.22,0.205-109.753,9.613-157.573,28.169c-47.849,18.567-88.949,44.502-123.27,77.739
					c-34.358,33.252-61.088,72.817-80.197,118.74c-19.131,45.901-28.579,96.621-28.37,152.153
					c0.22,56.865,10.58,108.193,31.088,153.955c20.511,45.762,48.585,84.653,84.21,116.638
					c35.621,31.985,77.589,56.58,125.918,73.813c48.325,17.227,100.741,25.737,157.262,25.54c23.43-0.088,47.889-2.358,73.389-6.79
					c25.496-4.453,49.929-11.228,73.352-20.354c23.383-9.119,45.41-20.405,66.031-33.867c20.64-13.462,38.156-29.59,52.548-48.354
					L1622.619,566.408"/>
				<path id="path18_6_" fill="#292A2C" d="M2120.281,635.878c-35.171,0.11-68.108-6.13-98.826-18.713
					c-30.725-12.612-57.166-29.897-79.307-51.914c-22.134-21.987-39.653-48.384-52.529-79.102
					c-12.876-30.74-19.358-64.175-19.512-100.313c-0.139-38.13,5.757-72.773,17.703-103.938
					c11.931-31.168,28.733-57.817,50.361-79.988c21.614-22.148,47.571-39.481,77.864-51.976
					c30.278-12.495,63.677-18.794,100.239-18.926c35.83-0.132,69.126,5.918,99.858,18.208
					c30.696,12.261,57.136,29.399,79.299,51.401c22.126,22.002,39.47,48.538,51.995,79.607
					c12.532,31.077,18.867,65.676,19.014,103.806c0.146,36.138-5.588,69.609-17.19,100.444
					c-11.609,30.81-28.213,57.316-49.849,79.479c-21.621,22.163-47.593,39.646-77.864,52.474
					C2191.246,629.25,2157.496,635.739,2120.281,635.878z M2557.361,18.996L2115.85,20.6c-58.608,0.22-111.826,8.599-159.668,25.173
					c-47.856,16.567-88.77,40.474-122.772,71.704c-34.01,31.252-60.231,69.478-78.658,114.727
					c-18.45,45.22-27.55,96.606-27.33,154.167c0.209,54.192,10.221,103.484,30.04,147.942
					c19.808,44.414,47.358,82.632,82.639,114.617c35.288,32,76.912,56.77,124.9,74.333c47.959,17.549,99.88,26.235,155.72,26.038
					c55.833-0.198,107.498-9.265,155.002-27.173c47.498-17.908,88.579-42.971,123.267-75.22
					c34.673-32.234,61.582-70.657,80.72-115.217c19.109-44.583,28.601-93.963,28.381-148.162
					c-0.117-32.117-4.028-61.56-11.711-88.279c-7.698-26.748-17.607-50.969-29.751-72.656
					c-12.158-21.716-26.008-40.737-41.587-57.063c-15.564-16.355-31.641-30.183-48.23-41.492l-0.015-2.007l180.952-0.659
					L2557.361,18.996"/>
				<path id="path20_6_" fill="#292A2C" d="M2993.79,579.511c-13.726,17.439-33.142,32.058-58.25,43.865
					c-25.122,11.792-50.442,17.754-75.93,17.842c-15.176,0.062-30.352-1.743-45.52-5.361c-15.183-3.622-28.989-9.269-41.418-16.919
					c-12.444-7.643-22.654-17.637-30.623-29.982c-7.976-12.363-11.997-27.231-12.056-44.619
					c-0.066-16.062,3.318-29.802,10.166-41.191c6.841-11.411,16.289-21.138,28.323-29.224c12.019-8.057,26.646-15.146,43.872-21.229
					c17.205-6.094,36.138-12.176,56.807-18.277c23.394-7.463,47.659-15.897,72.803-25.356c25.115-9.463,48.149-21.929,69.126-37.383
					c20.962-15.483,38.123-34.937,51.475-58.403c13.345-23.489,19.966-52.61,19.834-87.393c-0.146-38.148-7.507-71.411-22.097-99.8
					c-14.59-28.396-33.992-51.914-58.184-70.547c-24.207-18.662-52.515-32.6-84.954-41.854
					c-32.454-9.247-66.584-13.817-102.415-13.685c-47.571,0.176-94.065,8.877-139.497,26.107
					c-45.432,17.23-82.559,42.612-111.379,76.179l93.384,83.987c17.813-24.151,41.711-43.312,71.631-57.477
					c29.941-14.162,59.392-21.284,88.345-21.413c15.146-0.047,30.681,1.743,46.545,5.361c15.864,3.611,30.183,9.763,42.971,18.406
					c12.803,8.646,23.181,19.497,31.165,32.523c7.954,13.015,12.004,29.224,12.085,48.633c0.066,18.721-4.365,34.307-13.279,46.729
					c-8.906,12.393-20.94,23.167-36.057,32.241c-15.139,9.097-33.032,17.014-53.679,23.789
					c-20.654,6.753-42.356,13.857-65.061,21.313c-22.039,6.756-44.07,14.868-66.079,24.331
					c-22.053,9.441-41.799,21.885-59.319,37.354c-17.527,15.439-31.765,34.387-42.693,56.865
					c-10.942,22.438-16.355,50.391-16.23,83.87c0.139,36.13,8.02,67.214,23.643,93.259c15.593,26.03,35.999,47.542,61.245,64.512
					c25.225,16.97,53.884,29.568,85.964,37.837c32.087,8.247,64.68,12.319,97.764,12.188c37.222-0.132,74.956-6.636,113.167-19.475
					c38.188-12.854,71.375-32.051,99.543-57.576L2993.79,579.511"/>
				<path id="path22_6_" fill="#292A2C" d="M3314.488,616.477l-224.377,0.82l0.432,110.416l579.039-2.102l-0.432-110.42
					l-224.378,0.817l-2.3-600.228l-130.291,0.476L3314.488,616.477"/>
				<path id="path24_6_" fill="#292A2C" d="M584.766,1434.69c-25.693-53.76-39.324-110.171-42.03-166.179
					C656.228,1127,965.567,1056.71,1402.929,1162.589c37.991,190.283-55.759,389.282-238.85,476.77
					C947.59,1742.81,688.224,1651.18,584.766,1434.69"/>
				<path id="path26_6_" fill="#292A2C" d="M2245.079,1205.172c630.989-415.829,1269.089-66.332,1285.474,115.298
					c8.65,95.991-89.099,183.962-199.102,223.96c-30,90-489.998,420-819.998-19.999c-38.401-8.683-55.884-13.66-165.066-47.223
					c-225.447-69.299-366.328-131.909-728.577-238.558c-41.594-8.32-21.771,10.419-8.32,16.641
					c432.502,199.607,726.819,400.84,923.232,499.039c399.229,199.611,948.164,133.07,1115.479-157.441
					C3961.151,1053.49,3000.037,611.687,2245.079,1205.172"/>
				<path id="path28_6_" fill="#3885BD" d="M1509.921,1130.509C877.226,940.083,491.225,1153.147,411.79,1255.291
					c-58.224,74.847-29.509,210.029,136.868,234.178c-2.93,9.521,40.909,91.051,69.8,105.513
					c-657.938,73.63-822.784-348.611-339.745-589.223c446.917-222.612,1289.239-140.867,2054.257,396.46
					C2006.324,1291.451,1735.782,1198.48,1509.921,1130.509"/>
				<path id="path30_6_" fill="#3885BD" d="M2495.142,1198.719c307.8-127.038,649.028-77.289,866.067,24.163
					c8.547,180.398-96.702,354.279-273.999,424.479c-223.088,88.341-475.547-20.893-563.892-243.97
					C2496.658,1336.059,2488.111,1266.068,2495.142,1198.719"/>
			</g>
		</g>
	</g>
	<g>
		<g id="g10_5_" transform="matrix(1.3333333,0,0,-1.3333333,0,249.18667)">
			<g id="g12_5_" transform="scale(0.1)">
				<path id="path14_5_" fill="none" stroke="#000000" stroke-miterlimit="10" d="M174.632,738.3l203.705-0.74l188.302-505.58h3.105
					l190.137,504.188l204.734-0.744l-2.736-710.647l-129.258,0.483l2.201,571.117l-2.065,0.015L608.248,26.071l-90.996,0.322
					L300.25,598.32h-2.069l-2.201-571.106L171.9,27.653L174.632,738.3"/>
				<path id="path16_5_" fill="none" stroke="#000000" stroke-miterlimit="10" d="M1622.619,566.408
					c-19.208,25.503-44.279,44.15-75.26,55.986c-30.978,11.821-61.3,17.783-90.93,17.893c-37.91,0.139-72.4-6.423-103.469-19.709
					c-31.069-13.271-57.858-31.582-80.35-54.902c-22.5-23.357-39.84-50.713-52.009-82.12
					c-12.191-31.402-18.351-65.508-18.49-102.305c-0.15-38.811,5.559-74.304,17.175-106.465
					c11.58-32.146,28.195-59.824,49.827-82.983c21.628-23.174,47.567-41.177,77.86-53.976
					c30.278-12.832,64.369-19.314,102.279-19.446c39.294-0.161,74.121,7.251,104.52,22.2c30.388,14.956,54.95,34.761,73.66,59.458
					l104.161-71.638c-32.571-39.382-72.323-69.851-119.282-91.414c-46.956-21.566-101.807-32.263-164.517-32.029
					c-57.22,0.205-109.753,9.613-157.573,28.169c-47.849,18.567-88.949,44.502-123.27,77.739
					c-34.358,33.252-61.088,72.817-80.197,118.74c-19.131,45.901-28.579,96.621-28.37,152.153
					c0.22,56.865,10.58,108.193,31.088,153.955c20.511,45.762,48.585,84.653,84.21,116.638
					c35.621,31.985,77.589,56.58,125.918,73.813c48.325,17.227,100.741,25.737,157.262,25.54c23.43-0.088,47.889-2.358,73.389-6.79
					c25.496-4.453,49.929-11.228,73.352-20.354c23.383-9.119,45.41-20.405,66.031-33.867c20.64-13.462,38.156-29.59,52.548-48.354
					L1622.619,566.408"/>
				<path id="path18_5_" fill="none" stroke="#000000" stroke-miterlimit="10" d="M2120.281,635.878
					c-35.171,0.11-68.108-6.13-98.826-18.713c-30.725-12.612-57.166-29.897-79.307-51.914
					c-22.134-21.987-39.653-48.384-52.529-79.102c-12.876-30.74-19.358-64.175-19.512-100.313
					c-0.139-38.13,5.757-72.773,17.703-103.938c11.931-31.168,28.733-57.817,50.361-79.988
					c21.614-22.148,47.571-39.481,77.864-51.976c30.278-12.495,63.677-18.794,100.239-18.926
					c35.83-0.132,69.126,5.918,99.858,18.208c30.696,12.261,57.136,29.399,79.299,51.401c22.126,22.002,39.47,48.538,51.995,79.607
					c12.532,31.077,18.867,65.676,19.014,103.806c0.146,36.138-5.588,69.609-17.19,100.444
					c-11.609,30.81-28.213,57.316-49.849,79.479c-21.621,22.163-47.593,39.646-77.864,52.474
					C2191.246,629.25,2157.496,635.739,2120.281,635.878z M2557.362,18.996L2115.85,20.6c-58.608,0.22-111.826,8.599-159.668,25.173
					c-47.856,16.567-88.77,40.474-122.772,71.704c-34.01,31.252-60.231,69.478-78.658,114.727
					c-18.45,45.22-27.55,96.606-27.33,154.167c0.209,54.192,10.221,103.484,30.04,147.942
					c19.808,44.414,47.358,82.632,82.639,114.617c35.288,32,76.912,56.77,124.9,74.333c47.959,17.549,99.88,26.235,155.72,26.038
					c55.833-0.198,107.498-9.265,155.002-27.173c47.498-17.908,88.579-42.971,123.267-75.22
					c34.673-32.234,61.582-70.657,80.72-115.217c19.109-44.583,28.601-93.963,28.381-148.162
					c-0.117-32.117-4.028-61.56-11.711-88.279c-7.698-26.748-17.607-50.969-29.751-72.656
					c-12.158-21.716-26.008-40.737-41.587-57.063c-15.564-16.355-31.641-30.183-48.23-41.492l-0.015-2.007l180.952-0.659
					L2557.362,18.996"/>
				<path id="path20_5_" fill="none" stroke="#000000" stroke-miterlimit="10" d="M2993.79,579.511
					c-13.726,17.439-33.142,32.058-58.25,43.865c-25.122,11.792-50.442,17.754-75.93,17.842c-15.176,0.062-30.352-1.743-45.52-5.361
					c-15.183-3.622-28.989-9.269-41.418-16.919c-12.444-7.643-22.654-17.637-30.623-29.982
					c-7.976-12.363-11.997-27.231-12.056-44.619c-0.066-16.062,3.318-29.802,10.166-41.191
					c6.841-11.411,16.289-21.138,28.323-29.224c12.019-8.057,26.646-15.146,43.872-21.229c17.205-6.094,36.138-12.176,56.807-18.277
					c23.394-7.463,47.659-15.897,72.803-25.356c25.115-9.463,48.149-21.929,69.126-37.383
					c20.962-15.483,38.123-34.937,51.475-58.403c13.345-23.489,19.966-52.61,19.834-87.393c-0.146-38.148-7.507-71.411-22.097-99.8
					c-14.59-28.396-33.992-51.914-58.184-70.547c-24.207-18.662-52.515-32.6-84.954-41.854
					c-32.454-9.247-66.584-13.817-102.415-13.685c-47.571,0.176-94.065,8.877-139.497,26.107
					c-45.432,17.23-82.559,42.612-111.379,76.179l93.384,83.987c17.813-24.151,41.711-43.312,71.631-57.477
					c29.941-14.162,59.392-21.284,88.345-21.413c15.146-0.047,30.681,1.743,46.545,5.361c15.864,3.611,30.183,9.763,42.971,18.406
					c12.803,8.646,23.181,19.497,31.165,32.523c7.954,13.015,12.004,29.224,12.085,48.633c0.066,18.721-4.365,34.307-13.279,46.729
					c-8.906,12.393-20.94,23.167-36.057,32.241c-15.139,9.097-33.032,17.014-53.679,23.789
					c-20.654,6.753-42.356,13.857-65.061,21.313c-22.039,6.756-44.07,14.868-66.079,24.331
					c-22.053,9.441-41.799,21.885-59.319,37.354c-17.527,15.439-31.765,34.387-42.693,56.865
					c-10.942,22.438-16.355,50.391-16.23,83.87c0.139,36.13,8.02,67.214,23.643,93.259c15.593,26.03,35.999,47.542,61.245,64.512
					c25.225,16.97,53.884,29.568,85.964,37.837c32.087,8.247,64.68,12.319,97.764,12.188c37.222-0.132,74.956-6.636,113.167-19.475
					c38.188-12.854,71.375-32.051,99.543-57.576L2993.79,579.511"/>
				<path id="path22_5_" fill="none" stroke="#000000" stroke-miterlimit="10" d="M3314.488,616.477l-224.377,0.82l0.432,110.416
					l579.039-2.102l-0.432-110.42l-224.378,0.817l-2.3-600.228l-130.291,0.476L3314.488,616.477"/>
				<path id="path24_5_" fill="none" stroke="#000000" stroke-miterlimit="10" d="M584.766,1434.69
					c-25.693-53.76-39.324-110.171-42.03-166.179C656.229,1127,965.567,1056.71,1402.929,1162.589
					c37.991,190.283-55.759,389.282-238.85,476.77C947.59,1742.81,688.225,1651.18,584.766,1434.69"/>
				<path id="path26_5_" fill="none" stroke="#000000" stroke-miterlimit="10" d="M2245.079,1205.172
					c630.989-415.829,1269.089-66.332,1285.474,115.298c8.65,95.991-89.099,183.962-199.102,223.96
					c-30,90-489.998,420-819.998-19.999c-38.401-8.683-55.884-13.66-165.066-47.223
					c-225.447-69.299-366.328-131.909-728.577-238.558c-41.594-8.32-21.771,10.419-8.32,16.641
					c432.502,199.607,726.819,400.84,923.232,499.039c399.229,199.611,948.164,133.07,1115.479-157.441
					C3961.151,1053.49,3000.037,611.687,2245.079,1205.172"/>
				<path id="path28_5_" fill="none" stroke="#000000" stroke-miterlimit="10" d="M1509.921,1130.509
					C877.226,940.083,491.225,1153.147,411.79,1255.291c-58.224,74.847-29.509,210.029,136.868,234.178
					c-2.93,9.521,40.909,91.051,69.8,105.513c-657.938,73.63-822.784-348.611-339.745-589.223
					c446.917-222.612,1289.239-140.867,2054.257,396.46C2006.324,1291.451,1735.782,1198.48,1509.921,1130.509"/>
				<path id="path30_5_" fill="none" stroke="#000000" stroke-miterlimit="10" d="M2495.142,1198.719
					c307.8-127.038,649.028-77.289,866.067,24.163c8.547,180.398-96.702,354.279-273.999,424.479
					c-223.088,88.341-475.547-20.893-563.892-243.97C2496.658,1336.059,2488.111,1266.068,2495.142,1198.719"/>
			</g>
		</g>
	</g>
</g>
</svg>
