<?xml version="1.0" standalone="no"?>
<!DOCTYPE svg PUBLIC "-//W3C//DTD SVG 20010904//EN"
 "http://www.w3.org/TR/2001/REC-SVG-20010904/DTD/svg10.dtd">
<svg version="1.0" xmlns="http://www.w3.org/2000/svg"
 width="200.000000pt" height="200.000000pt" viewBox="0 0 200.000000 200.000000"
 preserveAspectRatio="xMidYMid meet">

<g transform="translate(0.000000,200.000000) scale(0.100000,-0.100000)"
fill="#000000" stroke="none">
<path d="M1633 1359 c-18 -5 -34 -13 -37 -18 -4 -5 15 -2 42 6 82 25 189 -3
217 -57 8 -15 17 -47 21 -69 6 -35 13 -45 44 -61 56 -28 65 -44 35 -58 -20 -9
-24 -16 -16 -29 12 -24 3 -145 -12 -155 -7 -4 -32 -8 -57 -8 -25 0 -52 -5 -60
-11 -20 -14 103 -4 130 11 20 11 24 34 23 134 -1 29 5 44 20 57 19 15 20 19 7
34 -7 9 -30 25 -49 35 -29 14 -39 27 -48 63 -18 64 -55 104 -116 122 -56 17
-96 18 -144 4z"/>
<path d="M1690 1230 c0 -13 5 -20 13 -17 6 2 12 10 12 17 0 7 -6 15 -12 18 -8
2 -13 -5 -13 -18z"/>
<path d="M1795 1220 c3 -5 8 -10 11 -10 2 0 4 5 4 10 0 6 -5 10 -11 10 -5 0
-7 -4 -4 -10z"/>
<path d="M1492 1195 c0 -16 2 -22 5 -12 2 9 2 23 0 30 -3 6 -5 -1 -5 -18z"/>
<path d="M1743 1204 c-7 -19 11 -39 26 -30 16 10 13 33 -4 40 -9 3 -18 -1 -22
-10z"/>
<path d="M1610 1191 c0 -11 26 -22 34 -14 12 12 5 23 -14 23 -11 0 -20 -4 -20
-9z"/>
<path d="M1670 1175 c-10 -12 -10 -18 0 -30 20 -25 55 -15 55 15 0 30 -35 40
-55 15z"/>
<path d="M1560 1160 c0 -5 5 -10 10 -10 6 0 10 5 10 10 0 6 -4 10 -10 10 -5 0
-10 -4 -10 -10z"/>
<path d="M1810 1160 c0 -5 5 -10 10 -10 6 0 10 5 10 10 0 6 -4 10 -10 10 -5 0
-10 -4 -10 -10z"/>
<path d="M1622 1138 c-18 -18 -14 -28 8 -28 11 0 20 6 20 14 0 21 -15 27 -28
14z"/>
<path d="M1743 1134 c-7 -19 11 -39 26 -30 16 10 13 33 -4 40 -9 3 -18 -1 -22
-10z"/>
<path d="M1684 1099 c-10 -17 13 -36 27 -22 12 12 4 33 -11 33 -5 0 -12 -5
-16 -11z"/>
<path d="M1795 1100 c-3 -5 -1 -10 4 -10 6 0 11 5 11 10 0 6 -2 10 -4 10 -3 0
-8 -4 -11 -10z"/>
<path d="M15 1088 c-17 -52 -3 -92 39 -112 19 -9 41 -16 50 -16 8 0 27 -5 41
-12 32 -15 35 -60 3 -82 l-21 -15 28 -13 c25 -11 29 -10 51 15 50 58 19 127
-65 147 -56 13 -86 40 -78 69 7 27 -39 45 -48 19z"/>
<path d="M1090 1080 c0 -31 49 -69 88 -70 25 0 32 4 32 20 0 16 -7 20 -35 20
-31 0 -35 3 -35 25 0 20 -5 25 -25 25 -19 0 -25 -5 -25 -20z"/>
<path d="M1750 1060 c0 -5 5 -10 11 -10 5 0 7 5 4 10 -3 6 -8 10 -11 10 -2 0
-4 -4 -4 -10z"/>
<path d="M916 1051 c-17 -7 -16 -10 17 -35 l37 -28 0 -84 c0 -83 0 -84 25 -84
25 0 25 1 25 85 0 98 -12 130 -53 145 -16 5 -30 10 -31 9 -1 0 -10 -4 -20 -8z"/>
<path d="M1415 1051 c-18 -4 -31 -14 -33 -24 -3 -16 1 -18 41 -12 34 5 48 3
60 -10 31 -31 21 -45 -31 -45 -38 0 -53 -5 -70 -23 -28 -30 -29 -78 -2 -102
20 -18 21 -18 34 1 10 13 11 23 4 31 -25 30 19 72 62 58 11 -3 20 -2 20 3 0 6
11 13 25 16 27 7 34 41 15 76 -8 16 -72 43 -90 39 -3 -1 -18 -4 -35 -8z"/>
<path d="M464 1008 c6 -39 19 -57 39 -58 4 0 7 23 7 50 0 47 -1 50 -26 50 -26
0 -26 -2 -20 -42z"/>
<path d="M658 1034 c-34 -18 -36 -26 -4 -18 28 7 60 -21 53 -48 -3 -11 3 -24
16 -33 34 -24 40 -18 34 32 -3 32 -12 53 -27 65 -27 22 -36 22 -72 2z"/>
<path d="M1265 1008 c13 -74 48 -77 53 -5 3 47 3 47 -28 47 -32 0 -32 0 -25
-42z"/>
<path d="M866 1023 c-9 -9 -7 -33 3 -33 12 0 22 28 12 34 -5 3 -11 3 -15 -1z"/>
<path d="M261 981 c-27 -50 4 -145 51 -156 66 -15 108 -9 108 15 0 16 -5 19
-23 15 -57 -15 -100 36 -94 110 2 35 -26 47 -42 16z"/>
<path d="M597 949 c-9 -5 -22 -7 -27 -4 -6 4 -10 -8 -10 -28 0 -68 64 -111
150 -100 30 4 40 10 40 24 0 16 -6 18 -43 13 -37 -5 -48 -2 -73 19 -25 23 -27
28 -16 46 22 38 14 50 -21 30z"/>
<path d="M1095 942 c-9 -23 -5 -66 8 -91 22 -44 117 -51 117 -9 0 16 -5 19
-21 15 -35 -9 -48 3 -55 52 -5 37 -10 47 -25 47 -10 0 -21 -6 -24 -14z"/>
<path d="M810 883 c0 -61 1 -63 25 -63 32 0 32 20 0 80 l-24 45 -1 -62z"/>
<path d="M1292 885 c-28 -58 -28 -65 3 -65 24 0 25 3 25 55 0 30 -1 55 -3 55
-2 0 -13 -20 -25 -45z"/>
<path d="M1532 881 c-27 -61 -27 -61 3 -61 24 0 25 3 25 55 0 30 -1 55 -3 55
-1 0 -12 -22 -25 -49z"/>
<path d="M488 877 c-22 -53 -22 -57 1 -57 13 0 20 10 25 31 15 77 0 92 -26 26z"/>
<path d="M940 756 c0 -14 5 -28 10 -31 6 -4 10 7 10 24 0 17 -4 31 -10 31 -5
0 -10 -11 -10 -24z"/>
<path d="M1197 760 c4 -17 0 -20 -24 -20 -32 0 -53 -16 -53 -39 0 -11 6 -9 23
7 16 15 26 18 40 11 24 -14 21 -55 -5 -73 -22 -16 -22 -16 10 -16 l32 0 0 75
c0 58 -3 75 -14 75 -9 0 -12 -7 -9 -20z"/>
<path d="M1048 724 c16 -11 22 -25 22 -55 0 -21 5 -39 10 -39 14 0 12 84 -2
98 -7 7 -21 12 -32 12 -20 0 -20 -1 2 -16z"/>
<path d="M1309 719 c25 -24 25 -57 -2 -73 -15 -9 -22 -7 -37 12 -21 25 -30 28
-30 8 0 -37 73 -53 97 -20 27 37 6 94 -35 94 -12 0 -11 -4 7 -21z"/>
<path d="M1441 719 c15 -15 20 -30 17 -55 -3 -23 0 -34 9 -34 16 0 18 63 3 91
-6 10 -20 19 -30 19 -19 0 -19 -1 1 -21z"/>
<path d="M1546 731 c-3 -5 3 -11 14 -14 11 -3 20 -12 20 -21 0 -9 5 -16 10
-16 14 0 13 33 -2 48 -14 14 -35 16 -42 3z"/>
<path d="M1631 721 c-11 -20 -3 -32 32 -44 13 -5 17 -13 12 -28 -5 -15 -3 -20
6 -17 8 3 15 14 17 26 3 16 -4 25 -23 32 -20 8 -25 15 -20 30 8 25 -11 26 -24
1z"/>
<path d="M1720 721 c0 -11 5 -23 10 -26 6 -4 10 5 10 19 0 14 -4 26 -10 26 -5
0 -10 -9 -10 -19z"/>
<path d="M1780 729 c0 -6 7 -9 15 -5 18 6 45 -2 45 -15 0 -5 -15 -12 -32 -17
-26 -6 -33 -14 -33 -32 0 -13 6 -25 13 -28 8 -2 11 4 10 19 -2 18 4 24 30 31
35 9 45 41 16 52 -26 10 -64 7 -64 -5z"/>
<path d="M947 671 c-4 -19 -5 -36 -2 -39 10 -11 16 7 13 40 l-3 33 -8 -34z"/>
<path d="M1500 681 c0 -39 40 -65 81 -53 22 6 20 7 -11 12 -28 4 -35 9 -34 28
0 15 -5 22 -18 22 -10 0 -18 -4 -18 -9z"/>
<path d="M990 653 c0 -13 5 -23 10 -23 13 0 13 11 0 30 -8 12 -10 11 -10 -7z"/>
<path d="M1380 650 c0 -11 4 -20 9 -20 5 0 7 9 4 20 -3 11 -7 20 -9 20 -2 0
-4 -9 -4 -20z"/>
<path d="M1727 650 c-3 -11 -1 -20 4 -20 5 0 9 2 9 4 0 2 3 11 6 20 3 9 2 16
-4 16 -5 0 -12 -9 -15 -20z"/>
<path d="M1850 651 c-7 -15 -7 -21 0 -21 12 0 25 28 17 36 -3 3 -10 -4 -17
-15z"/>
</g>
</svg>
