<?xml version="1.0" encoding="utf-8"?>
<!-- Generator: Adobe Illustrator 16.0.0, SVG Export Plug-In . SVG Version: 6.00 Build 0)  -->
<!DOCTYPE svg PUBLIC "-//W3C//DTD SVG 1.1//EN" "http://www.w3.org/Graphics/SVG/1.1/DTD/svg11.dtd">
<svg version="1.1" id="Layer_1" xmlns="http://www.w3.org/2000/svg" xmlns:xlink="http://www.w3.org/1999/xlink" x="0px" y="0px"
	 width="64.539px" height="72px" viewBox="0 0 64.539 72" enable-background="new 0 0 64.539 72" xml:space="preserve">
<g>
	<path fill-rule="evenodd" clip-rule="evenodd" fill="#111111" d="M17.96,14.197l0.01-0.01l0.01-0.005
		c-0.845-1.669-1.252-3.533-0.518-5.356c1.278-3.175,5.593-4.919,8.553-6.1c1.89-0.754,3.942-1.473,5.729-2.44L32.271,0l0.527,0.286
		c1.787,0.967,3.84,1.686,5.729,2.44c2.961,1.181,7.275,2.925,8.555,6.1c0.734,1.825,0.326,3.69-0.521,5.36l0.014,0.007l0.008,0.008
		c1.326-1.32,2.973-2.282,4.934-2.148c3.414,0.234,6.408,3.8,8.445,6.25c1.301,1.565,2.619,3.294,4.09,4.694l0.436,0.414L64.376,24
		c-0.367,1.998-0.416,4.171-0.549,6.202c-0.209,3.18-0.535,7.823-3.16,10.02c-1.508,1.262-3.408,1.451-5.258,1.162l-0.002,0.014
		l-0.006,0.009c1.668,0.853,3.088,2.115,3.568,4.03c0.832,3.319-1.635,7.268-3.334,9.962c-1.088,1.721-2.324,3.509-3.201,5.341
		l-0.26,0.541l-0.594,0.08c-2.014,0.268-4.096,0.892-6.068,1.393c-3.09,0.785-7.605,1.91-10.506,0.093
		c-1.674-1.05-2.436-2.79-2.73-4.643l-0.014,0.002l-0.01-0.001c-0.296,1.85-1.057,3.589-2.73,4.638
		c-2.9,1.817-7.417,0.692-10.505-0.093c-1.973-0.501-4.055-1.125-6.069-1.394l-0.595-0.079l-0.259-0.541
		c-0.877-1.832-2.114-3.62-3.2-5.341c-1.701-2.695-4.167-6.643-3.334-9.962c0.48-1.917,1.901-3.179,3.571-4.032l-0.006-0.012
		l-0.001-0.011c-1.849,0.288-3.747,0.099-5.254-1.163c-2.625-2.196-2.95-6.839-3.159-10.02c-0.133-2.031-0.183-4.204-0.55-6.202
		l-0.109-0.59l0.435-0.414c1.471-1.4,2.789-3.129,4.091-4.694c2.037-2.45,5.03-6.015,8.444-6.25
		C14.985,11.912,16.632,12.875,17.96,14.197L17.96,14.197z M54.341,41.049l0.16-0.986c9.678,2.498,7.566-9.64,8.785-16.264
		c-4.879-4.643-10.305-15.703-16.666-7.994L45.912,15.1l-0.887-0.458c5.365-8.432-6.83-10.174-12.754-13.38
		c-5.923,3.206-18.118,4.948-12.752,13.38l-0.891,0.455l-0.71,0.703C11.556,8.09,6.131,19.15,1.251,23.793
		c1.218,6.624-0.893,18.761,8.784,16.264l0.158,0.987l0.449,0.893c-9.298,3.667-0.456,12.246,2.453,18.321
		c6.676,0.889,17.566,6.646,18.182-3.329l0.987,0.155l0.989-0.15c0.615,9.976,11.506,4.217,18.182,3.328
		c2.908-6.075,11.75-14.652,2.453-18.32L54.341,41.049L54.341,41.049z"/>
	<path fill-rule="evenodd" clip-rule="evenodd" fill="#FFF200" d="M54.341,41.049l0.16-0.986c9.678,2.498,7.566-9.64,8.785-16.264
		c-4.879-4.643-10.305-15.703-16.666-7.994L45.912,15.1l-0.887-0.458c5.365-8.432-6.83-10.174-12.754-13.38
		c-5.923,3.206-18.118,4.948-12.752,13.38l-0.891,0.455l-0.71,0.703C11.556,8.09,6.131,19.15,1.251,23.793
		c1.218,6.624-0.893,18.761,8.784,16.264l0.158,0.987l0.449,0.893c-9.298,3.667-0.456,12.246,2.453,18.321
		c6.676,0.889,17.566,6.646,18.182-3.329l0.988,0.155l0.989-0.15c0.615,9.976,11.506,4.217,18.182,3.328
		c2.908-6.075,11.75-14.652,2.453-18.32L54.341,41.049L54.341,41.049z"/>
	<path fill-rule="evenodd" clip-rule="evenodd" fill="#CE8944" d="M20.267,23.74c-0.585-0.759-1.912-1.68-1.927-1.887
		c0.119-1.227-1.419-2.277-2.451-1.724c-0.166,0.089-0.247,0.093-0.244,0.013c2.114-2.061,5.432-1.215,6.531,1.592
		C21.573,22.368,20.97,23.001,20.267,23.74L20.267,23.74z M18.605,26.356c-0.726-0.625-2.21-1.261-2.268-1.46
		c-0.13-1.225-1.848-1.945-2.748-1.195c-0.145,0.12-0.223,0.141-0.236,0.062c1.656-2.444,5.077-2.283,6.718,0.246
		C19.608,24.75,19.146,25.491,18.605,26.356L18.605,26.356z M17.503,29.253c-0.837-0.467-2.419-0.791-2.515-0.975
		c-0.375-1.174-2.202-1.534-2.932-0.619c-0.117,0.147-0.19,0.183-0.219,0.108c1.131-2.727,4.515-3.257,6.63-1.109
		C18.163,27.478,17.858,28.297,17.503,29.253L17.503,29.253z M17.006,32.313c-0.914-0.289-2.528-0.289-2.659-0.45
		c-0.603-1.075-2.465-1.06-2.996-0.017c-0.085,0.167-0.15,0.218-0.193,0.15c0.559-2.899,3.767-4.098,6.272-2.42
		C17.296,30.441,17.162,31.305,17.006,32.313L17.006,32.313z M17.135,35.41c-0.953-0.099-2.535,0.226-2.695,0.095
		c-0.807-0.932-2.628-0.542-2.939,0.586c-0.05,0.181-0.103,0.243-0.158,0.186c-0.035-2.952,2.866-4.771,5.657-3.632
		C17.042,33.518,17.085,34.391,17.135,35.41L17.135,35.41z M17.883,38.417c-0.954,0.094-2.438,0.731-2.622,0.635
		c-0.977-0.75-2.683-0.003-2.76,1.165c-0.013,0.188-0.052,0.259-0.118,0.214c-0.628-2.885,1.849-5.25,4.812-4.695
		C17.412,36.583,17.63,37.43,17.883,38.417L17.883,38.417z M19.221,41.213c-0.915,0.284-2.241,1.206-2.44,1.149
		c-1.108-0.539-2.629,0.536-2.47,1.696c0.026,0.186,0.001,0.264-0.072,0.233c-1.195-2.7,0.755-5.515,3.769-5.567
		C18.391,39.511,18.774,40.296,19.221,41.213L19.221,41.213z M21.094,43.683c-0.839,0.463-1.953,1.632-2.159,1.616
		c-1.194-0.305-2.467,1.055-2.079,2.158c0.063,0.178,0.054,0.259-0.024,0.244c-1.714-2.405-0.37-5.555,2.573-6.211
		C19.938,42.182,20.472,42.875,21.094,43.683L21.094,43.683z M26.12,47.258c-0.589,0.756-1.152,2.27-1.348,2.336
		c-1.218,0.19-1.853,1.94-1.06,2.803c0.127,0.138,0.152,0.216,0.074,0.233c-2.522-1.535-2.528-4.96-0.082-6.723
		C24.467,46.334,25.229,46.76,26.12,47.258L26.12,47.258z M29.067,48.217c-0.425,0.858-0.672,2.455-0.851,2.56
		c-1.154,0.431-1.425,2.273-0.475,2.958c0.152,0.11,0.192,0.182,0.119,0.214c-2.779-0.996-3.473-4.35-1.432-6.568
		C27.262,47.644,28.095,47.908,29.067,48.217L29.067,48.217z M32.147,48.563c-0.244,0.927-0.165,2.54-0.318,2.679
		c-1.045,0.654-0.938,2.514,0.13,2.993c0.171,0.077,0.224,0.139,0.159,0.186c-2.923-0.417-4.277-3.563-2.724-6.146
		C30.264,48.365,31.133,48.457,32.147,48.563L32.147,48.563z M35.234,48.284c-0.053,0.956,0.35,2.521,0.227,2.688
		c-0.891,0.851-0.414,2.651,0.729,2.906c0.184,0.041,0.248,0.091,0.193,0.149c-2.945,0.179-4.905-2.63-3.902-5.474
		C33.349,48.469,34.22,48.383,35.234,48.284L35.234,48.284z M38.203,47.389c0.141,0.948,0.85,2.399,0.762,2.588
		c-0.703,1.013,0.127,2.68,1.299,2.7c0.188,0.004,0.262,0.039,0.219,0.107c-2.85,0.769-5.334-1.59-4.924-4.576
		C36.392,47.949,37.228,47.69,38.203,47.389L38.203,47.389z M40.929,45.916c0.328,0.9,1.314,2.18,1.268,2.381
		c-0.484,1.134,0.664,2.6,1.814,2.385c0.184-0.035,0.264-0.015,0.236,0.061c-2.639,1.326-5.545-0.484-5.744-3.492
		C39.269,46.829,40.035,46.407,40.929,45.916L40.929,45.916z M45.23,41.497c0.658,0.698,2.066,1.485,2.104,1.689
		c0.002,1.232,1.635,2.127,2.607,1.477c0.156-0.105,0.236-0.117,0.242-0.037c-1.904,2.257-5.289,1.739-6.656-0.947
		C44.064,42.989,44.603,42.3,45.23,41.497L45.23,41.497z M46.628,38.73c0.785,0.552,2.324,1.04,2.4,1.232
		c0.25,1.207,2.029,1.755,2.852,0.922c0.131-0.134,0.207-0.162,0.229-0.085c-1.41,2.594-4.83,2.767-6.711,0.41
		C45.787,40.427,46.175,39.644,46.628,38.73L46.628,38.73z M47.443,35.74c0.879,0.383,2.484,0.551,2.598,0.725
		c0.488,1.132,2.342,1.312,2.979,0.33c0.104-0.157,0.172-0.201,0.207-0.129c-0.859,2.825-4.174,3.682-6.49,1.751
		C46.958,37.571,47.183,36.726,47.443,35.74L47.443,35.74z M47.64,32.646c0.936,0.198,2.543,0.04,2.689,0.188
		c0.705,1.011,2.557,0.814,2.984-0.276c0.068-0.175,0.127-0.231,0.178-0.168c-0.275,2.94-3.352,4.446-6.008,3.021
		C47.533,34.538,47.582,33.665,47.64,32.646L47.64,32.646z M47.208,29.577c0.959,0.006,2.502-0.472,2.674-0.357
		c0.895,0.848,2.668,0.283,2.867-0.87c0.033-0.186,0.078-0.252,0.141-0.201c0.322,2.936-2.387,5.029-5.277,4.167
		C47.486,31.451,47.359,30.586,47.208,29.577L47.208,29.577z M46.171,26.656c0.939-0.187,2.354-0.965,2.547-0.888
		c1.045,0.652,2.67-0.258,2.633-1.429c-0.006-0.188,0.027-0.263,0.098-0.225c0.906,2.81-1.328,5.406-4.332,5.143
		C46.818,28.436,46.519,27.615,46.171,26.656L46.171,26.656z M44.566,24.004c0.883-0.372,2.113-1.419,2.316-1.381
		c1.156,0.428,2.564-0.791,2.293-1.93c-0.043-0.183-0.027-0.263,0.049-0.239c1.453,2.57-0.213,5.563-3.207,5.908
		C45.558,25.618,45.101,24.873,44.566,24.004L44.566,24.004z M30.878,17.96c0.146-0.947-0.102-2.543,0.037-2.697
		c0.97-0.76,0.67-2.598-0.442-2.964c-0.178-0.059-0.238-0.115-0.178-0.168c2.951,0.11,4.626,3.097,3.351,5.829
		C32.771,17.96,31.897,17.96,30.878,17.96L30.878,17.96z M27.837,18.561c-0.047-0.957-0.611-2.471-0.506-2.649
		c0.797-0.94,0.134-2.68-1.029-2.814c-0.187-0.021-0.256-0.064-0.208-0.128c2.912-0.486,5.154,2.103,4.455,5.035
		C29.692,18.18,28.836,18.356,27.837,18.561L27.837,18.561z M24.979,19.761c-0.239-0.928-1.095-2.297-1.028-2.493
		c0.592-1.081-0.407-2.652-1.574-2.55c-0.187,0.016-0.264-0.012-0.229-0.084c2.755-1.062,5.472,1.023,5.376,4.037
		C26.72,19.015,25.917,19.359,24.979,19.761L24.979,19.761z M22.421,21.511c-0.421-0.861-1.535-2.03-1.509-2.236
		c0.363-1.178-0.932-2.516-2.055-2.182c-0.18,0.054-0.261,0.042-0.241-0.036c2.485-1.594,5.565-0.097,6.078,2.874
		C23.976,20.43,23.258,20.929,22.421,21.511L22.421,21.511z M23.426,45.726c-0.729,0.622-1.584,1.991-1.791,2.018
		c-1.231-0.059-2.205,1.528-1.602,2.532c0.097,0.161,0.105,0.242,0.025,0.243c-2.162-2.011-1.479-5.367,1.271-6.602
		C21.992,44.488,22.653,45.059,23.426,45.726L23.426,45.726z M43.304,43.925c0.504,0.815,1.727,1.871,1.721,2.078
		c-0.246,1.207,1.172,2.413,2.256,1.97c0.174-0.07,0.256-0.066,0.244,0.013c-2.316,1.829-5.529,0.641-6.328-2.267
		C41.863,45.152,42.527,44.586,43.304,43.925L43.304,43.925z M42.46,21.729c0.791-0.542,1.785-1.815,1.992-1.819
		c1.219,0.187,2.352-1.29,1.857-2.351c-0.078-0.17-0.078-0.252,0-0.245c1.941,2.226,0.91,5.492-1.953,6.433
		C43.757,23.11,43.16,22.473,42.46,21.729L42.46,21.729z M39.941,19.924c0.666-0.69,1.383-2.137,1.586-2.182
		c1.23-0.062,2.045-1.737,1.348-2.677c-0.113-0.151-0.129-0.231-0.049-0.239c2.348,1.79,1.994,5.197-0.621,6.694
		C41.49,21.016,40.775,20.512,39.941,19.924L39.941,19.924z M37.111,18.662c0.512-0.81,0.924-2.371,1.113-2.457
		c1.193-0.308,1.654-2.112,0.781-2.893c-0.141-0.125-0.172-0.2-0.096-0.224c2.66,1.281,3,4.689,0.738,6.682
		C38.845,19.42,38.044,19.07,37.111,18.662L37.111,18.662z M34.083,17.995c0.34-0.896,0.43-2.508,0.598-2.63
		c1.105-0.542,1.195-2.402,0.184-2.991c-0.162-0.094-0.209-0.162-0.139-0.201c2.863,0.72,3.881,3.99,2.064,6.397
		C35.937,18.389,35.082,18.208,34.083,17.995L34.083,17.995z"/>
	<path fill-rule="evenodd" clip-rule="evenodd" fill="#111111" d="M32.361,18.464c8.162,0,14.783,6.62,14.783,14.784
		c0,8.164-6.621,14.785-14.783,14.785c-8.165,0-14.785-6.621-14.785-14.785C17.576,25.084,24.196,18.464,32.361,18.464
		L32.361,18.464z M32.384,22.928c5.695,0,10.313,4.618,10.313,10.312c0,5.694-4.617,10.312-10.313,10.312
		c-5.693,0-10.311-4.618-10.311-10.312C22.073,27.546,26.691,22.928,32.384,22.928L32.384,22.928z"/>
	<path fill-rule="evenodd" clip-rule="evenodd" fill="#FFFFFF" d="M32.384,22.928c5.695,0,10.313,4.618,10.313,10.312
		c0,5.694-4.617,10.312-10.313,10.312c-5.693,0-10.311-4.618-10.311-10.312C22.073,27.546,26.691,22.928,32.384,22.928
		L32.384,22.928z"/>
	<path fill="#FFFFFF" d="M19.01,28.694l0.262-0.888l1.713,0.506c0.169,0.05,0.322,0.124,0.457,0.222
		c0.136,0.098,0.243,0.219,0.323,0.366c0.08,0.146,0.124,0.289,0.133,0.426c0.013,0.191-0.017,0.409-0.088,0.65
		c-0.042,0.14-0.096,0.29-0.165,0.449c-0.068,0.159-0.148,0.287-0.239,0.38c-0.091,0.094-0.203,0.171-0.337,0.232
		s-0.263,0.091-0.387,0.091c-0.199,0.001-0.369-0.02-0.51-0.061l-1.713-0.506l0.262-0.888l1.754,0.518
		c0.157,0.046,0.292,0.039,0.405-0.021c0.114-0.061,0.194-0.168,0.239-0.322c0.044-0.152,0.037-0.284-0.025-0.397
		c-0.061-0.111-0.171-0.191-0.331-0.238L19.01,28.694L19.01,28.694z M19.985,26.351l0.499-0.707l2.001,0.035l-1.353-0.954
		l0.504-0.715l2.45,1.728l-0.504,0.715l-1.99-0.035l1.346,0.949l-0.502,0.711L19.985,26.351L19.985,26.351z M22.642,23.02
		l0.707-0.604l1.948,2.28L24.589,25.3L22.642,23.02L22.642,23.02z M24.07,21.743l0.847-0.469l1.637,1.561l-0.463-2.21l0.822-0.456
		l0.479,3.162l-0.878,0.486L24.07,21.743L24.07,21.743z M27.999,19.792l2.416-0.558l0.144,0.625l-1.51,0.349l0.107,0.465l1.4-0.323
		l0.138,0.596l-1.4,0.323l0.133,0.575l1.555-0.358l0.152,0.661l-2.46,0.568L27.999,19.792L27.999,19.792z M31.662,22.071l0.226-2.99
		l1.54,0.117c0.285,0.021,0.502,0.063,0.648,0.124c0.148,0.06,0.264,0.16,0.346,0.299c0.082,0.14,0.115,0.306,0.102,0.497
		c-0.014,0.166-0.059,0.306-0.139,0.421c-0.08,0.116-0.186,0.206-0.314,0.271c-0.082,0.042-0.195,0.073-0.334,0.094
		c0.107,0.045,0.184,0.087,0.232,0.128c0.031,0.027,0.076,0.084,0.135,0.169c0.059,0.084,0.096,0.15,0.115,0.195l0.383,0.898
		l-1.043-0.079l-0.426-0.949c-0.053-0.123-0.104-0.204-0.148-0.243c-0.064-0.051-0.139-0.08-0.223-0.086l-0.08-0.006l-0.092,1.211
		L31.662,22.071L31.662,22.071z M32.722,20.367l0.391,0.029c0.043,0.003,0.125-0.004,0.248-0.022
		c0.063-0.007,0.115-0.035,0.158-0.083s0.066-0.104,0.07-0.169c0.008-0.097-0.018-0.174-0.074-0.23
		c-0.057-0.057-0.17-0.091-0.34-0.104l-0.406-0.031L32.722,20.367L32.722,20.367z M35.076,21.399l0.848,0.238
		c-0.029,0.141-0.027,0.256,0.002,0.345c0.051,0.146,0.16,0.248,0.326,0.307c0.125,0.043,0.232,0.048,0.318,0.013
		c0.09-0.035,0.146-0.091,0.174-0.168c0.025-0.073,0.018-0.15-0.027-0.23c-0.043-0.08-0.174-0.187-0.389-0.32
		c-0.354-0.22-0.586-0.43-0.699-0.63c-0.115-0.2-0.133-0.411-0.057-0.632c0.051-0.145,0.141-0.268,0.271-0.367
		c0.129-0.101,0.291-0.158,0.486-0.172c0.195-0.014,0.439,0.03,0.734,0.133c0.361,0.126,0.613,0.29,0.756,0.491
		c0.143,0.201,0.18,0.455,0.113,0.761l-0.838-0.239c0.021-0.136,0.01-0.246-0.041-0.328c-0.049-0.083-0.137-0.146-0.26-0.189
		c-0.102-0.036-0.186-0.041-0.252-0.016c-0.066,0.025-0.111,0.069-0.133,0.131c-0.016,0.045-0.008,0.092,0.02,0.143
		c0.027,0.052,0.113,0.121,0.256,0.207c0.354,0.216,0.598,0.396,0.732,0.538c0.137,0.142,0.221,0.288,0.252,0.44
		c0.031,0.151,0.02,0.304-0.033,0.458c-0.064,0.181-0.172,0.331-0.326,0.449c-0.154,0.118-0.336,0.186-0.543,0.201
		c-0.207,0.016-0.449-0.023-0.723-0.12c-0.48-0.168-0.781-0.378-0.902-0.627C35.023,21.965,35,21.693,35.076,21.399L35.076,21.399z
		 M39.318,20.99l0.789,0.491l-1.584,2.545l-0.789-0.491L39.318,20.99L39.318,20.99z M40.998,22.042l2.055,1.93l-0.508,0.54
		l-0.689-0.648l-1.547,1.645l-0.674-0.634l1.547-1.645l-0.691-0.648L40.998,22.042L40.998,22.042z M42.478,27.567l-0.574-0.878
		l-0.496,0.144l-0.518-0.792l3.127-0.697l0.555,0.849l-1.895,2.582l-0.531-0.812L42.478,27.567L42.478,27.567z M42.914,27.047
		l0.723-0.864l-1.082,0.315L42.914,27.047L42.914,27.047z M43.607,28.672l0.301,0.828c-0.131,0.059-0.225,0.127-0.277,0.204
		c-0.09,0.126-0.109,0.274-0.059,0.444c0.037,0.126,0.096,0.216,0.176,0.266c0.078,0.052,0.158,0.065,0.236,0.042
		c0.074-0.022,0.133-0.074,0.172-0.156c0.039-0.083,0.049-0.25,0.033-0.503c-0.029-0.415,0.006-0.727,0.102-0.936
		c0.096-0.21,0.256-0.348,0.48-0.415c0.148-0.043,0.299-0.042,0.455,0.005c0.158,0.047,0.299,0.145,0.426,0.295
		c0.125,0.15,0.232,0.375,0.32,0.674c0.107,0.368,0.123,0.667,0.043,0.901c-0.08,0.233-0.264,0.412-0.553,0.537l-0.295-0.821
		c0.123-0.061,0.205-0.135,0.242-0.224c0.039-0.089,0.039-0.196,0.002-0.321c-0.029-0.103-0.074-0.175-0.135-0.214
		c-0.059-0.04-0.119-0.049-0.182-0.031c-0.047,0.014-0.08,0.047-0.105,0.1c-0.025,0.052-0.031,0.162-0.018,0.328
		c0.031,0.413,0.027,0.716-0.008,0.909c-0.037,0.193-0.107,0.347-0.211,0.461s-0.234,0.194-0.393,0.24
		c-0.184,0.054-0.369,0.054-0.555-0.002c-0.186-0.057-0.346-0.164-0.48-0.323c-0.135-0.159-0.242-0.378-0.324-0.656
		c-0.145-0.488-0.15-0.855-0.018-1.099S43.324,28.783,43.607,28.672L43.607,28.672z"/>
	<path fill="#FFFFFF" d="M19.94,37.332l0.385,0.727c-0.113,0.071-0.191,0.146-0.231,0.224c-0.066,0.127-0.065,0.267,0.003,0.417
		c0.051,0.112,0.116,0.187,0.196,0.224c0.08,0.037,0.155,0.04,0.224,0.009c0.066-0.03,0.112-0.085,0.139-0.167
		s0.014-0.237-0.034-0.469c-0.079-0.38-0.087-0.672-0.024-0.878c0.061-0.206,0.191-0.354,0.391-0.444
		c0.13-0.059,0.271-0.077,0.421-0.054c0.151,0.023,0.294,0.096,0.43,0.218s0.263,0.316,0.383,0.582
		c0.147,0.325,0.199,0.601,0.155,0.827c-0.044,0.226-0.191,0.414-0.441,0.566l-0.378-0.72c0.107-0.072,0.172-0.152,0.196-0.238
		c0.024-0.087,0.011-0.186-0.04-0.297c-0.042-0.091-0.092-0.152-0.152-0.181s-0.118-0.031-0.173-0.005
		c-0.041,0.018-0.068,0.054-0.084,0.106c-0.018,0.051-0.009,0.153,0.025,0.305c0.082,0.377,0.118,0.658,0.109,0.84
		c-0.009,0.183-0.054,0.334-0.136,0.453c-0.082,0.118-0.192,0.209-0.331,0.272c-0.164,0.074-0.334,0.097-0.514,0.069
		c-0.179-0.028-0.34-0.107-0.485-0.237c-0.144-0.129-0.272-0.317-0.384-0.564c-0.195-0.433-0.248-0.771-0.156-1.013
		S19.693,37.47,19.94,37.332L19.94,37.332z M21.216,41.644l2.116-1.829l0.941,1.09c0.175,0.202,0.291,0.372,0.348,0.508
		c0.058,0.136,0.067,0.278,0.031,0.425c-0.038,0.146-0.124,0.278-0.259,0.395c-0.117,0.102-0.24,0.164-0.369,0.188
		c-0.128,0.024-0.257,0.015-0.386-0.027c-0.082-0.027-0.176-0.08-0.283-0.157c0.042,0.1,0.065,0.179,0.069,0.237
		c0.003,0.039-0.004,0.105-0.021,0.201c-0.017,0.094-0.035,0.163-0.053,0.205l-0.336,0.846l-0.639-0.739l0.344-0.907
		c0.045-0.117,0.065-0.203,0.061-0.259c-0.008-0.075-0.038-0.143-0.09-0.203l-0.05-0.058L21.783,42.3L21.216,41.644L21.216,41.644z
		 M23.04,41.214l0.238,0.276c0.026,0.03,0.086,0.079,0.179,0.148c0.046,0.036,0.099,0.053,0.158,0.049s0.112-0.025,0.159-0.065
		c0.068-0.059,0.103-0.126,0.102-0.201c0-0.075-0.053-0.172-0.156-0.292l-0.249-0.288L23.04,41.214L23.04,41.214z M26.02,42.398
		l0.731,0.466l-1.504,2.358l-0.731-0.466L26.02,42.398L26.02,42.398z M27.606,43.463l0.789,0.226L28.25,45.27l0.845-1.381
		l0.783,0.224l-0.011,1.622l0.715-1.421l0.785,0.225l-1.362,2.52l-0.815-0.233l0.013-1.828l-0.954,1.559l-0.813-0.232L27.606,43.463
		L27.606,43.463z M32.375,44.374l0.867-0.02l0.063,2.796l-0.867,0.02L32.375,44.374L32.375,44.374z M35.744,43.854l0.834-0.239
		l0.418,1.46c0.088,0.307,0.127,0.548,0.119,0.724c-0.01,0.176-0.08,0.343-0.213,0.501s-0.328,0.273-0.584,0.348
		c-0.271,0.077-0.492,0.101-0.662,0.07c-0.172-0.03-0.316-0.104-0.439-0.223c-0.121-0.118-0.219-0.278-0.293-0.482l0.762-0.335
		c0.035,0.118,0.07,0.202,0.105,0.254c0.037,0.052,0.082,0.088,0.141,0.11c0.037,0.014,0.086,0.013,0.145-0.005
		c0.094-0.026,0.152-0.08,0.176-0.161c0.023-0.082,0.012-0.204-0.033-0.368L35.744,43.854L35.744,43.854z M40.32,44.131l-0.822,0.53
		l0.131,0.464l-0.742,0.477l-0.627-2.921l0.795-0.512l2.395,1.785l-0.76,0.49L40.32,44.131L40.32,44.131z M39.839,43.721
		l-0.801-0.68l0.285,1.011L39.839,43.721L39.839,43.721z M40.097,41.409l0.592-0.754l1.09,0.136l-0.393-1.024l0.588-0.751
		l0.609,1.858l0.922,0.723l-0.535,0.682l-0.922-0.723L40.097,41.409L40.097,41.409z M45.06,37.738l-0.355,0.912l0.377,0.299
		l-0.32,0.821l-2.223-1.999l0.344-0.881l2.988,0.042l-0.33,0.843L45.06,37.738L45.06,37.738z M44.429,37.688l-1.047-0.082
		l0.824,0.651L44.429,37.688L44.429,37.688z"/>
	<path fill-rule="evenodd" clip-rule="evenodd" fill="#111111" d="M7.425,67.743c12.876,5.676,36.811,5.676,49.688,0
		c-0.441-1.537-0.885-3.075-1.328-4.612c-14.545,5.472-32.486,5.472-47.032,0C8.31,64.668,7.867,66.206,7.425,67.743L7.425,67.743z
		 M56.222,62.781c-0.809-0.017-1.619-0.034-2.428-0.052c2.982-0.991,5.914-2.183,8.805-3.547c-0.297,0.903-0.594,1.806-0.891,2.708
		c0.943,0.6,1.887,1.199,2.83,1.8c-2.314,1.196-4.686,2.269-7.234,2.952C56.945,65.355,56.583,64.068,56.222,62.781L56.222,62.781z
		 M54.423,63.253l-1.207-0.087l0.123,0.489L54.423,63.253L54.423,63.253z M8.316,62.781c0.809-0.017,1.619-0.034,2.428-0.052
		c-2.982-0.991-5.915-2.183-8.805-3.547c0.297,0.903,0.594,1.806,0.891,2.708c-0.943,0.6-1.887,1.199-2.83,1.8
		c2.314,1.196,4.686,2.269,7.233,2.952C7.594,65.355,7.955,64.068,8.316,62.781L8.316,62.781z M10.115,63.253l1.206-0.087
		l-0.123,0.489L10.115,63.253L10.115,63.253z"/>
	<path fill="#CE8944" d="M9.699,65.159l0.617,0.229L9.577,67.38L8.96,67.151L9.699,65.159L9.699,65.159z M11.072,65.652l0.623,0.206
		l-0.503,1.521l0.975,0.322l-0.164,0.496l-1.597-0.528L11.072,65.652L11.072,65.652z M13.217,66.319l0.837,0.221l-0.009,1.334
		l0.648-1.167l0.833,0.219l-0.539,2.055l-0.52-0.136l0.411-1.566l-0.812,1.462l-0.47-0.124l0.011-1.672l-0.411,1.567l-0.52-0.137
		L13.217,66.319L13.217,66.319z M17.579,67.339l0.643,0.131l-0.254,1.24c-0.025,0.122-0.068,0.234-0.129,0.336
		c-0.061,0.102-0.14,0.185-0.239,0.25c-0.099,0.064-0.196,0.104-0.293,0.12c-0.134,0.02-0.289,0.013-0.464-0.023
		c-0.102-0.021-0.21-0.051-0.327-0.089c-0.117-0.039-0.211-0.088-0.283-0.146s-0.133-0.133-0.184-0.224
		c-0.051-0.092-0.08-0.181-0.087-0.269c-0.013-0.141-0.009-0.262,0.012-0.363l0.254-1.24l0.643,0.132l-0.26,1.27
		c-0.023,0.113-0.01,0.208,0.04,0.284c0.05,0.077,0.131,0.127,0.242,0.149c0.11,0.023,0.203,0.009,0.279-0.041
		s0.125-0.133,0.149-0.248L17.579,67.339L17.579,67.339z M20.941,69.684l-0.737-0.098l-0.151,0.333l-0.665-0.087l1.07-2.002
		l0.712,0.094l0.512,2.21l-0.682-0.09L20.941,69.684L20.941,69.684z M20.864,69.209l-0.13-0.787l-0.331,0.727L20.864,69.209
		L20.864,69.209z M22.524,68.098l0.652,0.071l-0.175,1.593l1.021,0.112l-0.057,0.52l-1.672-0.185L22.524,68.098L22.524,68.098z
		 M25.993,70.205l-0.742-0.051l-0.13,0.343l-0.668-0.046l0.943-2.064l0.717,0.049l0.649,2.174l-0.686-0.047L25.993,70.205
		L25.993,70.205z M25.886,69.737l-0.179-0.777l-0.285,0.745L25.886,69.737L25.886,69.737z M27.125,68.507l1.995,0.097l-0.025,0.524
		l-0.669-0.032l-0.078,1.598l-0.655-0.032l0.078-1.598l-0.67-0.032L27.125,68.507L27.125,68.507z M30.725,68.643l1.091,0.012
		c0.238,0.002,0.416,0.06,0.533,0.174c0.117,0.115,0.176,0.276,0.174,0.485c-0.002,0.215-0.068,0.382-0.199,0.502
		c-0.13,0.12-0.328,0.179-0.593,0.176l-0.36-0.003l-0.007,0.785l-0.659-0.006L30.725,68.643L30.725,68.643z M31.375,69.558
		l0.162,0.001c0.127,0.002,0.217-0.02,0.269-0.063c0.052-0.043,0.078-0.1,0.079-0.168c0-0.067-0.021-0.123-0.066-0.171
		c-0.043-0.046-0.127-0.07-0.251-0.071l-0.188-0.002L31.375,69.558L31.375,69.558z M33.197,68.664l1.754-0.051l0.014,0.453
		l-1.098,0.032l0.01,0.338l1.018-0.029l0.014,0.433l-1.018,0.029l0.012,0.419l1.131-0.033l0.014,0.48l-1.789,0.052L33.197,68.664
		L33.197,68.664z M35.708,68.59l0.613-0.03l0.852,1.133l-0.057-1.171l0.619-0.03l0.104,2.122l-0.619,0.03l-0.848-1.127l0.057,1.165
		l-0.617,0.03L35.708,68.59L35.708,68.59z M39.677,69.696l-0.039-0.44l1.01-0.09l0.08,0.9c-0.182,0.149-0.344,0.254-0.488,0.315
		c-0.145,0.061-0.318,0.101-0.523,0.118c-0.25,0.022-0.459-0.002-0.625-0.074c-0.166-0.071-0.299-0.188-0.402-0.35
		c-0.102-0.161-0.162-0.352-0.182-0.57c-0.021-0.231,0.01-0.437,0.09-0.615c0.08-0.18,0.207-0.321,0.383-0.426
		c0.139-0.082,0.328-0.133,0.57-0.154c0.232-0.021,0.41-0.015,0.529,0.017c0.121,0.032,0.223,0.089,0.307,0.172
		c0.084,0.082,0.152,0.19,0.201,0.323l-0.619,0.169c-0.033-0.078-0.082-0.136-0.148-0.173c-0.064-0.037-0.146-0.051-0.242-0.043
		c-0.143,0.013-0.254,0.073-0.33,0.18c-0.076,0.107-0.104,0.269-0.084,0.484c0.02,0.229,0.076,0.388,0.172,0.479
		c0.094,0.09,0.219,0.129,0.373,0.115c0.072-0.007,0.141-0.023,0.205-0.05c0.064-0.027,0.137-0.07,0.219-0.128l-0.018-0.198
		L39.677,69.696L39.677,69.696z M42.8,69.788l-0.738,0.098l-0.061,0.36l-0.664,0.088l0.516-2.211l0.713-0.094l1.066,2.002
		l-0.682,0.09L42.8,69.788L42.8,69.788z M42.601,69.351l-0.328-0.727l-0.133,0.787L42.601,69.351L42.601,69.351z M43.919,67.849
		l1.215-0.188c0.203-0.031,0.365-0.005,0.49,0.078c0.123,0.084,0.197,0.2,0.221,0.348c0.018,0.124-0.004,0.236-0.068,0.337
		c-0.041,0.068-0.109,0.126-0.203,0.176c0.156,0.014,0.275,0.058,0.361,0.136c0.084,0.077,0.137,0.183,0.158,0.316
		c0.016,0.108,0.006,0.21-0.031,0.305c-0.037,0.096-0.096,0.175-0.176,0.239c-0.049,0.039-0.127,0.075-0.236,0.106
		c-0.143,0.041-0.238,0.066-0.285,0.073l-1.121,0.174L43.919,67.849L43.919,67.849z M44.701,68.571l0.283-0.044
		c0.102-0.016,0.17-0.044,0.203-0.085c0.035-0.041,0.047-0.095,0.037-0.161c-0.01-0.061-0.037-0.105-0.082-0.134
		s-0.117-0.034-0.217-0.02l-0.287,0.045L44.701,68.571L44.701,68.571z M44.828,69.396l0.332-0.052
		c0.111-0.017,0.188-0.049,0.227-0.096s0.055-0.104,0.045-0.17c-0.01-0.063-0.041-0.108-0.092-0.139
		c-0.051-0.031-0.133-0.038-0.248-0.021l-0.328,0.052L44.828,69.396L44.828,69.396z M46.503,67.432l0.957-0.196
		c0.188-0.038,0.346-0.044,0.471-0.017c0.127,0.027,0.238,0.081,0.334,0.161c0.096,0.081,0.172,0.18,0.232,0.3
		s0.105,0.251,0.135,0.393c0.045,0.223,0.055,0.4,0.029,0.533s-0.074,0.25-0.148,0.352c-0.072,0.102-0.158,0.176-0.256,0.225
		c-0.133,0.066-0.256,0.112-0.371,0.136l-0.955,0.195L46.503,67.432L46.503,67.432z M47.244,67.771l0.232,1.137l0.158-0.032
		c0.135-0.027,0.227-0.063,0.277-0.104s0.086-0.103,0.102-0.184c0.018-0.081,0.01-0.204-0.025-0.371
		c-0.045-0.221-0.111-0.363-0.199-0.431c-0.09-0.066-0.217-0.083-0.385-0.048L47.244,67.771L47.244,67.771z M49.123,66.875
		l0.641-0.149l0.482,2.069l-0.643,0.149L49.123,66.875L49.123,66.875z M52.253,67.892l-0.713,0.211l-0.004,0.366l-0.643,0.189
		l0.166-2.264l0.689-0.204l1.365,1.813l-0.66,0.194L52.253,67.892L52.253,67.892z M51.99,67.49l-0.438-0.667l-0.008,0.799
		L51.99,67.49L51.99,67.49z M52.976,65.851l0.574-0.214l1.156,0.823l-0.408-1.1l0.58-0.216l0.74,1.991l-0.582,0.216l-1.148-0.817
		l0.406,1.094l-0.58,0.214L52.976,65.851L52.976,65.851z"/>
	<path fill-rule="evenodd" clip-rule="evenodd" fill="#003399" d="M32.384,23.564c5.344,0,9.678,4.333,9.678,9.676
		c0,5.343-4.334,9.676-9.678,9.676c-5.342,0-9.675-4.333-9.675-9.676C22.709,27.897,27.042,23.564,32.384,23.564L32.384,23.564z
		 M31.069,26.265c-0.009-0.131-0.036-0.267-0.065-0.396c-0.075-0.329-0.131-0.285-0.242-0.313c-0.192,0.28,0.226,0.932-0.016,1.405
		c-0.209-0.042-0.153-0.193-0.234-0.375l-0.426-0.828c-0.087-0.202-0.026-0.322-0.203-0.389c-0.148,0.307,0.09,0.365,0.163,0.941
		c0.051,0.403,0.209,0.567,0.183,0.971c-0.503,0.028-0.318-0.408-0.623-0.495c-0.185,0.237,0.073,0.512,0.072,0.819
		c-0.289-0.01-0.315-0.089-0.455-0.287c-0.281-0.397-0.224-0.365-0.437-0.406l0.01,0.374c0.091,0.061-0.004-0.051,0.103,0.12
		c0.195,0.312,0.151,0.572-0.061,0.438l-0.362-0.378c-0.407-0.565-0.469-0.578-0.918-1.123c-0.115-0.139-0.195-0.158-0.265-0.24
		c-0.109-0.129-0.014-0.145-0.184-0.271c-0.122,0.17-0.035,0.208,0.072,0.335l0.917,1.441c0.086,0.138,0.106,0.117,0.179,0.281
		c0.063,0.142,0.034,0.18,0.147,0.272c-0.445,0.122-0.706-0.604-1.203-0.695c0.021,0.387,0.376,0.601,0.586,0.943
		c0.189,0.309,0.095,0.251,0.075,0.271c-0.209,0.203-1.514-1.17-1.873-1.18c0.03,0.203-0.031,0.002,0.104,0.217l0.047,0.072
		l0.161,0.177c0.174,0.083,0.195,0.16,0.341,0.291l0.468,0.458c0.143,0.13,0.183,0.085,0.262,0.337
		c0.082,0.263,0.003,0.15-0.107,0.107c-0.681-0.263-0.741-0.549-1.186-0.592c0.075,0.573,1.04,0.745,0.983,1.254
		c-0.354,0.003-0.344-0.106-0.652-0.139c0.065,0.565,0.334,0.143,0.321,0.689c-0.444,0.027-0.895-0.307-1.111-0.201l0.204,0.199
		c0.087,0.085,0.059,0.085,0.199,0.142c0.347,0.156,0.212,0.244,0.489,0.43c-0.505,0.308-1.836-0.624-2.227-0.309
		c0.108,0.199,0.086,0.083,0.437,0.218c0.207,0.079,0.292,0.111,0.516,0.186c0.192,0.063,0.266,0.148,0.445,0.216
		c0.228,0.086,0.377,0.049,0.372,0.298c-0.432,0.234-0.918-0.106-1.206,0.1c0.1,0.174,0.242,0.082,0.59,0.256
		c0.096,0.048,0.168,0.087,0.288,0.125c0.169,0.054,0.232,0.044,0.299,0.174c-0.138,0.189-0.458,0.167-0.744,0.152
		c-0.154-0.008-0.31-0.023-0.464-0.031c-0.058-0.003-0.179-0.009-0.232,0.003c-0.143,0.035-0.097-0.007-0.158,0.106
		c0.085,0.104,0.038,0.079,0.417,0.121c0.636,0.07,0.774,0.021,1.106,0.375c-0.326,0.244-1.109,0.138-1.243,0.199
		c-0.162,0.075-0.055-0.045-0.091,0.139c0.408,0.196,1.061-0.005,1.438,0.193c-0.108,0.35-0.384,0.369-0.46,0.394
		c-0.237,0.079-0.134,0.015-0.192,0.177l0.528,0.021c0.169,0.019,0.352,0.091,0.147,0.282c-0.069,0.065-0.207,0.092-0.301,0.125
		c-0.247,0.087-0.448,0.149-0.516,0.288c0.012,0.008,0.03,0.003,0.038,0.02c0.035,0.078,0.34,0.033,0.43,0.015
		c0.792-0.158,0.383,0.467-0.177,0.427c-0.007,0.007-0.019,0.008-0.022,0.021s-0.018,0.017-0.023,0.021
		c-0.184,0.136-1.018,0.392-1.215,0.539c0.24,0.242,0.729,0.001,1.014-0.086c0.319-0.098,0.636-0.167,0.924-0.236l0.081,0.093
		c-0.164,0.254,0.181,0.017-0.409,0.403c-0.505,0.331-0.483,0.156-0.548,0.4c0.186,0.133,0.476-0.002,0.657-0.105
		c0.16-0.09,0.424-0.169,0.624-0.05c-0.001,0.183-0.49,0.45-0.665,0.563c-0.335,0.215-0.219,0.214-0.574,0.405
		c-0.137,0.074-0.122,0.041-0.164,0.207c0.367,0.012,0.286-0.027,0.498-0.153c0.193-0.115,0.261-0.083,0.461-0.23
		c0.182-0.133,0.253-0.108,0.437-0.21c0.182-0.101,0.22-0.214,0.388-0.01C26.946,37,25.739,37.9,25.65,38.098
		c0.259,0.012,0.139,0.005,0.497-0.207c0.154-0.091,0.307-0.181,0.461-0.272c0.191-0.112,0.256-0.175,0.444-0.295
		c0.15-0.096,0.288-0.229,0.465-0.083c-0.015,0.244-0.297,0.337-0.336,0.668c0.438,0.009,0.278-0.177,0.55-0.234
		c0.174-0.037,0.131-0.017,0.205,0.033c0.188,0.192-0.432,0.538-0.453,0.964c0.328,0.009,0.298-0.245,0.658-0.443
		c0.216-0.12,0.375-0.104,0.189,0.234c-0.23,0.416-1.246,1.857-1.269,2.156c0.169-0.05,0.521-0.525,0.661-0.685
		c0.219-0.249,0.391-0.506,0.612-0.773l0.353-0.393c0.056-0.053,0.073-0.085,0.168-0.069c0.247,0.041,0.033,0.227-0.02,0.366
		c-0.052,0.14-0.018,0.152-0.093,0.278c-0.143,0.24-0.189,0.152-0.179,0.558c0.18-0.026,0.157-0.042,0.301-0.117
		c0.008-0.123-0.006-0.057,0.056-0.139c0.063-0.209,0.401-0.598,0.411-0.604c0.18-0.132,0.205-0.018,0.227,0.008
		c0.143,0.259-0.6,1.416-0.508,1.819c0.156-0.072,0.152-0.257,0.25-0.41l0.49-0.903c0.097-0.196,0.196-0.212,0.398-0.258
		c-0.014,0.213-0.098,0.576-0.146,0.83c-0.059,0.318-0.194,0.464-0.176,0.833l0.626-1.257c0.068-0.179,0.105-0.395,0.31-0.289
		c0.207,0.201-0.075,0.456,0.143,0.686c0.207-0.204,0.132-0.43,0.504-0.671c0.248,0.304,0.085,0.556,0.13,0.817l0.059,0.16
		c0.161-0.036,0.114-0.093,0.189-0.205c-0.031-0.252,0.024-0.378,0.141-0.539c0.424,0.091,0.299,0.497,0.286,0.913l0.076,0.863
		c0.055,0.335-0.01,0.155,0.141,0.222c0.164-0.288-0.043-1.429,0.234-1.962c0.254,0.113,0.414,0.622,0.395,1
		c0.072,0.083,0.01,0.149,0.158,0.224c0.211-0.309-0.09-1.021,0.184-1.262c0.262,0.087,0.465,1.192,0.465,1.192
		c0.096,0.184-0.064,0.077,0.184,0.119c0.033-0.054,0.084,0.024,0.033-0.369c-0.068-0.538-0.188-0.838-0.01-1.068
		c0.283,0.089,0.199,0.328,0.344,0.573c0.092,0.155,0.129,0.109,0.168,0.332c0.051,0.272-0.014,0.292,0.205,0.34
		c0.27-0.437-0.492-1.249-0.123-1.667l0.381,0.408c0.127,0.155-0.008,0.1,0.229,0.153c0.016-0.473-0.268-0.639-0.104-0.801
		c0.141-0.098,0.395,0.198,0.441,0.271c0.064,0.099,0.094,0.139,0.166,0.247c0.145,0.218,0.041,0.189,0.283,0.235
		c-0.008-0.423-0.348-0.726-0.199-0.939c0.168-0.126,0.184-0.019,0.281,0.108c0.096,0.125,0.164,0.151,0.246,0.265
		c0.1,0.138,0.08,0.162,0.211,0.297l0.439,0.55c0.004,0.009,0.01,0.022,0.014,0.032c0.131,0.249,0.051,0.047,0.242,0.249
		c0.148,0.157,0.029,0.122,0.254,0.3c0.186,0.149,0.104,0.134,0.244,0.22c-0.018-0.282-0.484-0.872-0.65-1.147
		c-0.275-0.456-0.635-0.859-0.607-1.062c0.029-0.211,0.15-0.215,0.32-0.047l0.426,0.41c0.135,0.132,0.113,0.146,0.348,0.163
		c-0.066-0.453-0.842-0.94-0.664-1.311c0.152,0.051,1.051,0.738,1.172,0.849c0.111,0.103,0.299,0.236,0.453,0.264
		c-0.027-0.208-0.441-0.661-0.615-0.798c-0.145-0.114-0.57-0.454-0.578-0.655c-0.008-0.196,0.041-0.179,0.398,0.053l1.041,0.615
		c0.104,0.056,0.102,0.09,0.232,0.106c-0.016-0.145-0.07-0.161-0.191-0.277c-0.236-0.226-1.188-0.92-1.201-1.164
		c0.393-0.225,0.602,0.244,0.881,0.119c-0.111-0.358-0.586-0.362-0.6-0.647c0.334-0.242,0.523,0.031,0.76,0.012
		c0.24-0.02,0.074,0.01,0.17-0.058c-0.063-0.278-0.145-0.154-0.332-0.303c-0.059-0.045-0.459-0.571,0.287-0.283
		c0.164,0.064,0.375,0.097,0.529,0.128c0.318,0.063,0.504,0.185,0.73,0.207c0.303,0.029,0.295-0.057,0.314-0.072
		c-0.107-0.269-0.402-0.153-0.621-0.379c-0.24,0.02-0.469-0.083-0.664-0.17c-0.273-0.12-0.34-0.188-0.395-0.451l1.043,0.049
		c0.313-0.062-0.258,0.096,0.084-0.026l0.076-0.041c-0.086-0.135-0.107-0.108-0.293-0.142c-0.117-0.022-0.225-0.042-0.336-0.086
		c-0.156-0.059-0.459-0.179-0.547-0.327c0.191-0.226,0.811-0.138,1.156-0.115c0.041,0.003,0.199,0.007,0.232-0.001
		c0.145-0.036,0.1,0.002,0.164-0.115l-0.24-0.138c-0.012-0.004-0.027-0.009-0.039-0.018l-0.049,0.031
		c-0.35,0.009-0.979-0.012-1.076-0.292c0.143-0.399,1.178-0.085,1.463-0.37c-0.406-0.279-1.32,0.101-1.643-0.282
		c0.088-0.409,0.447-0.206,0.641-0.458c-0.1-0.087-0.09-0.059-0.156-0.07c-0.223-0.037-0.555,0.052-0.633-0.208
		c0.166-0.275,0.695-0.095,0.836-0.514c-0.26-0.022-0.586,0.044-0.797-0.045c-0.121-0.264,0.201-0.362,0.443-0.35l1.049-0.458
		c0.361-0.132,0.246-0.038,0.299-0.205c-0.266-0.186-0.658,0.033-1.006,0.132c-0.27,0.078-0.637,0.179-0.949,0.174
		c0.033-0.259,0.207-0.327,0.439-0.445c0.158-0.08,0.152-0.114,0.279-0.182c0.201-0.106,0.211-0.016,0.26-0.233
		c-0.182-0.114-0.469,0.016-0.654,0.11c-0.197,0.101-0.365,0.167-0.637,0.087c-0.025-0.246,0.574-0.567,0.791-0.651l0.059-0.024
		l0.24-0.25c0.16-0.156,0.137-0.039,0.189-0.258c-0.193,0.008-0.664,0.236-0.832,0.354c-0.193,0.135-0.225,0.07-0.389,0.165
		c-0.139,0.081-0.145,0.242-0.367,0.098c-0.107-0.128,0.523-0.638,0.752-0.867c0.178-0.176,0.217-0.033,0.277-0.304
		c-0.5,0.013-1.16,0.768-1.563,0.724l0.057-0.521l-0.469,0.059l-0.096-0.108c0.018-0.165,0.082-0.166,0.166-0.273
		c0.137-0.175,0.047-0.159,0.215-0.271l-0.014-0.01c0.031-0.094,0.051-0.17,0.061-0.306c-0.41,0.088-0.512,0.459-0.848,0.427
		c-0.021-0.271,0.027-0.192,0.139-0.38l1.02-1.566c0.135-0.192,0.328-0.448,0.326-0.646c-0.154,0.023-0.16,0.091-0.205,0.157
		l-0.502,0.617c-0.109,0.133-0.121,0.166-0.232,0.271c-0.225,0.214-0.682,0.974-0.98,1.041c-0.24-0.234,0.002-0.289,0.123-0.603
		l0.23-0.517c0.057-0.264,0.01-0.119-0.029-0.188c-0.273,0.066-0.641,0.796-0.725,0.877c-0.01,0.009-0.225,0.155-0.27,0.1
		c-0.139-0.17,0.219-0.791,0.289-0.993c0.041-0.119,0.047-0.16,0.084-0.281c0.063-0.198,0.268-0.511,0.158-0.76
		c-0.154,0.061-0.684,1.325-0.773,1.47c-0.094,0.149-0.229,0.188-0.314,0.378c-0.156-0.246-0.047-0.572,0.074-0.855
		c0.016-0.375,0.041-0.314-0.049-0.445c-0.424,0.167-0.201,1.136-0.828,1.138c-0.045-0.174,0.014-0.447-0.051-0.602
		c-0.443,0.053-0.063,0.323-0.463,0.545c-0.336-0.28-0.012-0.666-0.23-0.983c-0.113,0.081-0.117,0.311-0.207,0.468
		c-0.055,0.096-0.17,0.28-0.256,0.325c-0.365-0.181-0.061-1.631-0.277-2.001c-0.17,0.078-0.064-0.121-0.137,0.176
		c-0.01,0.043-0.014,0.205-0.02,0.264c-0.041,0.447-0.029,1.233-0.141,1.418c-0.216-0.016-0.331-0.179-0.369-0.434
		c-0.018-0.122-0.018-0.242-0.034-0.368c-0.034-0.256,0.004-0.231-0.178-0.264c-0.006,0.012-0.013,0.028-0.016,0.039l-0.035,0.124
		c-0.005,0.036-0.004,0.144-0.004,0.184c0.008,0.413,0.104,0.709-0.13,0.867C31.29,26.75,31.111,26.485,31.069,26.265L31.069,26.265
		z"/>
</g>
</svg>
