<svg id="Layer_1" data-name="Layer 1" xmlns="http://www.w3.org/2000/svg" viewBox="0 0 1742.95 447.72"><defs><style>.cls-1{fill:#51b848;}.cls-2{fill:#333;}</style></defs><title>Design Brief [Recovered]</title><path class="cls-1" d="M189.36,179c39,73.15,102.64,25.23,102.64,25.23C263.58,130.87,189.36,179,189.36,179Zm14.51,4.37s50-31.36,75.38,16.55C279.25,199.92,239.52,234.63,203.87,183.37Z"/><path class="cls-1" d="M246.57,220.13a55.73,55.73,0,0,1-12.17-1.31c-18.35-4.06-33.65-17.38-45.48-39.59l-.22-.4.39-.25c.36-.24,36.12-23.08,67.3-13,16.06,5.19,28.2,18.13,36.07,38.45l.14.35-.3.23C292.06,204.81,271.38,220.13,246.57,220.13Zm-56.55-41c11.66,21.69,26.66,34.71,44.59,38.68,27.72,6.13,53.69-11.59,56.78-13.8-7.76-19.81-19.64-32.43-35.3-37.5C227.1,157.16,194,176.73,190,179.17Zm58.07,32.73a42.08,42.08,0,0,1-5.08-.31c-14.6-1.8-27.91-11.2-39.55-27.94l-.3-.43.44-.27c.24-.15,23.92-14.77,46.8-8.65,12.24,3.28,22.1,11.82,29.29,25.39l.18.35-.3.26C279.43,200.43,266.07,211.9,248.09,211.9Zm-43.5-28.38c11.39,16.22,24.35,25.33,38.53,27.08,18.49,2.28,33.22-9,35.49-10.8-7-13.11-16.61-21.36-28.46-24.53C229.4,169.72,208,181.56,204.59,183.52Z"/><path class="cls-2" d="M473.37,201.67h27V318.22h-27V306q-16.64,15.56-35.78,15.55-24.16,0-40-17.47Q381.95,286.28,382,259.59q0-26.2,15.67-43.68t39.25-17.47q20.34,0,36.5,16.75Zm-63.9,57.92q0,16.76,9,27.28a29.42,29.42,0,0,0,23.22,10.65q15,0,24.17-10.29,9.21-10.65,9.21-27t-9.21-27.05q-9.21-10.41-23.93-10.41a29.81,29.81,0,0,0-23.22,10.53Q409.47,243.91,409.47,259.59Z"/><path class="cls-2" d="M526.55,201.67h26.93v10.77q7.77-8.13,13.28-11,5.87-3,14.72-3,19.74,0,31.23,17.23,12.67-17.22,34.34-17.23,39.38,0,39.37,47.75v72h-27V253.49q0-16.76-4.07-23.7t-13.76-7.06q-11.13,0-16.22,8.38T620.25,258v60.19h-27V253.84q0-31.11-18-31.11-11.37,0-16.58,8.5t-5.2,26.8v60.19H526.55Z"/><path class="cls-2" d="M798.48,201.67h27V318.22h-27V306q-16.63,15.56-35.78,15.55-24.16,0-40-17.47-15.68-17.82-15.67-44.51,0-26.2,15.67-43.68T762,198.44q20.34,0,36.5,16.75Zm-63.9,57.92q0,16.76,9,27.28a29.42,29.42,0,0,0,23.22,10.65q15,0,24.17-10.29,9.21-10.65,9.21-27t-9.21-27.05q-9.21-10.41-23.93-10.41a29.81,29.81,0,0,0-23.22,10.53Q734.58,243.91,734.58,259.59Z"/><path class="cls-2" d="M851.66,201.67h27.05v10.77q14.12-14,31.83-14,20.34,0,31.71,12.81,9.81,10.88,9.81,35.53v71.44H925V253.13q0-17.24-4.78-23.82t-17-6.7q-13.41,0-19,8.86T878.71,262v56.24H851.66Z"/><path class="cls-2" d="M1096.9,161.64l-22,13q-6.35-11-12.09-14.35-6-3.84-15.44-3.83-11.61,0-19.26,6.58a20.39,20.39,0,0,0-7.66,16.27q0,13.53,20.1,21.78l18.43,7.54q22.5,9.09,32.91,22.2T1102.34,263q0,25.5-17,42.13t-42.48,16.75q-24.06,0-39.73-14.24-15.23-14-19.16-39.37a.77.77,0,0,1,.6-.87l26.73-5.89a.75.75,0,0,1,.9.65q1.95,15.61,6.61,21.67,8.61,12,25.12,12,13.05,0,21.66-8.73t8.62-22.14a31,31,0,0,0-1.5-9.87,25,25,0,0,0-4.67-8.26,37.15,37.15,0,0,0-8.19-7.06,78.8,78.8,0,0,0-12-6.28L1030.06,226q-37.93-16-37.93-46.91,0-20.82,15.92-34.82t39.6-14.12q31.61,0,49.51,30.45A.76.76,0,0,1,1096.9,161.64Z"/><path class="cls-2" d="M1118.91,153.48a17.57,17.57,0,0,1,17.47-17.36,17,17,0,0,1,12.44,5.15A16.57,16.57,0,0,1,1154,153.6a17,17,0,0,1-5.15,12.44,16.71,16.71,0,0,1-13.44,5.12,17.56,17.56,0,0,1-16.47-17.68Zm31,48.46V318.49H1123V201.94Z"/><path class="cls-2" d="M1243.89,221.8l-22.26,11.85q-5.27-10.77-13-10.77a9,9,0,0,0-6.34,2.45,8.2,8.2,0,0,0-2.64,6.28q0,6.7,15.56,13.29,21.42,9.21,28.84,17t7.42,20.94A36.69,36.69,0,0,1,1239,311.07q-12.09,10.77-29.2,10.77-29.31,0-41.52-28.6l23-10.65c3.19,5.59,5.62,9.13,7.3,10.65a16.66,16.66,0,0,0,11.72,4.55q13.65,0,13.64-12.45,0-7.17-10.49-13.38l-.07,0q-4-2-8.1-3.93T1197,264q-11.73-5.75-16.51-11.48-6.1-7.31-6.1-18.79,0-15.2,10.41-25.13a36.49,36.49,0,0,1,25.84-9.93Q1233,198.71,1243.89,221.8Z"/><path class="cls-2" d="M1282.35,201.94l30.52,66.53,27.82-65.26a5.55,5.55,0,0,1,10.2,0l28,65.27,30.15-66.53h30.16l-57,116.93a4.27,4.27,0,0,1-7.76-.18l-27.84-64.41a1,1,0,0,0-1.8,0l-28.15,64.42a4.3,4.3,0,0,1-7.8.16l-56.84-116.91Z"/><path class="cls-2" d="M1531.54,201.94h27V318.49h-27V306.28q-16.63,15.56-35.77,15.56-24.18,0-40-17.47-15.67-17.83-15.68-44.52,0-26.21,15.68-43.67t39.25-17.47q20.34,0,36.49,16.75Zm-63.9,57.91q0,16.75,9,27.29a29.39,29.39,0,0,0,23.21,10.65q15,0,24.17-10.3,9.23-10.64,9.22-27t-9.22-27Q1514.79,223,1500.07,223a29.76,29.76,0,0,0-23.21,10.53Q1467.64,244.18,1467.64,259.85Z"/><path class="cls-2" d="M1098,160.76l-22.69,13.44q-6.36-11-12.12-14.4-6-3.84-15.49-3.84-11.64,0-19.32,6.6a20.46,20.46,0,0,0-7.68,16.32q0,13.58,20.16,21.85l18.49,7.56q22.56,9.14,33,22.27t10.44,32.23q0,25.57-17,42.25t-42.62,16.81q-24.12,0-39.85-14.28-15.48-14.29-19.33-40.22l28.33-6.24q1.92,16.32,6.73,22.57,8.64,12,25.2,12,13.1,0,21.73-8.76t8.64-22.21a31.15,31.15,0,0,0-1.5-9.9,25.12,25.12,0,0,0-4.68-8.28,37.17,37.17,0,0,0-8.22-7.09,78.85,78.85,0,0,0-12-6.3l-17.88-7.44q-38.06-16.08-38-47.06,0-20.88,16-34.93t39.73-14.16Q1079.95,129.55,1098,160.76Z"/><path class="cls-2" d="M1043.09,322.35c-16.14,0-29.66-4.85-40.19-14.41-10.36-9.57-16.91-23.19-19.48-40.52l-.07-.46,29.32-6.46.07.55c1.26,10.74,3.49,18.25,6.62,22.32,5.65,7.84,14,11.81,24.81,11.81,8.55,0,15.74-2.9,21.37-8.61s8.5-13.07,8.5-21.86a30.82,30.82,0,0,0-1.47-9.75,24.85,24.85,0,0,0-4.59-8.11,37.25,37.25,0,0,0-8.12-7,79.52,79.52,0,0,0-11.92-6.26l-17.88-7.44c-25.46-10.76-38.36-26.75-38.36-47.52,0-14,5.43-25.88,16.13-35.3s24.17-14.29,40.06-14.29c21.46,0,38.45,10.58,50.49,31.46l.25.43-23.55,13.95-.25-.44c-4.18-7.25-8.2-12-11.94-14.22-3.92-2.51-9-3.77-15.24-3.77-7.6,0-14,2.18-19,6.48a20.07,20.07,0,0,0-7.5,15.94c0,8.78,6.68,16,19.85,21.39l18.49,7.56c15,6.09,26.23,13.63,33.21,22.42s10.55,19.76,10.55,32.54c0,17.1-5.78,31.44-17.19,42.61S1060.11,322.35,1043.09,322.35Zm-58.61-54.61c2.58,16.87,9,30.14,19.1,39.46,10.33,9.39,23.63,14.15,39.51,14.15,16.75,0,31-5.61,42.27-16.66s16.89-25.07,16.89-41.9c0-12.55-3.48-23.29-10.33-31.92s-17.92-16.09-32.81-22.11l-18.49-7.57c-13.58-5.58-20.47-13.08-20.47-22.31a21,21,0,0,1,7.86-16.7c5.18-4.46,11.8-6.72,19.64-6.72,6.39,0,11.69,1.32,15.76,3.92,3.8,2.22,7.85,7,12,14.13l21.83-12.93c-11.84-20.26-28.45-30.53-49.38-30.53-15.64,0-28.9,4.72-39.4,14s-15.79,20.84-15.79,34.55c0,20.33,12.7,36,37.74,46.6l17.89,7.44a81.18,81.18,0,0,1,12.08,6.34,38.46,38.46,0,0,1,8.33,7.18,25.88,25.88,0,0,1,4.78,8.45,31.92,31.92,0,0,1,1.52,10.06c0,9.06-3,16.65-8.78,22.56s-13.27,8.91-22.09,8.91c-11.16,0-19.78-4.11-25.61-12.21-3.18-4.13-5.45-11.62-6.75-22.25Z"/><path class="cls-2" d="M366.14,217.55V184.71l-44.35,0V167.4h0V126.13H293.86v56.43c5.67,6.46,10.73,14.9,14.82,25.82a89.87,89.87,0,0,1-14.82,8.3v49.55h0v2q0,9,.77,17.84a37.75,37.75,0,0,0,5,16q4.18,7.14,13,11.63t25,4.5a97.08,97.08,0,0,0,12.26-1.08,36.37,36.37,0,0,0,12.88-3.89V287.81a29.46,29.46,0,0,1-9.62,3.41,59,59,0,0,1-10.24.93c-5.38,0-9.46-1-12.26-2.94a17.6,17.6,0,0,1-6.2-7.76,31.92,31.92,0,0,1-2.33-10.86q-.32-6.06-.31-12.26V217.6Z"/><path class="cls-2" d="M337.61,318.72c-10.77,0-19.25-1.53-25.2-4.55s-10.42-7-13.24-11.83a38.36,38.36,0,0,1-5-16.19c-.51-5.87-.77-11.89-.77-17.89V216.35l.3-.13a93.55,93.55,0,0,0,14.42-8c-3.84-10.14-8.75-18.65-14.59-25.31l-.13-.14V125.63h28.93v58.63l44.35,0v33.84l-44.35,0v40.23c0,4.14.1,8.25.31,12.23a31.48,31.48,0,0,0,2.29,10.69,17.09,17.09,0,0,0,6,7.55c2.69,1.89,6.72,2.85,12,2.85a58.83,58.83,0,0,0,10.15-.92,29.41,29.41,0,0,0,9.46-3.35l.75-.43v26.59l-.25.15a37.06,37.06,0,0,1-13.06,3.94A95.94,95.94,0,0,1,337.61,318.72ZM294.36,217v51.26c0,6,.26,12,.77,17.8a37.42,37.42,0,0,0,4.9,15.77c2.73,4.65,7.05,8.5,12.83,11.45s14.14,4.44,24.75,4.44a97.37,97.37,0,0,0,12.2-1.08A36.74,36.74,0,0,0,362.25,313v-24.3a30.46,30.46,0,0,1-9,3,59,59,0,0,1-10.33.94c-5.47,0-9.69-1-12.55-3a18.19,18.19,0,0,1-6.38-8,32.7,32.7,0,0,1-2.36-11c-.21-4-.31-8.13-.31-12.28V217.1l44.35,0V185.21l-44.35,0V126.63H294.36v55.74c5.94,6.81,10.92,15.5,14.79,25.83l.13.36-.31.22A90.54,90.54,0,0,1,294.36,217Z"/></svg>