<?xml version="1.0" encoding="utf-8"?>
<!-- Generator: Adobe Illustrator 25.4.1, SVG Export Plug-In . SVG Version: 6.00 Build 0)  -->
<svg version="1.1" id="Layer_1" xmlns="http://www.w3.org/2000/svg" xmlns:xlink="http://www.w3.org/1999/xlink" x="0px" y="0px"
	 viewBox="0 0 1080 900" style="enable-background:new 0 0 1080 900;" xml:space="preserve">
<style type="text/css">
	.st0{fill:#FFFFFF;stroke:#000000;stroke-miterlimit:10;}
	.st1{fill-rule:evenodd;clip-rule:evenodd;fill:#050505;}
	.st2{fill-rule:evenodd;clip-rule:evenodd;fill:#F47C43;}
	.st3{fill:#010101;}
</style>
<polygon class="st0" points="810,0 1080,450 810,900 270,900 0,450 270,0 "/>
<g>
	<g id="brand-_x2F_-tum-venture-labs-black_00000083048066409309939710000003627642726278615958_">
		<path id="Logo_00000086660204688707574720000010344455661047571628_" class="st1" d="M624.1,290.8L612,328.5h-0.1l-12-37.8h-12.2
			l17.5,53.7h13.3h0l17.8-53.7H624.1z M639.8,290.8v53.7h40.8v-9.9h-29v-13.2h26v-9.2h-26v-11.5H680v-9.9H639.8z M721.8,290.8v36
			h-0.1l-22.4-36h-11.7v53.7h11.1v-36h0.2l22.3,36h11.8v-53.7H721.8z M737.9,290.8v9.9H754v43.8h11.8v-43.8h16.1v-9.9H737.9z
			 M832.6,324.2c0,7.3-2,12.7-6.1,16.2c-4.1,3.6-9.7,5.3-16.9,5.3s-12.9-1.8-16.9-5.3c-4-3.6-6-9-6-16.3v-33.4h11.8v33.4
			c0,1.4,0.1,2.9,0.4,4.3c0.3,1.4,0.8,2.7,1.6,3.8c0.8,1.1,1.9,2,3.3,2.6c1.4,0.7,3.4,1,5.8,1c4.2,0,7.1-0.9,8.7-2.8
			c1.6-1.9,2.4-4.8,2.4-8.8v-33.4h11.8L832.6,324.2L832.6,324.2z M841.6,290.8h29c2.4,0,4.6,0.4,6.5,1.2c1.9,0.8,3.6,1.9,5,3.2
			c1.4,1.4,2.4,2.9,3.2,4.7c0.7,1.8,1.1,3.7,1.1,5.7c0,3.2-0.7,5.9-2,8.2c-1.3,2.3-3.5,4.1-6.5,5.2v0.2c1.5,0.4,2.7,1,3.6,1.8
			c0.9,0.8,1.7,1.8,2.3,3c0.6,1.2,1.1,2.4,1.3,3.7c0.3,1.3,0.5,2.7,0.6,4c0.1,0.8,0.1,1.8,0.1,3c0.1,1.2,0.2,2.3,0.3,3.5
			c0.1,1.2,0.3,2.3,0.6,3.4c0.3,1.1,0.7,2,1.2,2.8H876c-0.3-0.9-0.6-1.8-0.8-2.8c-0.2-1-0.3-2.1-0.5-3.2s-0.2-2.3-0.3-3.5
			c-0.1-1.2-0.2-2.3-0.3-3.4c-0.4-2.8-1.2-4.9-2.6-6.1c-1.3-1.3-3.4-2-6.4-2h-11.8v21h-11.8L841.6,290.8L841.6,290.8z M853.4,315.1
			h13c2.7,0,4.7-0.6,6.1-1.8c1.4-1.2,2.1-3.2,2.1-5.9c0-2.7-0.7-4.5-2.1-5.7c-1.4-1.2-3.4-1.8-6.1-1.8h-13V315.1z M894.5,290.8v53.7
			h40.8v-9.9h-29v-13.2h26v-9.2h-26v-11.5h28.4v-9.9H894.5z M754,354.3V408h38v-9.9h-26.2v-43.8H754z M814,354.1L814,354.1
			L814,354.1l-20.4,53.7h11.9l4.2-12h20.1l4.1,12h12.3l-20.1-53.7H814z M819.8,367.3h0.2l6.8,19.7h-13.9L819.8,367.3z M848.8,354.3
			h25.3c2.5,0,4.9,0.2,7,0.7c2.1,0.5,3.9,1.2,5.4,2.2c1.5,1,2.7,2.4,3.5,4.1c0.8,1.7,1.2,3.8,1.2,6.3c0,2.7-0.6,4.9-1.9,6.7
			c-1.3,1.8-3.1,3.3-5.4,4.5c3.3,1,5.8,2.6,7.4,5c1.6,2.4,2.4,5.2,2.4,8.6c0,2.7-0.5,5.1-1.6,7c-1.1,2-2.5,3.6-4.3,4.9
			c-1.8,1.2-3.8,2.2-6.1,2.8c-2.3,0.6-4.6,0.9-7,0.9h-26.1L848.8,354.3L848.8,354.3z M860.7,376h12c2.1,0,3.8-0.5,5.2-1.5
			c1.4-1,2-2.6,2-4.9c0-1.2-0.2-2.3-0.7-3.1c-0.5-0.8-1-1.4-1.8-1.9c-0.8-0.5-1.6-0.8-2.6-0.9c-1-0.2-2-0.3-3-0.3h-11.1L860.7,376
			L860.7,376z M860.7,398.8h12.6c1.2,0,2.2-0.1,3.3-0.3c1-0.2,2-0.6,2.8-1.1c0.8-0.5,1.5-1.2,1.9-2.2c0.5-0.9,0.7-2,0.7-3.5
			c0-2.7-0.8-4.7-2.3-5.9c-1.6-1.2-3.6-1.8-6.2-1.8h-12.9L860.7,398.8L860.7,398.8z M906.3,390.2c0,1.8,0.3,3.3,1,4.6
			c0.6,1.2,1.5,2.3,2.6,3c1.1,0.8,2.3,1.4,3.8,1.7c1.4,0.4,3,0.6,4.6,0.6c1,0,2.2-0.1,3.4-0.3c1.2-0.2,2.3-0.5,3.4-1
			c1-0.5,1.9-1.2,2.6-2.1c0.7-0.9,1-2,1-3.4c0-1.4-0.5-2.6-1.4-3.6c-0.9-0.9-2.1-1.7-3.7-2.3c-1.5-0.6-3.2-1.2-5.1-1.6
			c-1.9-0.4-3.8-0.9-5.8-1.5c-2-0.5-4-1.1-5.9-1.8c-1.9-0.7-3.6-1.7-5.1-2.8c-1.5-1.2-2.7-2.6-3.7-4.3c-0.9-1.7-1.4-3.8-1.4-6.3
			c0-2.8,0.6-5.2,1.8-7.2c1.2-2,2.7-3.7,4.6-5.1c1.9-1.4,4.1-2.4,6.5-3c2.4-0.7,4.8-1,7.2-1c2.8,0,5.5,0.3,8.1,0.9
			c2.6,0.6,4.9,1.6,6.9,3c2,1.4,3.6,3.2,4.8,5.4s1.8,4.8,1.8,8h-11.5c-0.1-1.6-0.5-2.9-1-4c-0.6-1.1-1.3-1.9-2.3-2.5
			c-1-0.6-2-1-3.3-1.3c-1.2-0.3-2.6-0.4-4-0.4c-1,0-1.9,0.1-2.9,0.3c-1,0.2-1.8,0.5-2.6,1c-0.8,0.5-1.4,1.1-1.9,1.9
			c-0.5,0.8-0.8,1.7-0.8,2.8s0.2,1.9,0.6,2.6c0.4,0.7,1.2,1.2,2.4,1.8c1.2,0.5,2.8,1.1,4.9,1.7c2.1,0.6,4.8,1.3,8.2,2.1
			c0.7,0.1,1.5,0.4,2.6,0.7c1,0.3,2.2,0.7,3.4,1.1c1.2,0.5,2.4,1.1,3.5,1.8c1.2,0.7,2.2,1.7,3.2,2.8c1,1.1,1.8,2.4,2.4,3.9
			c0.6,1.5,0.9,3.3,0.9,5.3c0,2.5-0.5,4.8-1.4,6.8c-0.9,2.1-2.4,3.9-4.3,5.5c-1.9,1.5-4.2,2.7-7,3.6c-2.8,0.9-6,1.3-9.7,1.3
			c-3,0-5.8-0.4-8.6-1.1c-2.8-0.8-5.2-1.9-7.3-3.5c-2.1-1.6-3.8-3.6-5.1-5.9c-1.3-2.4-1.9-5.3-1.9-8.6h11.5L906.3,390.2z
			 M443.4,290.8h-10.5V387h-24.1v-96.2h-87.2v21h21.1V408h21v-96.2h24.1V408h66.2v-96.2H478V408H499v-96.2h24.1V408h21V290.8H443.4z
			 M279.4,408h3.1V290.8h-3.1V408z M169.2,292.1v69.5c0.1,6.4,1.9,11.4,5.5,14.8c3.6,3.4,8.3,5.1,14,5.2v26.7
			c-6.8,0.1-13.6-1-20.1-3.1c-5.7-1.9-10.9-5-15.3-9.1c-4.2-4.1-7.6-9.1-9.7-14.6c-2.4-6.3-3.6-13-3.5-19.8v-69.5H169.2z
			 M188.6,354.9c6.8-0.1,13.6,1,20.1,3.1c5.7,1.9,10.9,5,15.3,9.1c4.2,4.1,7.6,9.1,9.7,14.6h0.1c2.1,5.6,3.3,11.6,3.4,17.6l0,7.5
			h-29.2v-5.2c0-6.4-1.9-11.3-5.4-14.8c-3.6-3.4-8.3-5.2-14-5.2V354.9z M237.3,292.1l0.1,65.6h-29.2v-65.6H237.3z"/>
	</g>
</g>
<g>
	<g>
		<path class="st2" d="M197.5,645.8h33V453.3h-33V645.8z"/>
		<path class="st2" d="M-1127.4,453.3"/>
		<path class="st3" d="M391.4,629.1l-8.5-7.2c4.8-6.5,7.5-14.4,7.5-22.8v-0.2c0-20.9-15.9-38.1-38.6-38.1S313,578.3,313,599.2v0.2
			c0,20.9,15.9,38.1,38.6,38.1c8.7,0,16.3-2.6,22.6-7l8.9,7.9L391.4,629.1z M351.8,625.4c-14.7,0-25.2-11.9-25.2-26.3v-0.2
			c0-14.4,10.3-26.2,25-26.2s25.2,12,25.2,26.4v0.2c0,5.3-1.3,10.1-3.6,14.1l-13-11.9l-8.4,9.5l12.8,10.9
			C361,624.1,356.7,625.4,351.8,625.4z M436.6,637.4c19.4,0,31.9-11.1,31.9-33.2v-42h-13v42.7c0,13.7-7.1,20.5-18.6,20.5
			c-11.6,0-18.7-7.3-18.7-21.1v-42.1h-13v42.7C405.1,626.3,417.3,637.4,436.6,637.4z M477.4,636.2h13.3l7.6-17.9h35l7.5,17.9h13.8
			l-32.6-74.6H510L477.4,636.2z M503.1,606.8l12.7-29.6l12.8,29.6H503.1z M567.4,636.2h12.8v-52.7l40.9,52.7H632v-74.1h-12.8v51.2
			l-39.7-51.2h-12.1V636.2z M669.2,636.2h13.1v-62h23.5v-12.1h-60.1v12.1h23.5V636.2z M750,637.4c19.4,0,31.9-11.1,31.9-33.2v-42
			h-13v42.7c0,13.7-7.1,20.5-18.6,20.5c-11.6,0-18.7-7.3-18.7-21.1v-42.1h-13v42.7C718.4,626.3,730.7,637.4,750,637.4z M799.8,636.2
			h12.8v-52.9l23.2,34.7h0.4l23.4-34.9v53.1h13v-74.1h-13.9l-22.6,35l-22.6-35h-13.9V636.2z"/>
	</g>
</g>
</svg>
